<?xml version="1.0" encoding="utf-8"?>
<!-- Generator: Adobe Illustrator 23.0.4, SVG Export Plug-In . SVG Version: 6.00 Build 0)  -->
<svg version="1.1" id="Layer_1" xmlns="http://www.w3.org/2000/svg" xmlns:xlink="http://www.w3.org/1999/xlink" x="0px" y="0px"
	 width="200px" height="21.2px" viewBox="0 0 200 21.2" style="enable-background:new 0 0 200 21.2;" xml:space="preserve">
<style type="text/css">
	.st0{fill-rule:evenodd;clip-rule:evenodd;fill:#212730;}
</style>
<title>logo_drawboard_dark</title>
<path class="st0" d="M133.2,10.7l-4.4,7.7c-0.1,0.1-0.2,0.1-0.3,0.2h-8.8c-0.1,0-0.2-0.1-0.3-0.1l-4.4-7.7c0-0.1,0-0.2,0-0.3
	l4.4-7.7c0.1-0.1,0.2-0.1,0.3-0.2l8.8,0c0.1,0,0.2,0.1,0.3,0.1l4.4,7.7C133.2,10.5,133.2,10.7,133.2,10.7z M130.7,1.4
	c-0.4-0.7-1.3-1.2-2.1-1.2h-9.1c-0.8,0-1.7,0.6-2.1,1.2l-4.5,8c-0.4,0.7-0.4,1.8,0,2.5l4.5,8c0.4,0.7,1.3,1.2,2.1,1.2h9.1
	c0.8,0,1.7-0.6,2.1-1.2l4.5-8c0.4-0.7,0.4-1.8,0-2.5L130.7,1.4z M121.6,10.6c0,1.4,1.2,2.4,2.6,2.4c1.3,0,2.4-1.1,2.4-2.4
	c0-1.4-1.2-2.4-2.6-2.4C122.7,8.2,121.7,9.3,121.6,10.6z M176.4,18.6c-0.9-0.2-1.7-0.7-2.3-1.5c-0.4-0.5-3-4-3.5-4.6
	c3.3-0.6,5.6-3.1,5.6-6.1V6.3c0-1.6-0.6-3.1-1.6-4.1c-1.3-1.3-3.4-2.1-5.8-2.1h-7.6c-0.7,0-1.3,0.6-1.3,1.3v18.3
	c0,0.7,0.6,1.3,1.3,1.3c0.7,0,1.3-0.6,1.3-1.3v-6.8h5.3c0.8,1,3.7,4.9,4.3,5.7c0.9,1.2,2.3,2.1,3.8,2.4c0.7,0.1,1.4-0.3,1.5-1
	C177.5,19.4,177.1,18.7,176.4,18.6z M173.6,6.4L173.6,6.4c0,2.5-2,4.1-5.1,4.1h-6.1v-8h6.1C171.7,2.5,173.6,4,173.6,6.4z
	 M104.8,10.1c1.4-0.7,3-2.1,3-4.7V5.4c0-1.3-0.5-2.4-1.3-3.4c-1.2-1.2-3.1-1.9-5.4-1.9h-7.5c-0.7,0-1.3,0.6-1.3,1.3v18.2
	c0,0.7,0.6,1.3,1.3,1.3h7.9c4.6,0,7.5-2.2,7.5-5.7v-0.1C108.9,12.7,107.5,11.1,104.8,10.1L104.8,10.1z M94.8,9.3V2.5h6
	c2.7,0,4.4,1.2,4.4,3.2v0.1c0,2.2-1.7,3.5-4.5,3.5L94.8,9.3L94.8,9.3z M101.4,18.5h-6.7v-7h6.3c3.4,0,5.2,1.2,5.2,3.4V15
	C106.3,17.2,104.4,18.5,101.4,18.5z M149.1,1c-0.3-0.7-0.8-1.1-1.5-1.1h-0.1c-0.7,0-1.2,0.4-1.6,1.1l-8.2,18.2
	c-0.1,0.2-0.2,0.4-0.2,0.7c0,0.7,0.5,1.2,1.2,1.2c0.6,0,1-0.3,1.2-0.9l2.1-4.7h10.9l2.1,4.6c0.3,0.6,0.7,0.9,1.3,0.9
	c0.7,0,1.2-0.6,1.2-1.3c0-0.2-0.1-0.4-0.2-0.6L149.1,1z M151.8,13.1h-8.9l4.4-10L151.8,13.1z M189.1,0.1h-5.9
	c-0.7,0-1.3,0.6-1.3,1.3v18.2c0,0.7,0.6,1.3,1.3,1.3h5.9c6.3,0,10.9-4.4,10.9-10.4v-0.1C200,4.4,195.4,0.1,189.1,0.1L189.1,0.1z
	 M189.1,18.4h-4.6v-16h4.6c4.9,0,8.3,3.3,8.3,8v0.1C197.3,15.2,194,18.4,189.1,18.4z M36.5,17.1c-0.4-0.5-3-4-3.5-4.6
	c3.3-0.6,5.6-3.1,5.6-6.1c0-1.7-0.6-3.1-1.6-4.2c-1.3-1.3-3.4-2.1-5.8-2.1h-7.6c-0.7,0-1.3,0.6-1.3,1.3v18.3c0,0.7,0.6,1.3,1.3,1.3
	c0.7,0,1.3-0.6,1.3-1.3v-6.8h5.3c0.7,1,3.7,4.9,4.3,5.7c0.9,1.2,2.3,2.1,3.8,2.4c0.7,0.1,1.3-0.3,1.5-1c0.1-0.7-0.3-1.4-1-1.5
	C37.9,18.4,37.1,17.8,36.5,17.1z M36.1,6.4L36.1,6.4c0,2.5-2,4.1-5.1,4.1h-6.1v-8H31C34.2,2.5,36.1,4,36.1,6.4L36.1,6.4z M7.2,0.1
	H1.3C0.6,0.1,0,0.7,0,1.4v18.2c0,0.7,0.6,1.3,1.3,1.3h5.9c6.3,0,10.9-4.4,10.9-10.4v-0.1C18.1,4.5,13.5,0.1,7.2,0.1L7.2,0.1z
	 M7.2,18.5H2.6v-16h4.6c4.9,0,8.3,3.3,8.3,8v0.1C15.4,15.2,12,18.5,7.2,18.5z M54.6,1c-0.3-0.7-0.8-1.1-1.5-1.1h-0.1
	c-0.7,0-1.2,0.4-1.6,1.1l-8.2,18.2C43,19.4,43,19.6,43,19.9c0,0.7,0.5,1.2,1.2,1.2c0.6,0,1-0.3,1.2-0.9l2.1-4.7h10.9l2.1,4.6
	c0.3,0.6,0.7,0.9,1.3,0.9c0.7,0,1.2-0.6,1.2-1.3c0-0.2-0.1-0.4-0.2-0.6L54.6,1z M57.4,13.1h-8.9l4.4-10L57.4,13.1z M86.6,0
	c-0.6,0-1,0.4-1.2,1l-5.4,15.9l-3.1-9l2.1-6c0,0,0-0.1,0-0.1l0,0c0.1-0.1,0.1-0.3,0.1-0.5c0-0.7-0.6-1.3-1.3-1.3c-0.6,0-1,0.4-1.2,1
	l-5.4,15.9L65.7,1.1C65.5,0.4,65,0,64.4,0c-0.7,0-1.3,0.6-1.3,1.3c0,0.2,0.1,0.4,0.1,0.6l6.2,17.4l0.3,0.8c0.2,0.7,0.7,1.1,1.3,1.1
	h0.2c0.6,0,1.1-0.4,1.3-1.1l0.3-0.8l2.7-7.6l2.7,7.6l0.3,0.8c0.2,0.7,0.7,1.1,1.3,1.1H80c0.6,0,1.1-0.4,1.3-1.1l0.3-0.8l6.2-17.5
	l0-0.1l0,0c0.1-0.1,0.1-0.3,0.1-0.5C87.9,0.6,87.3,0,86.6,0z"/>
</svg>
