<?xml version="1.0" encoding="UTF-8"?>
<svg width="555px" height="388px" viewBox="0 0 555 388" version="1.1" xmlns="http://www.w3.org/2000/svg" xmlns:xlink="http://www.w3.org/1999/xlink">
    <!-- Generator: Sketch 63.1 (92452) - https://sketch.com -->
    <title>recurring-billing</title>
    <desc>Created with Sketch.</desc>
    <defs>
        <rect id="path-1" x="0" y="0" width="555" height="388"></rect>
        <rect id="path-3" x="98" y="55" width="379" height="387" rx="8"></rect>
        <filter x="-21.1%" y="-17.3%" width="145.9%" height="152.2%" filterUnits="objectBoundingBox" id="filter-4">
            <feOffset dx="0" dy="4" in="SourceAlpha" result="shadowOffsetOuter1"></feOffset>
            <feGaussianBlur stdDeviation="13" in="shadowOffsetOuter1" result="shadowBlurOuter1"></feGaussianBlur>
            <feColorMatrix values="0 0 0 0 0   0 0 0 0 0   0 0 0 0 0  0 0 0 0.09 0" type="matrix" in="shadowBlurOuter1" result="shadowMatrixOuter1"></feColorMatrix>
            <feOffset dx="7" dy="48" in="SourceAlpha" result="shadowOffsetOuter2"></feOffset>
            <feGaussianBlur stdDeviation="21" in="shadowOffsetOuter2" result="shadowBlurOuter2"></feGaussianBlur>
            <feColorMatrix values="0 0 0 0 0   0 0 0 0 0   0 0 0 0 0  0 0 0 0.13 0" type="matrix" in="shadowBlurOuter2" result="shadowMatrixOuter2"></feColorMatrix>
            <feMerge>
                <feMergeNode in="shadowMatrixOuter1"></feMergeNode>
                <feMergeNode in="shadowMatrixOuter2"></feMergeNode>
            </feMerge>
        </filter>
        <rect id="path-5" x="0" y="0" width="379" height="387" rx="8"></rect>
        <filter x="-21.1%" y="-17.3%" width="145.9%" height="152.2%" filterUnits="objectBoundingBox" id="filter-6">
            <feOffset dx="0" dy="4" in="SourceAlpha" result="shadowOffsetOuter1"></feOffset>
            <feGaussianBlur stdDeviation="13" in="shadowOffsetOuter1" result="shadowBlurOuter1"></feGaussianBlur>
            <feColorMatrix values="0 0 0 0 0   0 0 0 0 0   0 0 0 0 0  0 0 0 0.09 0" type="matrix" in="shadowBlurOuter1" result="shadowMatrixOuter1"></feColorMatrix>
            <feOffset dx="7" dy="48" in="SourceAlpha" result="shadowOffsetOuter2"></feOffset>
            <feGaussianBlur stdDeviation="21" in="shadowOffsetOuter2" result="shadowBlurOuter2"></feGaussianBlur>
            <feColorMatrix values="0 0 0 0 0   0 0 0 0 0   0 0 0 0 0  0 0 0 0.13 0" type="matrix" in="shadowBlurOuter2" result="shadowMatrixOuter2"></feColorMatrix>
            <feMerge>
                <feMergeNode in="shadowMatrixOuter1"></feMergeNode>
                <feMergeNode in="shadowMatrixOuter2"></feMergeNode>
            </feMerge>
        </filter>
        <linearGradient x1="50%" y1="0%" x2="50%" y2="100%" id="linearGradient-7">
            <stop stop-color="#FFFFFF" stop-opacity="0" offset="0%"></stop>
            <stop stop-color="#FFFFFF" offset="100%"></stop>
        </linearGradient>
    </defs>
    <g id="March-Spring-Release" stroke="none" stroke-width="1" fill="none" fill-rule="evenodd">
        <g id="recurring-billing">
            <mask id="mask-2" fill="white">
                <use xlink:href="#path-1"></use>
            </mask>
            <use id="Mask" fill-opacity="0.01" fill="#FFFFFF" xlink:href="#path-1"></use>
            <text id="Next-Retry-in-3-days" mask="url(#mask-2)" font-family="SFMono-Medium, SF Mono" font-size="14" font-weight="400" fill="#00000A">
                <tspan x="145" y="352">Next Retry in 3 days</tspan>
            </text>
            <g id="Rectangle" mask="url(#mask-2)">
                <use fill="black" fill-opacity="1" filter="url(#filter-4)" xlink:href="#path-3"></use>
                <use fill="#FFFFFF" fill-rule="evenodd" xlink:href="#path-3"></use>
            </g>
            <g id="Group-3" mask="url(#mask-2)">
                <g transform="translate(68.000000, 25.000000)">
                    <g id="Rectangle" fill="none">
                        <use fill="black" fill-opacity="1" filter="url(#filter-6)" xlink:href="#path-5"></use>
                        <use fill="#FFFFFF" fill-rule="evenodd" xlink:href="#path-5"></use>
                    </g>
                    <path d="M314.252437,77.1176471 L314.252437,69 L313,69 L313,77.1176471 L314.252437,77.1176471 Z M317.186387,77.1176471 L317.186387,74.0793277 C317.186387,73.8087395 317.226975,73.5632773 317.308151,73.3429412 C317.389328,73.122605 317.497563,72.9351261 317.632857,72.7805042 C317.768151,72.6258824 317.926639,72.5060504 318.108319,72.4210084 C318.29,72.3359664 318.48521,72.2934454 318.69395,72.2934454 C319.103697,72.2934454 319.418739,72.4055462 319.639076,72.6297479 C319.859412,72.8539496 319.96958,73.1631933 319.96958,73.557479 L319.96958,73.557479 L319.96958,77.1176471 L321.152437,77.1176471 L321.152437,73.2095798 C321.152437,72.8848739 321.100252,72.5968908 320.995882,72.3456303 C320.891513,72.0943697 320.75042,71.8856303 320.572605,71.7194118 C320.39479,71.5531933 320.182185,71.4256303 319.93479,71.3367227 C319.687395,71.2478151 319.424538,71.2033613 319.146218,71.2033613 C318.728739,71.2033613 318.347983,71.3057983 318.00395,71.5106723 C317.659916,71.7155462 317.387395,71.9880672 317.186387,72.3282353 L317.186387,72.3282353 L317.186387,71.3657143 L316.003529,71.3657143 L316.003529,77.1176471 L317.186387,77.1176471 Z M325.512773,77.1176471 L327.832101,71.3657143 L326.556471,71.3657143 L324.944538,75.6448739 L323.332605,71.3657143 L322.056975,71.3657143 L324.376303,77.1176471 L325.512773,77.1176471 Z M331.264706,77.28 C331.643529,77.28 332.016555,77.2162185 332.383782,77.0886555 C332.751008,76.9610924 333.07958,76.7697479 333.369496,76.5146218 C333.659412,76.2594958 333.893277,75.942521 334.071092,75.5636975 C334.248908,75.1848739 334.337815,74.7442017 334.337815,74.2416807 C334.337815,73.7468908 334.248908,73.310084 334.071092,72.9312605 C333.893277,72.552437 333.659412,72.2354622 333.369496,71.9803361 C333.07958,71.7252101 332.751008,71.5319328 332.383782,71.4005042 C332.016555,71.2690756 331.643529,71.2033613 331.264706,71.2033613 C330.885882,71.2033613 330.512857,71.2690756 330.14563,71.4005042 C329.778403,71.5319328 329.449832,71.7252101 329.159916,71.9803361 C328.87,72.2354622 328.636134,72.552437 328.458319,72.9312605 C328.280504,73.310084 328.191597,73.7468908 328.191597,74.2416807 C328.191597,74.7442017 328.280504,75.1848739 328.458319,75.5636975 C328.636134,75.942521 328.87,76.2594958 329.159916,76.5146218 C329.449832,76.7697479 329.778403,76.9610924 330.14563,77.0886555 C330.512857,77.2162185 330.885882,77.28 331.264706,77.28 Z M331.264706,76.189916 C331.00958,76.189916 330.769916,76.1435294 330.545714,76.0507563 C330.321513,75.9579832 330.12437,75.8265546 329.954286,75.6564706 C329.784202,75.4863866 329.648908,75.2815126 329.548403,75.0418487 C329.447899,74.8021849 329.397647,74.5354622 329.397647,74.2416807 C329.397647,73.9478992 329.447899,73.6811765 329.548403,73.4415126 C329.648908,73.2018487 329.784202,72.9969748 329.954286,72.8268908 C330.12437,72.6568067 330.321513,72.5253782 330.545714,72.432605 C330.769916,72.3398319 331.00958,72.2934454 331.264706,72.2934454 C331.519832,72.2934454 331.759496,72.3398319 331.983697,72.432605 C332.207899,72.5253782 332.405042,72.6568067 332.575126,72.8268908 C332.74521,72.9969748 332.880504,73.2018487 332.981008,73.4415126 C333.081513,73.6811765 333.131765,73.9478992 333.131765,74.2416807 C333.131765,74.5354622 333.081513,74.8021849 332.981008,75.0418487 C332.880504,75.2815126 332.74521,75.4863866 332.575126,75.6564706 C332.405042,75.8265546 332.207899,75.9579832 331.983697,76.0507563 C331.759496,76.1435294 331.519832,76.189916 331.264706,76.189916 Z M336.761513,70.4495798 L336.761513,69.1159664 L335.416303,69.1159664 L335.416303,70.4495798 L336.761513,70.4495798 Z M336.680336,77.1176471 L336.680336,71.3657143 L335.497479,71.3657143 L335.497479,77.1176471 L336.680336,77.1176471 Z M340.855126,77.28 C341.458151,77.28 341.981933,77.1389076 342.426471,76.8567227 C342.871008,76.5745378 343.228571,76.1628571 343.49916,75.6216807 L343.49916,75.6216807 L342.583025,75.0302521 C342.389748,75.3936134 342.163613,75.6777311 341.904622,75.882605 C341.64563,76.087479 341.299664,76.189916 340.866723,76.189916 C340.611597,76.189916 340.375798,76.1454622 340.159328,76.0565546 C339.942857,75.9676471 339.753445,75.840084 339.591092,75.6738655 C339.428739,75.5076471 339.303109,75.3027731 339.214202,75.0592437 C339.125294,74.8157143 339.08084,74.5431933 339.08084,74.2416807 C339.08084,73.9401681 339.127227,73.6676471 339.22,73.4241176 C339.312773,73.1805882 339.440336,72.9757143 339.602689,72.8094958 C339.765042,72.6432773 339.954454,72.5157143 340.170924,72.4268067 C340.387395,72.3378992 340.619328,72.2934454 340.866723,72.2934454 C341.191429,72.2934454 341.494874,72.3707563 341.777059,72.5253782 C342.059244,72.68 342.304706,72.969916 342.513445,73.3951261 L342.513445,73.3951261 L343.452773,72.7689076 C343.251765,72.2818487 342.927059,71.8991597 342.478655,71.6208403 C342.030252,71.342521 341.489076,71.2033613 340.855126,71.2033613 C340.453109,71.2033613 340.072353,71.2768067 339.712857,71.4236975 C339.353361,71.5705882 339.036387,71.777395 338.761933,72.0441176 C338.487479,72.3108403 338.271008,72.6316807 338.112521,73.0066387 C337.954034,73.3815966 337.87479,73.7932773 337.87479,74.2416807 C337.87479,74.690084 337.952101,75.1017647 338.106723,75.4767227 C338.261345,75.8516807 338.472017,76.172521 338.738739,76.4392437 C339.005462,76.7059664 339.320504,76.9127731 339.683866,77.0596639 C340.047227,77.2065546 340.437647,77.28 340.855126,77.28 Z M347.175294,77.28 C347.832437,77.28 348.373613,77.1389076 348.798824,76.8567227 C349.224034,76.5745378 349.571933,76.1551261 349.842521,75.5984874 L349.842521,75.5984874 L348.926387,75.0534454 C348.841345,75.2235294 348.748571,75.3820168 348.648067,75.5289076 C348.547563,75.6757983 348.429664,75.8014286 348.29437,75.9057983 C348.159076,76.0101681 348.002521,76.0932773 347.824706,76.1551261 C347.646891,76.2169748 347.442017,76.2478992 347.210084,76.2478992 C346.954958,76.2478992 346.723025,76.2053782 346.514286,76.1203361 C346.305546,76.0352941 346.123866,75.9135294 345.969244,75.755042 C345.814622,75.5965546 345.692857,75.4110084 345.60395,75.1984034 C345.515042,74.9857983 345.466723,74.7519328 345.458992,74.4968067 L345.458992,74.4968067 L350.016471,74.4968067 L350.016471,74.0793277 C350.016471,73.6618487 349.948824,73.2772269 349.813529,72.9254622 C349.678235,72.5736975 349.488824,72.2702521 349.245294,72.0151261 C349.001765,71.76 348.709916,71.5609244 348.369748,71.4178992 C348.02958,71.2748739 347.650756,71.2033613 347.233277,71.2033613 C346.823529,71.2033613 346.438908,71.2768067 346.079412,71.4236975 C345.719916,71.5705882 345.406807,71.777395 345.140084,72.0441176 C344.873361,72.3108403 344.662689,72.6316807 344.508067,73.0066387 C344.353445,73.3815966 344.276134,73.7932773 344.276134,74.2416807 C344.276134,74.690084 344.353445,75.1017647 344.508067,75.4767227 C344.662689,75.8516807 344.871429,76.172521 345.134286,76.4392437 C345.397143,76.7059664 345.704454,76.9127731 346.056218,77.0596639 C346.407983,77.2065546 346.781008,77.28 347.175294,77.28 Z M348.891597,73.5922689 L345.458992,73.5922689 C345.513109,73.3835294 345.594286,73.1921849 345.702521,73.0182353 C345.810756,72.8442857 345.940252,72.6935294 346.091008,72.5659664 C346.241765,72.4384034 346.411849,72.3378992 346.601261,72.2644538 C346.790672,72.1910084 346.993613,72.1542857 347.210084,72.1542857 C347.411092,72.1542857 347.606303,72.1852101 347.795714,72.2470588 C347.985126,72.3089076 348.157143,72.3997479 348.311765,72.5195798 C348.466387,72.6394118 348.595882,72.7901681 348.700252,72.9718487 C348.804622,73.1535294 348.868403,73.3603361 348.891597,73.5922689 L348.891597,73.5922689 Z" id="Invoicefor$599.00" fill="#00000A" fill-rule="nonzero"></path>
                    <g id="Group-45" stroke-width="1" fill="none" fill-rule="evenodd" transform="translate(38.000000, 68.000000)">
                        <path d="M4.73649383,15.8597531 L4.73649383,15.5168395 L2.52898765,15.5168395 L3.83634568,11.4876049 L8.7657284,11.4876049 L10.4588642,15.5168395 L8.7014321,15.5168395 L8.7014321,15.8597531 L16.5884444,15.8597531 L16.5884444,15.5168395 L15.6025679,15.5168395 L8.80859259,0 L7.69412346,0 L0.878716049,15.5168395 L0,15.5168395 L0,15.8597531 L4.73649383,15.8597531 Z M8.5942716,11.1018272 L3.94350617,11.1018272 L5.95812346,4.88651852 L8.5942716,11.1018272 Z M24.2182716,16.2883951 C26.8115556,16.2883951 29.1476543,14.9596049 30.1763951,13.1164444 L30.154963,13.0950123 C29.7477531,13.2879012 28.9976296,13.3736296 28.3975309,13.3736296 C23.8324938,13.3736296 19.3746173,8.89432099 19.3746173,3.4291358 C19.3746173,1.7145679 20.1033086,0.985876543 21.046321,0.985876543 C22.568,0.985876543 24.2825679,2.42182716 27.5402469,8.78716049 L27.561679,8.78716049 L29.4477037,1.30735802 C27.8831605,0.492938272 26.04,0 23.8324938,0 C19.1388642,0 16.052642,3.02192593 16.052642,7.62982716 C16.052642,12.6878025 19.2888889,16.2883951 24.2182716,16.2883951 Z M40.8495802,15.9669136 L45.3717531,2.37896296 L47.0648889,15.5168395 L44.921679,15.5168395 L44.921679,15.8597531 L53.4302222,15.8597531 L53.4302222,15.5168395 L51.8013827,15.5168395 L50.0439506,1.58597531 L51.9728395,0.428641975 L44.7287901,0.428641975 L42.3498272,10.2659753 L38.5992099,0.428641975 L32.0409877,0.428641975 L33.9698765,1.58597531 L33.9698765,1.60740741 L32.0838519,15.5168395 L30.7121975,15.5168395 L30.7121975,15.8597531 L35.9201975,15.8597531 L35.9201975,15.5168395 L33.7126914,15.5168395 L34.291358,2.35753086 L39.6708148,15.9669136 L40.8495802,15.9669136 Z M67.5111111,15.8597531 L67.5111111,10.5017284 L67.489679,10.5017284 C65.4750617,14.2309136 63.3104198,15.4739753 60.7814321,15.5168395 L60.7814321,7.92987654 C62.1745185,7.99417284 63.6104691,9.10864198 64.4248889,10.7803457 L64.446321,10.7803457 L64.446321,4.80079012 L64.4248889,4.80079012 C63.6319012,6.42962963 62.1316543,7.56553086 60.7814321,7.62982716 L60.7814321,0.771555556 C63.3104198,0.792987654 65.4750617,2.10034568 67.489679,5.78666667 L67.5111111,5.78666667 L67.5111111,0.428641975 L54.1589136,0.428641975 L56.0663704,1.58597531 L56.0663704,15.5168395 L54.3518025,15.5168395 L54.3518025,15.8597531 L67.5111111,15.8597531 Z" id="ACME" fill="#00000A" fill-rule="nonzero"></path>
                        <path d="M20.3935802,30.9777778 C21.8080988,30.9777778 22.944,30.4634074 23.7584198,29.734716 L23.3512099,28.9845926 C22.7082469,29.3489383 22.1724444,29.498963 21.4866173,29.498963 C20.0078025,29.498963 18.614716,28.2987654 18.614716,25.6197531 C18.614716,23.7122963 19.1933827,22.6835556 20.2864198,22.6835556 C20.7364938,22.6835556 21.0794074,22.8550123 21.4651852,23.1764938 L23.0940247,25.3625679 L23.372642,25.3625679 L23.372642,21.912 C22.5582222,21.6119506 21.7009383,21.4404938 20.8650864,21.4404938 C17.8645926,21.4404938 16,23.6265679 16,26.4341728 C16,29.1774815 17.7145679,30.9777778 20.3935802,30.9777778 Z M29.1378765,30.9777778 C31.8597531,30.9777778 33.8100741,29.0060247 33.8100741,26.0912593 C33.8100741,23.1764938 31.9026173,21.4404938 29.3950617,21.4404938 C26.6088889,21.4404938 24.7228642,23.6051358 24.7228642,26.4341728 C24.7228642,29.1774815 26.5231605,30.9777778 29.1378765,30.9777778 Z M29.5665185,29.713284 C28.2805926,29.713284 27.3375802,27.998716 27.3375802,25.5554568 C27.3375802,23.7980247 27.9591111,22.769284 28.9664198,22.769284 C30.2523457,22.769284 31.195358,24.4838519 31.195358,26.9271111 C31.195358,28.6845432 30.5738272,29.713284 29.5665185,29.713284 Z M40.0039506,30.7634568 L40.0039506,29.3918025 L38.7180247,29.3918025 L38.6108642,29.284642 L38.6108642,23.9909136 C38.8466173,23.9694815 39.0823704,23.9480494 39.3181235,23.9480494 C40.2825679,23.9480494 41.161284,24.076642 41.9971358,24.3123951 L41.9971358,21.5476543 C41.7828148,21.4619259 41.611358,21.4404938 41.3756049,21.4404938 C40.5611852,21.4404938 39.5967407,22.0620247 38.5465679,23.0264691 L38.2679506,21.483358 L37.9893333,21.3333333 L34.7745185,22.9836049 L34.7745185,23.2622222 L36.1461728,24.0980741 L36.1461728,29.284642 L36.0390123,29.3918025 L35.0745679,29.3918025 L35.0745679,30.7634568 L40.0039506,30.7634568 Z M47.6980741,35.6928395 L47.6980741,34.3211852 L46.4121481,34.3211852 L46.3049877,34.2140247 L46.3049877,30.6562963 C46.7764938,30.8706173 47.3122963,30.9777778 47.9123951,30.9777778 C50.6128395,30.9777778 52.5417284,28.7702716 52.5417284,25.9412346 C52.5417284,23.2836543 51.148642,21.4404938 49.2626173,21.4404938 C48.1695802,21.4404938 47.2694321,22.0191605 46.2406914,22.8121481 L45.9620741,21.483358 L45.6834568,21.3333333 L42.468642,22.9836049 L42.468642,23.2622222 L43.8402963,24.0980741 L43.8402963,34.2140247 L43.7331358,34.3211852 L42.7686914,34.3211852 L42.7686914,35.6928395 L47.6980741,35.6928395 Z M47.9981235,29.6918519 C47.2694321,29.6918519 46.6693333,29.3060741 46.3049877,28.6631111 L46.3049877,23.4765432 C46.8622222,23.3479506 47.2908642,23.2836543 47.8266667,23.2836543 C49.0911605,23.2836543 49.9270123,24.3766914 49.9270123,26.5199012 C49.9270123,28.4702222 49.2840494,29.6918519 47.9981235,29.6918519 Z" id="corp" fill="#00000A" fill-rule="nonzero" opacity="0.400000006"></path>
                    </g>
                    <path d="M79.2558594,327 L79.2558594,319.603516 L79.3583984,319.603516 L83.3505859,327 L84.6630859,327 L84.6630859,317.135742 L83.3984375,317.135742 L83.3984375,324.511719 L83.2958984,324.511719 L79.3173828,317.135742 L77.9912109,317.135742 L77.9912109,327 L79.2558594,327 Z M90.1523438,327.143555 C91.7587891,327.143555 92.9892578,326.282227 93.1875,325.03125 L91.875,325.03125 C91.6904297,325.639648 91.0273438,326.015625 90.1455078,326.015625 C88.9697266,326.015625 88.2109375,325.208984 88.2109375,323.951172 L88.2109375,323.616211 L93.2080078,323.616211 L93.2080078,322.80957 C93.2080078,320.69043 92.0253906,319.405273 90.0771484,319.405273 C88.1425781,319.405273 86.8642578,320.697266 86.8642578,322.65918 L86.8642578,323.793945 C86.8642578,325.913086 88.0605469,327.143555 90.1523438,327.143555 Z M91.8613281,322.652344 L88.2109375,322.652344 C88.2109375,321.319336 88.9082031,320.526367 90.0634766,320.526367 C91.1914062,320.526367 91.8613281,321.326172 91.8613281,322.652344 Z M96.8037109,327 L98.5673828,324.231445 L98.6630859,324.231445 L100.419922,327 L101.985352,327 L99.4697266,323.226562 L101.964844,319.548828 L100.433594,319.548828 L98.7177734,322.290039 L98.6220703,322.290039 L96.8925781,319.548828 L95.2929688,319.548828 L97.8085938,323.28125 L95.3066406,327 L96.8037109,327 Z M108.677734,327.027344 C108.964844,327.027344 110.044922,327 110.195312,326.972656 L110.195312,325.851562 C110.03125,325.87207 109.12207,325.885742 108.773438,325.885742 C107.823242,325.885742 107.310547,325.482422 107.310547,324.744141 L107.310547,320.717773 L110.236328,320.717773 L110.236328,319.589844 L107.290039,319.589844 L107.290039,317.511719 L105.936523,317.511719 L105.936523,319.589844 L103.967773,319.589844 L103.967773,320.717773 L105.936523,320.717773 L105.936523,324.744141 C105.936523,326.34375 106.770508,327.027344 108.677734,327.027344 Z M122.848633,327 L122.848633,323.151367 L124.865234,323.151367 L126.669922,327 L128.269531,327 L126.273438,322.884766 C127.380859,322.501953 128.084961,321.435547 128.084961,320.150391 C128.084961,318.28418 126.84082,317.135742 124.824219,317.135742 L121.433594,317.135742 L121.433594,327 L122.848633,327 Z M124.625977,322.00293 L122.848633,322.00293 L122.848633,318.345703 L124.673828,318.345703 C125.924805,318.345703 126.649414,319.015625 126.649414,320.177734 C126.649414,321.339844 125.917969,322.00293 124.625977,322.00293 Z M133.423828,327.143555 C135.030273,327.143555 136.260742,326.282227 136.458984,325.03125 L135.146484,325.03125 C134.961914,325.639648 134.298828,326.015625 133.416992,326.015625 C132.241211,326.015625 131.482422,325.208984 131.482422,323.951172 L131.482422,323.616211 L136.479492,323.616211 L136.479492,322.80957 C136.479492,320.69043 135.296875,319.405273 133.348633,319.405273 C131.414062,319.405273 130.135742,320.697266 130.135742,322.65918 L130.135742,323.793945 C130.135742,325.913086 131.332031,327.143555 133.423828,327.143555 Z M135.132812,322.652344 L131.482422,322.652344 C131.482422,321.319336 132.179688,320.526367 133.334961,320.526367 C134.462891,320.526367 135.132812,321.326172 135.132812,322.652344 Z M143.294922,327.027344 C143.582031,327.027344 144.662109,327 144.8125,326.972656 L144.8125,325.851562 C144.648438,325.87207 143.739258,325.885742 143.390625,325.885742 C142.44043,325.885742 141.927734,325.482422 141.927734,324.744141 L141.927734,320.717773 L144.853516,320.717773 L144.853516,319.589844 L141.907227,319.589844 L141.907227,317.511719 L140.553711,317.511719 L140.553711,319.589844 L138.584961,319.589844 L138.584961,320.717773 L140.553711,320.717773 L140.553711,324.744141 C140.553711,326.34375 141.387695,327.027344 143.294922,327.027344 Z M152.578125,327 L152.578125,325.947266 L150.31543,325.947266 L150.31543,323.677734 C150.31543,321.852539 151.251953,320.806641 152.933594,320.806641 C153.34375,320.806641 153.829102,320.895508 154.164062,321.018555 L154.164062,319.514648 C153.917969,319.412109 153.514648,319.357422 153.09082,319.357422 C151.662109,319.357422 150.793945,320.047852 150.5,321.449219 L150.308594,321.449219 L150.308594,319.548828 L147.362305,319.548828 L147.362305,320.601562 L148.982422,320.601562 L148.982422,325.947266 L147.505859,325.947266 L147.505859,327 L152.578125,327 Z M157.089844,329.666016 C158.607422,329.666016 159.304688,329.078125 159.954102,327.225586 L162.688477,319.548828 L161.232422,319.548828 L159.28418,325.646484 L159.188477,325.646484 L157.226562,319.548828 L155.722656,319.548828 L158.436523,327.054688 L158.320312,327.423828 C158.046875,328.209961 157.657227,328.510742 156.939453,328.510742 C156.830078,328.510742 156.604492,328.503906 156.529297,328.490234 L156.529297,329.645508 C156.618164,329.652344 156.87793,329.666016 157.089844,329.666016 Z M176.647461,317.805664 C177.262695,317.805664 177.707031,317.381836 177.707031,316.793945 C177.707031,316.199219 177.262695,315.775391 176.647461,315.775391 C176.039062,315.775391 175.587891,316.199219 175.587891,316.793945 C175.587891,317.381836 176.039062,317.805664 176.647461,317.805664 Z M179.791992,327 L179.791992,325.892578 L177.385742,325.892578 L177.385742,319.548828 L173.591797,319.548828 L173.591797,320.65625 L176.045898,320.65625 L176.045898,325.892578 L173.537109,325.892578 L173.537109,327 L179.791992,327 Z M183.415039,327 L183.415039,322.631836 C183.415039,321.428711 184.180664,320.628906 185.322266,320.628906 C186.422852,320.628906 186.935547,321.230469 186.935547,322.508789 L186.935547,327 L188.30957,327 L188.30957,322.166992 C188.30957,320.375977 187.43457,319.405273 185.814453,319.405273 C184.700195,319.405273 183.859375,319.924805 183.469727,320.847656 L183.374023,320.847656 L183.374023,319.548828 L182.047852,319.548828 L182.047852,327 L183.415039,327 Z M202.500977,327.205078 C204.538086,327.205078 205.980469,326.008789 205.980469,324.306641 C205.980469,322.973633 205.194336,322.064453 203.875,321.893555 L203.875,321.78418 C204.941406,321.538086 205.577148,320.683594 205.577148,319.507812 C205.577148,317.990234 204.291992,316.930664 202.453125,316.930664 C200.552734,316.930664 199.31543,318.010742 199.212891,319.760742 L200.539062,319.760742 C200.62793,318.749023 201.332031,318.126953 202.405273,318.126953 C203.478516,318.126953 204.189453,318.749023 204.189453,319.712891 C204.189453,320.683594 203.451172,321.360352 202.384766,321.360352 L201.28418,321.360352 L201.28418,322.495117 L202.425781,322.495117 C203.724609,322.495117 204.551758,323.178711 204.551758,324.251953 C204.551758,325.304688 203.745117,325.967773 202.459961,325.967773 C201.277344,325.967773 200.450195,325.325195 200.354492,324.320312 L199.021484,324.320312 C199.110352,326.063477 200.491211,327.205078 202.500977,327.205078 Z M219.22168,327.123047 C220.294922,327.123047 221.060547,326.665039 221.416016,325.824219 L221.545898,325.824219 L221.545898,327 L222.919922,327 L222.919922,316.643555 L221.511719,316.643555 L221.511719,320.731445 L221.381836,320.731445 C221.081055,319.897461 220.294922,319.425781 219.22168,319.425781 C217.505859,319.425781 216.412109,320.649414 216.412109,322.597656 L216.412109,323.951172 C216.412109,325.899414 217.505859,327.123047 219.22168,327.123047 Z M219.672852,325.90625 C218.524414,325.90625 217.799805,325.099609 217.799805,323.821289 L217.799805,322.707031 C217.799805,321.428711 218.524414,320.615234 219.672852,320.615234 C220.821289,320.615234 221.545898,321.421875 221.545898,322.707031 L221.545898,323.821289 C221.545898,325.099609 220.821289,325.90625 219.672852,325.90625 Z M227.623047,327.123047 C228.675781,327.123047 229.475586,326.685547 229.831055,325.919922 L229.960938,325.919922 L229.960938,327.006836 L231.266602,327.006836 L231.266602,321.914062 C231.266602,320.348633 230.241211,319.446289 228.443359,319.446289 C226.84375,319.446289 225.674805,320.280273 225.538086,321.510742 L226.87793,321.510742 C227.055664,320.922852 227.623047,320.581055 228.416016,320.581055 C229.373047,320.581055 229.90625,321.05957 229.90625,321.914062 L229.90625,322.570312 L227.951172,322.672852 C226.214844,322.775391 225.257812,323.554688 225.257812,324.880859 C225.257812,326.227539 226.201172,327.123047 227.623047,327.123047 Z M228.046875,325.981445 C227.171875,325.981445 226.625,325.537109 226.625,324.819336 C226.625,324.094727 227.144531,323.68457 228.135742,323.629883 L229.90625,323.541016 L229.90625,324.327148 C229.90625,325.277344 229.113281,325.981445 228.046875,325.981445 Z M234.978516,329.666016 C236.496094,329.666016 237.193359,329.078125 237.842773,327.225586 L240.577148,319.548828 L239.121094,319.548828 L237.172852,325.646484 L237.077148,325.646484 L235.115234,319.548828 L233.611328,319.548828 L236.325195,327.054688 L236.208984,327.423828 C235.935547,328.209961 235.545898,328.510742 234.828125,328.510742 C234.71875,328.510742 234.493164,328.503906 234.417969,328.490234 L234.417969,329.645508 C234.506836,329.652344 234.766602,329.666016 234.978516,329.666016 Z M245.772461,327.136719 C247.59082,327.136719 248.759766,326.234375 248.759766,324.819336 C248.759766,323.725586 248.09668,323.09668 246.626953,322.768555 L245.546875,322.529297 C244.678711,322.337891 244.316406,322.043945 244.316406,321.510742 C244.316406,320.895508 244.883789,320.485352 245.758789,320.485352 C246.579102,320.485352 247.160156,320.861328 247.283203,321.469727 L248.595703,321.469727 C248.472656,320.177734 247.40625,319.398438 245.779297,319.398438 C244.070312,319.398438 242.956055,320.273438 242.956055,321.606445 C242.956055,322.693359 243.632812,323.376953 244.993164,323.68457 L246.107422,323.9375 C247.009766,324.142578 247.344727,324.422852 247.344727,324.969727 C247.344727,325.619141 246.743164,326.036133 245.806641,326.036133 C244.904297,326.036133 244.289062,325.673828 244.138672,325.038086 L242.757812,325.038086 C242.880859,326.350586 244.015625,327.136719 245.772461,327.136719 Z" id="NextRetryin3days" fill="#00000A" fill-rule="nonzero"></path>
                    <rect id="Rectangle" fill="#DDEDFF" fill-rule="nonzero" x="281" y="319" width="69" height="8" rx="4"></rect>
                    <g id="Group-78" stroke-width="1" fill="none" fill-rule="evenodd" transform="translate(36.000000, 84.000000)">
                        <rect id="Rectangle" fill="#DDEDFF" x="0" y="76" width="139" height="5" rx="2.5"></rect>
                        <rect id="Rectangle-Copy-9" fill="#E4F2FF" x="285" y="0" width="29" height="5" rx="2.5"></rect>
                        <rect id="Rectangle-Copy" fill="#DDEDFF" x="0" y="93" width="109" height="5" rx="2.5"></rect>
                        <rect id="Rectangle-Copy-3" fill="#DDEDFF" x="0" y="33" width="109" height="5" rx="2.5"></rect>
                        <rect id="Rectangle-Copy-41" fill="#DDEDFF" x="0" y="46" width="59" height="5" rx="2.5"></rect>
                        <rect id="Rectangle-Copy-2" fill="#DDEDFF" x="0" y="149" width="109" height="5" rx="2.5"></rect>
                        <rect id="Rectangle-Copy-4" fill="#DDEDFF" x="212" y="149" width="39" height="5" rx="2.5"></rect>
                        <rect id="Rectangle-Copy-6" fill="#DDEDFF" x="222" y="170" width="29" height="5" rx="2.5"></rect>
                        <rect id="Rectangle-Copy-5" fill="#DDEDFF" x="275" y="149" width="39" height="5" rx="2.5"></rect>
                        <rect id="Rectangle-Copy-7" fill="#DDEDFF" x="275" y="170" width="39" height="5" rx="2.5"></rect>
                        <line x1="1" y1="124" x2="313.5" y2="124.5" id="Line-4" stroke="#E1F2FF" stroke-width="2" stroke-linecap="square"></line>
                        <line x1="212" y1="199" x2="313.5" y2="199.5" id="Line-4-Copy-4" stroke="#E1F2FF" stroke-width="2" stroke-linecap="square"></line>
                    </g>
                    <g id="Invoice-retrying" stroke-width="1" fill="none" fill-rule="evenodd" transform="translate(36.000000, 305.000000)">
                        <path d="M3.04761905,18.2857143 C3.04761905,12.394677 7.82324838,7.61904762 13.7142857,7.61904762 C19.605323,7.61904762 24.3809524,12.394677 24.3809524,18.2857143 C24.3809524,24.1767516 19.605323,28.952381 13.7142857,28.952381 C7.82324838,28.952381 3.04761905,24.1767516 3.04761905,18.2857143 Z M26.5904762,7.57333333 C25.9047619,6.79619048 25.2190476,6.0952381 24.4419048,5.4247619 L22.2780952,7.61904762 C19.9161905,5.69904762 16.9447619,4.57142857 13.7142857,4.57142857 C6.14009486,4.57142857 5.24025268e-13,10.7115234 5.24025268e-13,18.2857143 C5.24025268e-13,25.8599051 6.14009486,32 13.7142857,32 C21.3333333,32 27.4285714,25.8590476 27.4285714,18.2857143 C27.4285714,15.0552381 26.3009524,12.0838095 24.4266667,9.73714286 L26.5904762,7.57333333 Z M12.1904762,19.8095238 L15.2380952,19.8095238 L15.2380952,10.6666667 L12.1904762,10.6666667 M18.2857143,0 L9.14285714,0 L9.14285714,3.04761905 L18.2857143,3.04761905 L18.2857143,0 Z" id="Shape" fill="#FF6C63" fill-rule="nonzero"></path>
                    </g>
                    <g id="Invoice-dunning-top" stroke-width="1" fill="none" fill-rule="evenodd" transform="translate(36.000000, 0.000000)">
                        <path d="M0,0 L84.1481481,0 L84.1481481,18.5 C84.1481481,25.9558441 78.1039923,32 70.6481481,32 L13.5,32 C6.04415588,32 2.6894344e-15,25.9558441 0,18.5 L0,0 L0,0 Z" id="Rectangle" fill="#FF6C63"></path>
                        <path d="M13.1081481,21.3333333 C16.045037,21.3333333 17.472,19.309037 17.472,15.5425185 C17.472,11.776 16.045037,9.7517037 13.1081481,9.7517037 L9.65688889,9.7517037 L9.65688889,21.3333333 L13.1081481,21.3333333 Z M12.992,19.8068148 L11.4986667,19.8068148 L11.4986667,11.2782222 L12.992,11.2782222 C14.6844444,11.2782222 15.5140741,12.4728889 15.5140741,14.5801481 L15.5140741,16.5048889 C15.5140741,18.6121481 14.6844444,19.8068148 12.992,19.8068148 Z M22.4497778,21.5324444 C23.8601481,21.5324444 24.557037,20.7691852 24.9220741,19.8731852 L25.005037,19.8731852 L25.005037,21.3333333 L26.8136296,21.3333333 L26.8136296,12.7715556 L25.005037,12.7715556 L25.005037,18.578963 C25.005037,19.5745185 24.0758519,20.0557037 23.1466667,20.0557037 C21.9851852,20.0557037 21.3712593,19.3754074 21.3712593,18.0148148 L21.3712593,12.7715556 L19.5626667,12.7715556 L19.5626667,18.2802963 C19.5626667,20.3543704 20.7241481,21.5324444 22.4497778,21.5324444 Z M31.4097778,21.3333333 L31.4097778,15.5259259 C31.4097778,14.5303704 32.338963,14.0491852 33.2681481,14.0491852 C34.4296296,14.0491852 35.0435556,14.7294815 35.0435556,16.0900741 L35.0435556,21.3333333 L36.8521481,21.3333333 L36.8521481,15.8245926 C36.8521481,13.7505185 35.6906667,12.5724444 33.965037,12.5724444 C32.5546667,12.5724444 31.8577778,13.3357037 31.4927407,14.2317037 L31.4097778,14.2317037 L31.4097778,12.7715556 L29.6011852,12.7715556 L29.6011852,21.3333333 L31.4097778,21.3333333 Z M41.3653333,21.3333333 L41.3653333,15.5259259 C41.3653333,14.5303704 42.2945185,14.0491852 43.2237037,14.0491852 C44.3851852,14.0491852 44.9991111,14.7294815 44.9991111,16.0900741 L44.9991111,21.3333333 L46.8077037,21.3333333 L46.8077037,15.8245926 C46.8077037,13.7505185 45.6462222,12.5724444 43.9205926,12.5724444 C42.5102222,12.5724444 41.8133333,13.3357037 41.4482963,14.2317037 L41.3653333,14.2317037 L41.3653333,12.7715556 L39.5567407,12.7715556 L39.5567407,21.3333333 L41.3653333,21.3333333 Z M53.6272593,11.2118519 C54.5232593,11.2118519 54.8551111,10.7804444 54.8551111,10.2328889 L54.8551111,9.88444444 C54.8551111,9.33688889 54.5232593,8.90548148 53.6106667,8.90548148 C52.7146667,8.90548148 52.3828148,9.33688889 52.3828148,9.88444444 L52.3828148,10.2328889 C52.3828148,10.7804444 52.7146667,11.2118519 53.6272593,11.2118519 Z M57.261037,21.3333333 L57.261037,19.8731852 L54.5232593,19.8731852 L54.5232593,12.7715556 L49.7943704,12.7715556 L49.7943704,14.2317037 L52.7146667,14.2317037 L52.7146667,19.8731852 L49.7943704,19.8731852 L49.7943704,21.3333333 L57.261037,21.3333333 Z M61.2764444,21.3333333 L61.2764444,15.5259259 C61.2764444,14.5303704 62.2056296,14.0491852 63.1348148,14.0491852 C64.2962963,14.0491852 64.9102222,14.7294815 64.9102222,16.0900741 L64.9102222,21.3333333 L66.7188148,21.3333333 L66.7188148,15.8245926 C66.7188148,13.7505185 65.5573333,12.5724444 63.8317037,12.5724444 C62.4213333,12.5724444 61.7244444,13.3357037 61.3594074,14.2317037 L61.2764444,14.2317037 L61.2764444,12.7715556 L59.4678519,12.7715556 L59.4678519,21.3333333 L61.2764444,21.3333333 Z M72.9908148,24.850963 C76.0106667,24.850963 77.4874074,24.0213333 77.4874074,22.2625185 C77.4874074,20.8521481 76.5416296,19.8897778 74.2352593,19.8897778 L72.3105185,19.8897778 C71.5638519,19.8897778 70.9831111,19.8234074 70.9831111,19.2924444 C70.9831111,18.8278519 71.4808889,18.5623704 71.8791111,18.4628148 C72.210963,18.5291852 72.5594074,18.5623704 72.941037,18.5623704 C75.0482963,18.5623704 76.4254815,17.4008889 76.4254815,15.5757037 C76.4254815,14.546963 76.0106667,13.7505185 75.264,13.2361481 L75.264,12.8379259 L77.2551111,12.8379259 L77.2551111,11.410963 L75.6954074,11.410963 C74.9321481,11.410963 74.5505185,11.9087407 74.5505185,12.5724444 L74.5505185,12.8545185 C74.0859259,12.672 73.5383704,12.5724444 72.941037,12.5724444 C70.8337778,12.5724444 69.4565926,13.7505185 69.4565926,15.5757037 C69.4565926,16.8035556 70.0705185,17.7161481 71.0992593,18.1973333 L71.0992593,18.2802963 C70.2032593,18.496 69.5561481,18.8776296 69.5561481,19.7238519 C69.5561481,20.370963 69.9211852,20.7525926 70.5019259,20.9682963 L70.5019259,21.1342222 C69.5561481,21.3831111 69.0085926,21.8642963 69.0085926,22.7934815 C69.0085926,24.0711111 70.0373333,24.850963 72.9908148,24.850963 Z M72.941037,17.3179259 C71.7795556,17.3179259 71.232,16.704 71.232,15.7914074 L71.232,15.3434074 C71.232,14.4308148 71.7795556,13.8168889 72.941037,13.8168889 C74.1025185,13.8168889 74.6500741,14.4308148 74.6500741,15.3434074 L74.6500741,15.7914074 C74.6500741,16.704 74.1025185,17.3179259 72.941037,17.3179259 Z M73.6877037,23.5733333 L72.3437037,23.5733333 C71.0826667,23.5733333 70.5848889,23.0423704 70.5848889,22.3952593 C70.5848889,21.9472593 70.8005926,21.632 71.2154074,21.4328889 L74.1854815,21.4328889 C75.3967407,21.4328889 75.794963,21.7979259 75.794963,22.3786667 C75.794963,23.1585185 75.0482963,23.5733333 73.6877037,23.5733333 Z" id="Dunning" fill="#FFFFFF" fill-rule="nonzero"></path>
                    </g>
                </g>
            </g>
            <rect id="Rectangle" fill="url(#linearGradient-7)" mask="url(#mask-2)" x="0" y="321" width="555" height="67"></rect>
        </g>
    </g>
</svg>