<?xml version="1.0" encoding="UTF-8"?>
<svg width="555px" height="388px" viewBox="0 0 555 388" version="1.1" xmlns="http://www.w3.org/2000/svg" xmlns:xlink="http://www.w3.org/1999/xlink">
    <!-- Generator: Sketch 63.1 (92452) - https://sketch.com -->
    <title>subscriptions</title>
    <desc>Created with Sketch.</desc>
    <defs>
        <rect id="path-1" x="0" y="0" width="555" height="388"></rect>
        <rect id="path-3" x="0" y="0" width="345" height="134" rx="8"></rect>
        <filter x="-7.5%" y="-16.4%" width="115.1%" height="138.8%" filterUnits="objectBoundingBox" id="filter-4">
            <feOffset dx="0" dy="4" in="SourceAlpha" result="shadowOffsetOuter1"></feOffset>
            <feGaussianBlur stdDeviation="8" in="shadowOffsetOuter1" result="shadowBlurOuter1"></feGaussianBlur>
            <feComposite in="shadowBlurOuter1" in2="SourceAlpha" operator="out" result="shadowBlurOuter1"></feComposite>
            <feColorMatrix values="0 0 0 0 0   0 0 0 0 0   0 0 0 0 0  0 0 0 0.09 0" type="matrix" in="shadowBlurOuter1"></feColorMatrix>
        </filter>
        <rect id="path-5" x="0" y="0" width="70" height="78" rx="8"></rect>
        <mask id="mask-6" maskContentUnits="userSpaceOnUse" maskUnits="objectBoundingBox" x="0" y="0" width="70" height="78" fill="white">
            <use xlink:href="#path-5"></use>
        </mask>
        <rect id="path-7" x="0" y="0" width="345" height="134" rx="8"></rect>
        <filter x="-7.5%" y="-16.4%" width="115.1%" height="138.8%" filterUnits="objectBoundingBox" id="filter-8">
            <feOffset dx="0" dy="4" in="SourceAlpha" result="shadowOffsetOuter1"></feOffset>
            <feGaussianBlur stdDeviation="8" in="shadowOffsetOuter1" result="shadowBlurOuter1"></feGaussianBlur>
            <feComposite in="shadowBlurOuter1" in2="SourceAlpha" operator="out" result="shadowBlurOuter1"></feComposite>
            <feColorMatrix values="0 0 0 0 0   0 0 0 0 0   0 0 0 0 0  0 0 0 0.09 0" type="matrix" in="shadowBlurOuter1"></feColorMatrix>
        </filter>
        <rect id="path-9" x="0" y="0" width="70" height="78" rx="8"></rect>
        <mask id="mask-10" maskContentUnits="userSpaceOnUse" maskUnits="objectBoundingBox" x="0" y="0" width="70" height="78" fill="white">
            <use xlink:href="#path-9"></use>
        </mask>
        <rect id="path-11" x="0" y="96" width="345" height="134" rx="8"></rect>
        <filter x="-7.5%" y="-16.4%" width="115.1%" height="138.8%" filterUnits="objectBoundingBox" id="filter-12">
            <feOffset dx="0" dy="4" in="SourceAlpha" result="shadowOffsetOuter1"></feOffset>
            <feGaussianBlur stdDeviation="8" in="shadowOffsetOuter1" result="shadowBlurOuter1"></feGaussianBlur>
            <feComposite in="shadowBlurOuter1" in2="SourceAlpha" operator="out" result="shadowBlurOuter1"></feComposite>
            <feColorMatrix values="0 0 0 0 0   0 0 0 0 0   0 0 0 0 0  0 0 0 0.09 0" type="matrix" in="shadowBlurOuter1"></feColorMatrix>
        </filter>
        <rect id="path-13" x="0" y="124" width="70" height="78" rx="8"></rect>
        <mask id="mask-14" maskContentUnits="userSpaceOnUse" maskUnits="objectBoundingBox" x="0" y="0" width="70" height="78" fill="white">
            <use xlink:href="#path-13"></use>
        </mask>
        <linearGradient x1="50%" y1="0%" x2="50%" y2="100%" id="linearGradient-15">
            <stop stop-color="#FFFFFF" stop-opacity="0" offset="0%"></stop>
            <stop stop-color="#FFFFFF" offset="100%"></stop>
        </linearGradient>
    </defs>
    <g id="March-Spring-Release" stroke="none" stroke-width="1" fill="none" fill-rule="evenodd">
        <g id="subscriptions">
            <mask id="mask-2" fill="white">
                <use xlink:href="#path-1"></use>
            </mask>
            <use id="Mask" fill-opacity="0.01" fill="#FFFFFF" xlink:href="#path-1"></use>
            <g id="Group-66" mask="url(#mask-2)">
                <g transform="translate(140.000000, 18.000000)">
                    <g id="Group-50">
                        <g id="Group-51">
                            <g id="Group-50">
                                <g id="Rectangle">
                                    <use fill="black" fill-opacity="1" filter="url(#filter-4)" xlink:href="#path-3"></use>
                                    <rect stroke="#EBF2FE" stroke-width="2" stroke-linejoin="square" fill="#FFFFFF" fill-rule="evenodd" x="1" y="1" width="343" height="132" rx="8"></rect>
                                </g>
                                <g id="Group-61" transform="translate(129.000000, 28.000000)">
                                    <path d="M3.784,12 L3.784,7.264 L6.504,7.264 C8.568,7.264 9.688,6.064 9.688,4.048 C9.688,2.032 8.568,0.832 6.504,0.832 L2.44,0.832 L2.44,12 L3.784,12 Z M6.472,6.096 L3.784,6.096 L3.784,2 L6.472,2 C7.592,2 8.264,2.592 8.264,3.632 L8.264,4.464 C8.264,5.504 7.592,6.096 6.472,6.096 Z M18.728,12 L18.728,10.912 L15.528,10.912 L15.528,7.344 C15.528,6.064 16.376,5.024 17.992,5.024 L19.544,5.024 L19.544,3.744 L18.392,3.744 C16.664,3.744 15.928,4.736 15.608,5.824 L15.528,5.824 L15.528,3.744 L11.832,3.744 L11.832,4.832 L14.248,4.832 L14.248,10.912 L11.832,10.912 L11.832,12 L18.728,12 Z M25,12.192 C27.32,12.192 28.744,10.496 28.744,7.872 C28.744,5.248 27.32,3.552 25,3.552 C22.68,3.552 21.256,5.248 21.256,7.872 C21.256,10.496 22.68,12.192 25,12.192 Z M25,11.088 C23.576,11.088 22.616,10.24 22.616,8.464 L22.616,7.28 C22.616,5.504 23.576,4.656 25,4.656 C26.424,4.656 27.384,5.504 27.384,7.28 L27.384,8.464 C27.384,10.24 26.424,11.088 25,11.088 Z M42.184,12 L42.184,7.264 L44.904,7.264 C46.968,7.264 48.088,6.064 48.088,4.048 C48.088,2.032 46.968,0.832 44.904,0.832 L40.84,0.832 L40.84,12 L42.184,12 Z M44.872,6.096 L42.184,6.096 L42.184,2 L44.872,2 C45.992,2 46.664,2.592 46.664,3.632 L46.664,4.464 C46.664,5.504 45.992,6.096 44.872,6.096 Z M57.32,12 L57.32,10.912 L54.44,10.912 L54.44,0.16 L50.28,0.16 L50.28,1.248 L53.16,1.248 L53.16,10.912 L50.28,10.912 L50.28,12 L57.32,12 Z M62.488,12.192 C63.832,12.192 64.616,11.6 64.968,10.656 L65.048,10.656 C65.144,11.424 65.528,12 66.52,12 L67.4,12 L67.4,10.88 L66.248,10.88 L66.248,6.336 C66.248,4.592 65.016,3.552 63.08,3.552 C61.4,3.552 60.344,4.352 59.928,5.216 L60.792,5.856 C61.224,5.104 61.896,4.64 63,4.64 C64.248,4.64 64.968,5.264 64.968,6.464 L64.968,7.28 L63.208,7.28 C60.728,7.28 59.656,8.16 59.656,9.68 C59.656,11.232 60.76,12.192 62.488,12.192 Z M62.712,11.12 C61.656,11.12 61,10.672 61,9.824 L61,9.488 C61,8.688 61.688,8.24 63.208,8.24 L64.968,8.24 L64.968,9.6 C64.968,10.448 64.024,11.12 62.712,11.12 Z M71.048,12 L71.048,6.272 C71.048,5.184 72.072,4.688 73.096,4.688 C74.36,4.688 75.048,5.424 75.048,6.928 L75.048,12 L76.328,12 L76.328,6.704 C76.328,4.704 75.192,3.552 73.464,3.552 C72.104,3.552 71.464,4.272 71.112,5.088 L71.048,5.088 L71.048,3.744 L69.768,3.744 L69.768,12 L71.048,12 Z M89.72,12 L89.72,2.864 L89.848,2.864 L92.2,8.608 L94.552,2.864 L94.68,2.864 L94.68,12 L95.912,12 L95.912,0.832 L94.248,0.832 L92.28,5.76 L92.184,5.76 L90.216,0.832 L88.488,0.832 L88.488,12 L89.72,12 Z M101.8,12.192 C104.12,12.192 105.544,10.496 105.544,7.872 C105.544,5.248 104.12,3.552 101.8,3.552 C99.48,3.552 98.056,5.248 98.056,7.872 C98.056,10.496 99.48,12.192 101.8,12.192 Z M101.8,11.088 C100.376,11.088 99.416,10.24 99.416,8.464 L99.416,7.28 C99.416,5.504 100.376,4.656 101.8,4.656 C103.224,4.656 104.184,5.504 104.184,7.28 L104.184,8.464 C104.184,10.24 103.224,11.088 101.8,11.088 Z M109.448,12 L109.448,6.272 C109.448,5.184 110.472,4.688 111.496,4.688 C112.76,4.688 113.448,5.424 113.448,6.928 L113.448,12 L114.728,12 L114.728,6.704 C114.728,4.704 113.592,3.552 111.864,3.552 C110.504,3.552 109.864,4.272 109.512,5.088 L109.448,5.088 L109.448,3.744 L108.168,3.744 L108.168,12 L109.448,12 Z M124.616,12 L124.616,10.912 L120.856,10.912 L120.856,4.832 L124.616,4.832 L124.616,3.744 L120.856,3.744 L120.856,0.832 L119.624,0.832 L119.624,2.992 C119.624,3.552 119.416,3.744 118.872,3.744 L116.824,3.744 L116.824,4.832 L119.576,4.832 L119.576,10.112 C119.576,11.216 120.152,12 121.4,12 L124.616,12 Z M128.648,12 L128.648,6.272 C128.648,5.184 129.672,4.688 130.696,4.688 C131.96,4.688 132.648,5.424 132.648,6.928 L132.648,12 L133.928,12 L133.928,6.704 C133.928,4.704 132.792,3.552 131.064,3.552 C129.704,3.552 129.064,4.272 128.712,5.088 L128.648,5.088 L128.648,0.16 L127.368,0.16 L127.368,12 L128.648,12 Z M143.72,12 L143.72,10.912 L140.84,10.912 L140.84,0.16 L136.68,0.16 L136.68,1.248 L139.56,1.248 L139.56,10.912 L136.68,10.912 L136.68,12 L143.72,12 Z M147.544,15.2 C148.792,15.2 149.272,14.752 149.656,13.808 L153.752,3.744 L152.472,3.744 L151.08,7.2 L149.848,10.336 L149.784,10.336 L148.552,7.2 L147.16,3.744 L145.848,3.744 L149.176,11.84 L148.248,14.112 L146.328,14.112 L146.328,15.2 L147.544,15.2 Z" id="ProPlanMonthly" fill="#00000B" fill-rule="nonzero"></path>
                                    <path d="M6.456,40.808 L6.456,39.176 C8.616,39 9.832,37.8 9.832,35.944 C9.832,34.44 9.112,33.192 6.92,32.824 L6.44,32.744 L6.44,28.824 C7.496,28.936 8.2,29.416 8.776,30.184 L9.784,29.464 C8.984,28.376 7.928,27.768 6.456,27.656 L6.456,26.024 L5.464,26.024 L5.464,27.656 C3.448,27.8 2.2,28.888 2.2,30.68 C2.2,32.136 2.904,33.416 5.112,33.784 L5.48,33.848 L5.48,38.024 C4.36,37.912 3.544,37.384 2.776,36.424 L1.8,37.224 C2.568,38.296 3.688,39.064 5.464,39.176 L5.464,40.808 L6.456,40.808 Z M5.48,32.584 C4.056,32.296 3.496,31.72 3.496,30.68 C3.496,29.576 4.216,28.936 5.48,28.808 L5.48,32.584 Z M6.44,38.008 L6.44,34.008 C7.928,34.264 8.536,34.824 8.536,35.96 C8.536,37.128 7.784,37.864 6.44,38.008 Z M15.32,39.192 C17.704,39.192 19.128,37.672 19.128,35.496 C19.128,33.336 17.704,32.056 15.752,32.056 C14.568,32.056 13.96,32.52 13.416,33.272 L13.304,33.272 L13.624,29 L18.616,29 L18.616,27.832 L12.536,27.832 L12.136,33.976 L13.272,34.136 C13.752,33.608 14.264,33.192 15.32,33.192 C16.872,33.192 17.736,34.072 17.736,35.544 L17.736,35.672 C17.736,37.128 16.888,38.024 15.352,38.024 C13.976,38.024 13.368,37.4 12.776,36.52 L11.768,37.288 C12.456,38.248 13.432,39.192 15.32,39.192 Z M24.728,39 C26.552,37.832 28.776,35.24 28.776,31.928 C28.776,29.272 27.336,27.64 24.984,27.64 C22.712,27.64 21.224,29.144 21.224,31.336 C21.224,33.448 22.616,34.776 24.568,34.776 C25.96,34.776 26.776,34.088 27.32,33.176 L27.4,33.208 C26.776,35.8 25.432,37.256 23,39 L24.728,39 Z M25,33.672 C23.48,33.672 22.584,32.792 22.584,31.288 L22.584,31.16 C22.584,29.656 23.48,28.776 25,28.776 C26.52,28.776 27.416,29.656 27.416,31.16 L27.416,31.288 C27.416,32.792 26.52,33.672 25,33.672 Z M34.328,39 C36.152,37.832 38.376,35.24 38.376,31.928 C38.376,29.272 36.936,27.64 34.584,27.64 C32.312,27.64 30.824,29.144 30.824,31.336 C30.824,33.448 32.216,34.776 34.168,34.776 C35.56,34.776 36.376,34.088 36.92,33.176 L37,33.208 C36.376,35.8 35.032,37.256 32.6,39 L34.328,39 Z M34.6,33.672 C33.08,33.672 32.184,32.792 32.184,31.288 L32.184,31.16 C32.184,29.656 33.08,28.776 34.6,28.776 C36.12,28.776 37.016,29.656 37.016,31.16 L37.016,31.288 C37.016,32.792 36.12,33.672 34.6,33.672 Z M44.2,39.144 C45.064,39.144 45.384,38.728 45.384,38.184 L45.384,37.896 C45.384,37.352 45.064,36.936 44.2,36.936 C43.336,36.936 43.016,37.352 43.016,37.896 L43.016,38.184 C43.016,38.728 43.336,39.144 44.2,39.144 Z M53.8,39.192 C56.52,39.192 57.704,37.064 57.704,33.416 C57.704,29.768 56.52,27.64 53.8,27.64 C51.08,27.64 49.896,29.768 49.896,33.416 C49.896,37.064 51.08,39.192 53.8,39.192 Z M53.8,38.024 C52.008,38.024 51.288,36.568 51.288,34.328 L51.288,32.504 C51.288,30.264 52.008,28.808 53.8,28.808 C55.592,28.808 56.312,30.264 56.312,32.504 L56.312,34.328 C56.312,36.568 55.592,38.024 53.8,38.024 Z M53.8,34.36 C54.536,34.36 54.792,34.024 54.792,33.592 L54.792,33.24 C54.792,32.808 54.536,32.472 53.8,32.472 C53.064,32.472 52.808,32.808 52.808,33.24 L52.808,33.592 C52.808,34.024 53.064,34.36 53.8,34.36 Z M61.192,41.208 L66.76,26.84 L65.608,26.84 L60.04,41.208 L61.192,41.208 Z M70.248,39 L70.248,32.936 C70.248,32.056 70.728,31.608 71.416,31.608 C72.168,31.608 72.408,32.072 72.408,33.48 L72.408,39 L73.592,39 L73.592,32.936 C73.592,32.056 74.072,31.608 74.744,31.608 C75.512,31.608 75.752,32.072 75.752,33.48 L75.752,39 L76.936,39 L76.936,33.272 C76.936,31.528 76.584,30.552 75.24,30.552 C74.264,30.552 73.752,31.096 73.448,31.848 L73.4,31.848 C73.304,31.08 72.84,30.552 71.896,30.552 C70.984,30.552 70.568,31.064 70.312,31.704 L70.248,31.704 L70.248,30.744 L69.064,30.744 L69.064,39 L70.248,39 Z M82.6,39.192 C84.92,39.192 86.344,37.496 86.344,34.872 C86.344,32.248 84.92,30.552 82.6,30.552 C80.28,30.552 78.856,32.248 78.856,34.872 C78.856,37.496 80.28,39.192 82.6,39.192 Z M82.6,38.088 C81.176,38.088 80.216,37.24 80.216,35.464 L80.216,34.28 C80.216,32.504 81.176,31.656 82.6,31.656 C84.024,31.656 84.984,32.504 84.984,34.28 L84.984,35.464 C84.984,37.24 84.024,38.088 82.6,38.088 Z M90.248,39 L90.248,33.272 C90.248,32.184 91.272,31.688 92.296,31.688 C93.56,31.688 94.248,32.424 94.248,33.928 L94.248,39 L95.528,39 L95.528,33.704 C95.528,31.704 94.392,30.552 92.664,30.552 C91.304,30.552 90.664,31.272 90.312,32.088 L90.248,32.088 L90.248,30.744 L88.968,30.744 L88.968,39 L90.248,39 Z M105.416,39 L105.416,37.912 L101.656,37.912 L101.656,31.832 L105.416,31.832 L105.416,30.744 L101.656,30.744 L101.656,27.832 L100.424,27.832 L100.424,29.992 C100.424,30.552 100.216,30.744 99.672,30.744 L97.624,30.744 L97.624,31.832 L100.376,31.832 L100.376,37.112 C100.376,38.216 100.952,39 102.2,39 L105.416,39 Z M109.448,39 L109.448,33.272 C109.448,32.184 110.472,31.688 111.496,31.688 C112.76,31.688 113.448,32.424 113.448,33.928 L113.448,39 L114.728,39 L114.728,33.704 C114.728,31.704 113.592,30.552 111.864,30.552 C110.504,30.552 109.864,31.272 109.512,32.088 L109.448,32.088 L109.448,27.16 L108.168,27.16 L108.168,39 L109.448,39 Z" id="$599.0/month" fill="#00000B" fill-rule="nonzero"></path>
                                    <g id="Group-47" transform="translate(0.000000, 55.000000)">
                                        <g id="Group-44">
                                            <rect id="Rectangle" fill="#FFDD4D" x="0" y="0" width="87" height="27" rx="13.5"></rect>
                                            <g id="Group-57" transform="translate(10.000000, 4.000000)" fill="#00000A" fill-rule="nonzero">
                                                <g id="pause" transform="translate(0.000000, 5.000000)">
                                                    <path d="M5.71428571,10 L8.57142857,10 L8.57142857,0 L5.71428571,0 M0,10 L2.85714286,10 L2.85714286,0 L0,0 L0,10 Z" id="Shape"></path>
                                                </g>
                                                <path d="M19.436,14 L19.436,9.856 L21.816,9.856 C23.622,9.856 24.602,8.806 24.602,7.042 C24.602,5.278 23.622,4.228 21.816,4.228 L18.26,4.228 L18.26,14 L19.436,14 Z M21.788,8.834 L19.436,8.834 L19.436,5.25 L21.788,5.25 C22.768,5.25 23.356,5.768 23.356,6.678 L23.356,7.406 C23.356,8.316 22.768,8.834 21.788,8.834 Z M28.802,14.168 C29.978,14.168 30.664,13.65 30.972,12.824 L31.042,12.824 C31.126,13.496 31.462,14 32.33,14 L33.1,14 L33.1,13.02 L32.092,13.02 L32.092,9.044 C32.092,7.518 31.014,6.608 29.32,6.608 C27.85,6.608 26.926,7.308 26.562,8.064 L27.318,8.624 C27.696,7.966 28.284,7.56 29.25,7.56 C30.342,7.56 30.972,8.106 30.972,9.156 L30.972,9.87 L29.432,9.87 C27.262,9.87 26.324,10.64 26.324,11.97 C26.324,13.328 27.29,14.168 28.802,14.168 Z M28.998,13.23 C28.074,13.23 27.5,12.838 27.5,12.096 L27.5,11.802 C27.5,11.102 28.102,10.71 29.432,10.71 L30.972,10.71 L30.972,11.9 C30.972,12.642 30.146,13.23 28.998,13.23 Z M37.594,14.168 C38.784,14.168 39.344,13.538 39.652,12.824 L39.708,12.824 L39.708,14 L40.828,14 L40.828,6.776 L39.708,6.776 L39.708,11.788 C39.708,12.74 38.812,13.174 37.916,13.174 C36.81,13.174 36.208,12.53 36.208,11.214 L36.208,6.776 L35.088,6.776 L35.088,11.41 C35.088,13.16 36.082,14.168 37.594,14.168 Z M46.484,14.168 C48.332,14.168 49.536,13.342 49.536,11.914 C49.536,10.346 48.094,10.066 47.058,9.912 L45.924,9.744 C45.28,9.646 44.65,9.45 44.65,8.694 C44.65,7.952 45.28,7.546 46.414,7.546 C47.688,7.546 48.332,8.05 48.668,8.456 L49.396,7.77 C48.71,7.042 47.758,6.608 46.456,6.608 C44.776,6.608 43.544,7.322 43.544,8.764 C43.544,10.332 45,10.612 46.022,10.766 L47.156,10.934 C47.814,11.032 48.43,11.228 48.43,11.984 C48.43,12.838 47.632,13.23 46.512,13.23 C45.364,13.23 44.58,12.824 43.894,12.096 L43.138,12.754 C43.894,13.608 44.972,14.168 46.484,14.168 Z M54.926,14.168 C56.354,14.168 57.39,13.468 57.824,12.502 L56.998,11.942 C56.62,12.726 55.892,13.202 54.926,13.202 C53.568,13.202 52.714,12.278 52.714,11.004 L52.714,10.668 L58.062,10.668 L58.062,10.136 C58.062,8.092 56.802,6.608 54.856,6.608 C52.896,6.608 51.538,8.092 51.538,10.402 C51.538,12.684 52.854,14.168 54.926,14.168 Z M56.858,9.828 L52.714,9.828 L52.714,9.73 C52.714,8.47 53.624,7.532 54.856,7.532 C56.046,7.532 56.858,8.4 56.858,9.674 L56.858,9.828 Z M62.668,14.168 C63.676,14.168 64.432,13.706 64.894,12.824 L64.95,12.824 L64.95,14 L66.07,14 L66.07,3.64 L64.95,3.64 L64.95,7.952 L64.894,7.952 C64.432,7.07 63.676,6.608 62.668,6.608 C60.904,6.608 59.84,8.022 59.84,10.388 C59.84,12.754 60.904,14.168 62.668,14.168 Z M63.102,13.174 C61.8,13.174 61.044,12.306 61.044,11.004 L61.044,9.772 C61.044,8.47 61.8,7.602 63.102,7.602 C64.096,7.602 64.95,8.12 64.95,9.086 L64.95,11.69 C64.95,12.656 64.096,13.174 63.102,13.174 Z" id="Paused"></path>
                                            </g>
                                        </g>
                                    </g>
                                </g>
                                <g id="Group-58" transform="translate(36.000000, 28.000000)">
                                    <use id="Rectangle" stroke="#B6C8DE" mask="url(#mask-6)" stroke-width="2" fill="#FFFFFF" stroke-dasharray="3,3" xlink:href="#path-5"></use>
                                    <g id="Group-45" transform="translate(13.000000, 26.000000)" fill="#00000A" fill-rule="nonzero">
                                        <path d="M3.094,10.36 L3.094,10.136 L1.652,10.136 L2.506,7.504 L5.726,7.504 L6.832,10.136 L5.684,10.136 L5.684,10.36 L10.836,10.36 L10.836,10.136 L10.192,10.136 L5.754,1.63424829e-13 L5.026,1.63424829e-13 L0.574,10.136 L-4.26325641e-14,10.136 L-4.26325641e-14,10.36 L3.094,10.36 Z M5.614,7.252 L2.576,7.252 L3.892,3.192 L5.614,7.252 Z M15.82,10.64 C17.514,10.64 19.04,9.772 19.712,8.568 L19.698,8.554 C19.432,8.68 18.942,8.736 18.55,8.736 C15.568,8.736 12.656,5.81 12.656,2.24 C12.656,1.12 13.132,0.644 13.748,0.644 C14.742,0.644 15.862,1.582 17.99,5.74 L18.004,5.74 L19.236,0.854 C18.214,0.322 17.01,1.63424829e-13 15.568,1.63424829e-13 C12.502,1.63424829e-13 10.486,1.974 10.486,4.984 C10.486,8.288 12.6,10.64 15.82,10.64 Z M26.684,10.43 L29.638,1.554 L30.744,10.136 L29.344,10.136 L29.344,10.36 L34.902,10.36 L34.902,10.136 L33.838,10.136 L32.69,1.036 L33.95,0.28 L29.218,0.28 L27.664,6.706 L25.214,0.28 L20.93,0.28 L22.19,1.036 L22.19,1.05 L20.958,10.136 L20.062,10.136 L20.062,10.36 L23.464,10.36 L23.464,10.136 L22.022,10.136 L22.4,1.54 L25.914,10.43 L26.684,10.43 Z M44.1,10.36 L44.1,6.86 L44.086,6.86 C42.77,9.296 41.356,10.108 39.704,10.136 L39.704,5.18 C40.614,5.222 41.552,5.95 42.084,7.042 L42.098,7.042 L42.098,3.136 L42.084,3.136 C41.566,4.2 40.586,4.942 39.704,4.984 L39.704,0.504 C41.356,0.518 42.77,1.372 44.086,3.78 L44.1,3.78 L44.1,0.28 L35.378,0.28 L36.624,1.036 L36.624,10.136 L35.504,10.136 L35.504,10.36 L44.1,10.36 Z" id="ACME"></path>
                                        <path d="M13.29,23.5 C14.214,23.5 14.956,23.164 15.488,22.688 L15.222,22.198 C14.802,22.436 14.452,22.534 14.004,22.534 C13.038,22.534 12.128,21.75 12.128,20 C12.128,18.754 12.506,18.082 13.22,18.082 C13.514,18.082 13.738,18.194 13.99,18.404 L15.054,19.832 L15.236,19.832 L15.236,17.578 C14.704,17.382 14.144,17.27 13.598,17.27 C11.638,17.27 10.42,18.698 10.42,20.532 C10.42,22.324 11.54,23.5 13.29,23.5 Z M19.002,23.5 C20.78,23.5 22.054,22.212 22.054,20.308 C22.054,18.404 20.808,17.27 19.17,17.27 C17.35,17.27 16.118,18.684 16.118,20.532 C16.118,22.324 17.294,23.5 19.002,23.5 Z M19.282,22.674 C18.442,22.674 17.826,21.554 17.826,19.958 C17.826,18.81 18.232,18.138 18.89,18.138 C19.73,18.138 20.346,19.258 20.346,20.854 C20.346,22.002 19.94,22.674 19.282,22.674 Z M26.1,23.36 L26.1,22.464 L25.26,22.464 L25.19,22.394 L25.19,18.936 C25.344,18.922 25.498,18.908 25.652,18.908 C26.282,18.908 26.856,18.992 27.402,19.146 L27.402,17.34 C27.262,17.284 27.15,17.27 26.996,17.27 C26.464,17.27 25.834,17.676 25.148,18.306 L24.966,17.298 L24.784,17.2 L22.684,18.278 L22.684,18.46 L23.58,19.006 L23.58,22.394 L23.51,22.464 L22.88,22.464 L22.88,23.36 L26.1,23.36 Z M31.126,26.58 L31.126,25.684 L30.286,25.684 L30.216,25.614 L30.216,23.29 C30.524,23.43 30.874,23.5 31.266,23.5 C33.03,23.5 34.29,22.058 34.29,20.21 C34.29,18.474 33.38,17.27 32.148,17.27 C31.434,17.27 30.846,17.648 30.174,18.166 L29.992,17.298 L29.81,17.2 L27.71,18.278 L27.71,18.46 L28.606,19.006 L28.606,25.614 L28.536,25.684 L27.906,25.684 L27.906,26.58 L31.126,26.58 Z M31.322,22.66 C30.846,22.66 30.454,22.408 30.216,21.988 L30.216,18.6 C30.58,18.516 30.86,18.474 31.21,18.474 C32.036,18.474 32.582,19.188 32.582,20.588 C32.582,21.862 32.162,22.66 31.322,22.66 Z" id="corp" opacity="0.400000006"></path>
                                    </g>
                                </g>
                            </g>
                        </g>
                    </g>
                    <g id="Group-50-Copy" transform="translate(0.000000, 146.000000)">
                        <g id="Group-51">
                            <g id="Group-50">
                                <g id="Rectangle">
                                    <use fill="black" fill-opacity="1" filter="url(#filter-8)" xlink:href="#path-7"></use>
                                    <rect stroke="#EBF2FE" stroke-width="2" stroke-linejoin="square" fill="#FFFFFF" fill-rule="evenodd" x="1" y="1" width="343" height="132" rx="8"></rect>
                                </g>
                                <g id="Group-61" transform="translate(129.000000, 28.000000)">
                                    <path d="M6.68,12 C8.408,12 9.688,10.592 9.688,8.784 C9.688,7.232 8.776,6.448 7.528,6.16 L7.528,6.112 C8.552,5.792 9.272,5.04 9.272,3.712 C9.272,1.968 8.104,0.832 6.2,0.832 L2.408,0.832 L2.408,12 L6.68,12 Z M6.056,5.68 L3.752,5.68 L3.752,2 L6.056,2 C7.176,2 7.864,2.512 7.864,3.536 L7.864,4.16 C7.864,5.184 7.176,5.68 6.056,5.68 Z M6.28,10.832 L3.752,10.832 L3.752,6.784 L6.28,6.784 C7.512,6.784 8.264,7.36 8.264,8.48 L8.264,9.136 C8.264,10.272 7.512,10.832 6.28,10.832 Z M14.488,12.192 C15.832,12.192 16.616,11.6 16.968,10.656 L17.048,10.656 C17.144,11.424 17.528,12 18.52,12 L19.4,12 L19.4,10.88 L18.248,10.88 L18.248,6.336 C18.248,4.592 17.016,3.552 15.08,3.552 C13.4,3.552 12.344,4.352 11.928,5.216 L12.792,5.856 C13.224,5.104 13.896,4.64 15,4.64 C16.248,4.64 16.968,5.264 16.968,6.464 L16.968,7.28 L15.208,7.28 C12.728,7.28 11.656,8.16 11.656,9.68 C11.656,11.232 12.76,12.192 14.488,12.192 Z M14.712,11.12 C13.656,11.12 13,10.672 13,9.824 L13,9.488 C13,8.688 13.688,8.24 15.208,8.24 L16.968,8.24 L16.968,9.6 C16.968,10.448 16.024,11.12 14.712,11.12 Z M25.096,12.192 C27.208,12.192 28.584,11.248 28.584,9.616 C28.584,7.824 26.936,7.504 25.752,7.328 L24.456,7.136 C23.72,7.024 23,6.8 23,5.936 C23,5.088 23.72,4.624 25.016,4.624 C26.472,4.624 27.208,5.2 27.592,5.664 L28.424,4.88 C27.64,4.048 26.552,3.552 25.064,3.552 C23.144,3.552 21.736,4.368 21.736,6.016 C21.736,7.808 23.4,8.128 24.568,8.304 L25.864,8.496 C26.616,8.608 27.32,8.832 27.32,9.696 C27.32,10.672 26.408,11.12 25.128,11.12 C23.816,11.12 22.92,10.656 22.136,9.824 L21.272,10.576 C22.136,11.552 23.368,12.192 25.096,12.192 Z M35.112,1.92 C35.848,1.92 36.12,1.568 36.12,1.104 L36.12,0.848 C36.12,0.384 35.848,0.032 35.112,0.032 C34.376,0.032 34.104,0.384 34.104,0.848 L34.104,1.104 C34.104,1.568 34.376,1.92 35.112,1.92 Z M38.536,12 L38.536,10.912 L35.752,10.912 L35.752,3.744 L31.496,3.744 L31.496,4.832 L34.472,4.832 L34.472,10.912 L31.496,10.912 L31.496,12 L38.536,12 Z M44.488,12.192 C46.136,12.192 47.176,11.376 47.656,10.272 L46.744,9.648 C46.328,10.544 45.608,11.088 44.504,11.088 C42.952,11.088 42.12,10.032 42.12,8.576 L42.12,7.168 C42.12,5.712 42.968,4.656 44.472,4.656 C45.496,4.656 46.2,5.152 46.504,6 L47.528,5.456 C47.064,4.336 46.072,3.552 44.472,3.552 C42.136,3.552 40.744,5.248 40.744,7.872 C40.744,10.48 42.12,12.192 44.488,12.192 Z M60.92,12 L60.92,2.864 L61.048,2.864 L63.4,8.608 L65.752,2.864 L65.88,2.864 L65.88,12 L67.112,12 L67.112,0.832 L65.448,0.832 L63.48,5.76 L63.384,5.76 L61.416,0.832 L59.688,0.832 L59.688,12 L60.92,12 Z M73,12.192 C75.32,12.192 76.744,10.496 76.744,7.872 C76.744,5.248 75.32,3.552 73,3.552 C70.68,3.552 69.256,5.248 69.256,7.872 C69.256,10.496 70.68,12.192 73,12.192 Z M73,11.088 C71.576,11.088 70.616,10.24 70.616,8.464 L70.616,7.28 C70.616,5.504 71.576,4.656 73,4.656 C74.424,4.656 75.384,5.504 75.384,7.28 L75.384,8.464 C75.384,10.24 74.424,11.088 73,11.088 Z M80.648,12 L80.648,6.272 C80.648,5.184 81.672,4.688 82.696,4.688 C83.96,4.688 84.648,5.424 84.648,6.928 L84.648,12 L85.928,12 L85.928,6.704 C85.928,4.704 84.792,3.552 83.064,3.552 C81.704,3.552 81.064,4.272 80.712,5.088 L80.648,5.088 L80.648,3.744 L79.368,3.744 L79.368,12 L80.648,12 Z M95.816,12 L95.816,10.912 L92.056,10.912 L92.056,4.832 L95.816,4.832 L95.816,3.744 L92.056,3.744 L92.056,0.832 L90.824,0.832 L90.824,2.992 C90.824,3.552 90.616,3.744 90.072,3.744 L88.024,3.744 L88.024,4.832 L90.776,4.832 L90.776,10.112 C90.776,11.216 91.352,12 92.6,12 L95.816,12 Z M99.848,12 L99.848,6.272 C99.848,5.184 100.872,4.688 101.896,4.688 C103.16,4.688 103.848,5.424 103.848,6.928 L103.848,12 L105.128,12 L105.128,6.704 C105.128,4.704 103.992,3.552 102.264,3.552 C100.904,3.552 100.264,4.272 99.912,5.088 L99.848,5.088 L99.848,0.16 L98.568,0.16 L98.568,12 L99.848,12 Z M114.92,12 L114.92,10.912 L112.04,10.912 L112.04,0.16 L107.88,0.16 L107.88,1.248 L110.76,1.248 L110.76,10.912 L107.88,10.912 L107.88,12 L114.92,12 Z M118.744,15.2 C119.992,15.2 120.472,14.752 120.856,13.808 L124.952,3.744 L123.672,3.744 L122.28,7.2 L121.048,10.336 L120.984,10.336 L119.752,7.2 L118.36,3.744 L117.048,3.744 L120.376,11.84 L119.448,14.112 L117.528,14.112 L117.528,15.2 L118.744,15.2 Z" id="BasicMonthly" fill="#00000B" fill-rule="nonzero"></path>
                                    <path d="M6.456,40.808 L6.456,39.176 C8.616,39 9.832,37.8 9.832,35.944 C9.832,34.44 9.112,33.192 6.92,32.824 L6.44,32.744 L6.44,28.824 C7.496,28.936 8.2,29.416 8.776,30.184 L9.784,29.464 C8.984,28.376 7.928,27.768 6.456,27.656 L6.456,26.024 L5.464,26.024 L5.464,27.656 C3.448,27.8 2.2,28.888 2.2,30.68 C2.2,32.136 2.904,33.416 5.112,33.784 L5.48,33.848 L5.48,38.024 C4.36,37.912 3.544,37.384 2.776,36.424 L1.8,37.224 C2.568,38.296 3.688,39.064 5.464,39.176 L5.464,40.808 L6.456,40.808 Z M5.48,32.584 C4.056,32.296 3.496,31.72 3.496,30.68 C3.496,29.576 4.216,28.936 5.48,28.808 L5.48,32.584 Z M6.44,38.008 L6.44,34.008 C7.928,34.264 8.536,34.824 8.536,35.96 C8.536,37.128 7.784,37.864 6.44,38.008 Z M19.448,39 L19.448,37.832 L16.504,37.832 L16.504,27.832 L14.408,27.832 L11.448,30.6 L12.232,31.448 L15.048,28.824 L15.16,28.824 L15.16,37.832 L11.96,37.832 L11.96,39 L19.448,39 Z M24.728,39 C26.552,37.832 28.776,35.24 28.776,31.928 C28.776,29.272 27.336,27.64 24.984,27.64 C22.712,27.64 21.224,29.144 21.224,31.336 C21.224,33.448 22.616,34.776 24.568,34.776 C25.96,34.776 26.776,34.088 27.32,33.176 L27.4,33.208 C26.776,35.8 25.432,37.256 23,39 L24.728,39 Z M25,33.672 C23.48,33.672 22.584,32.792 22.584,31.288 L22.584,31.16 C22.584,29.656 23.48,28.776 25,28.776 C26.52,28.776 27.416,29.656 27.416,31.16 L27.416,31.288 C27.416,32.792 26.52,33.672 25,33.672 Z M34.328,39 C36.152,37.832 38.376,35.24 38.376,31.928 C38.376,29.272 36.936,27.64 34.584,27.64 C32.312,27.64 30.824,29.144 30.824,31.336 C30.824,33.448 32.216,34.776 34.168,34.776 C35.56,34.776 36.376,34.088 36.92,33.176 L37,33.208 C36.376,35.8 35.032,37.256 32.6,39 L34.328,39 Z M34.6,33.672 C33.08,33.672 32.184,32.792 32.184,31.288 L32.184,31.16 C32.184,29.656 33.08,28.776 34.6,28.776 C36.12,28.776 37.016,29.656 37.016,31.16 L37.016,31.288 C37.016,32.792 36.12,33.672 34.6,33.672 Z M44.2,39.144 C45.064,39.144 45.384,38.728 45.384,38.184 L45.384,37.896 C45.384,37.352 45.064,36.936 44.2,36.936 C43.336,36.936 43.016,37.352 43.016,37.896 L43.016,38.184 C43.016,38.728 43.336,39.144 44.2,39.144 Z M53.8,39.192 C56.52,39.192 57.704,37.064 57.704,33.416 C57.704,29.768 56.52,27.64 53.8,27.64 C51.08,27.64 49.896,29.768 49.896,33.416 C49.896,37.064 51.08,39.192 53.8,39.192 Z M53.8,38.024 C52.008,38.024 51.288,36.568 51.288,34.328 L51.288,32.504 C51.288,30.264 52.008,28.808 53.8,28.808 C55.592,28.808 56.312,30.264 56.312,32.504 L56.312,34.328 C56.312,36.568 55.592,38.024 53.8,38.024 Z M53.8,34.36 C54.536,34.36 54.792,34.024 54.792,33.592 L54.792,33.24 C54.792,32.808 54.536,32.472 53.8,32.472 C53.064,32.472 52.808,32.808 52.808,33.24 L52.808,33.592 C52.808,34.024 53.064,34.36 53.8,34.36 Z M61.192,41.208 L66.76,26.84 L65.608,26.84 L60.04,41.208 L61.192,41.208 Z M70.248,39 L70.248,32.936 C70.248,32.056 70.728,31.608 71.416,31.608 C72.168,31.608 72.408,32.072 72.408,33.48 L72.408,39 L73.592,39 L73.592,32.936 C73.592,32.056 74.072,31.608 74.744,31.608 C75.512,31.608 75.752,32.072 75.752,33.48 L75.752,39 L76.936,39 L76.936,33.272 C76.936,31.528 76.584,30.552 75.24,30.552 C74.264,30.552 73.752,31.096 73.448,31.848 L73.4,31.848 C73.304,31.08 72.84,30.552 71.896,30.552 C70.984,30.552 70.568,31.064 70.312,31.704 L70.248,31.704 L70.248,30.744 L69.064,30.744 L69.064,39 L70.248,39 Z M82.6,39.192 C84.92,39.192 86.344,37.496 86.344,34.872 C86.344,32.248 84.92,30.552 82.6,30.552 C80.28,30.552 78.856,32.248 78.856,34.872 C78.856,37.496 80.28,39.192 82.6,39.192 Z M82.6,38.088 C81.176,38.088 80.216,37.24 80.216,35.464 L80.216,34.28 C80.216,32.504 81.176,31.656 82.6,31.656 C84.024,31.656 84.984,32.504 84.984,34.28 L84.984,35.464 C84.984,37.24 84.024,38.088 82.6,38.088 Z M90.248,39 L90.248,33.272 C90.248,32.184 91.272,31.688 92.296,31.688 C93.56,31.688 94.248,32.424 94.248,33.928 L94.248,39 L95.528,39 L95.528,33.704 C95.528,31.704 94.392,30.552 92.664,30.552 C91.304,30.552 90.664,31.272 90.312,32.088 L90.248,32.088 L90.248,30.744 L88.968,30.744 L88.968,39 L90.248,39 Z M105.416,39 L105.416,37.912 L101.656,37.912 L101.656,31.832 L105.416,31.832 L105.416,30.744 L101.656,30.744 L101.656,27.832 L100.424,27.832 L100.424,29.992 C100.424,30.552 100.216,30.744 99.672,30.744 L97.624,30.744 L97.624,31.832 L100.376,31.832 L100.376,37.112 C100.376,38.216 100.952,39 102.2,39 L105.416,39 Z M109.448,39 L109.448,33.272 C109.448,32.184 110.472,31.688 111.496,31.688 C112.76,31.688 113.448,32.424 113.448,33.928 L113.448,39 L114.728,39 L114.728,33.704 C114.728,31.704 113.592,30.552 111.864,30.552 C110.504,30.552 109.864,31.272 109.512,32.088 L109.448,32.088 L109.448,27.16 L108.168,27.16 L108.168,39 L109.448,39 Z" id="$199.0/month" fill="#00000B" fill-rule="nonzero"></path>
                                    <g id="Group-47" transform="translate(0.000000, 55.000000)">
                                        <g id="Group-44">
                                            <rect id="Rectangle" fill="#34CE9D" x="0" y="0" width="87" height="27" rx="13.5"></rect>
                                            <g id="Group-57" transform="translate(11.000000, 4.000000)" fill="#FFFFFF" fill-rule="nonzero">
                                                <g id="pause" transform="translate(0.000000, 4.000000)">
                                                    <g id="play">
                                                        <path d="M0,1.82167316 L0,9.17832684 C-7.09520742e-16,9.73061159 0.44771525,10.1783268 1,10.1783268 C1.19018402,10.1783268 1.37642456,10.1240935 1.53687549,10.0219883 L7.31710338,6.34366149 C7.78304475,6.04715334 7.92039752,5.42906588 7.62388937,4.96312451 C7.54531068,4.83964371 7.44058418,4.7349172 7.31710338,4.65633851 L1.53687549,0.978011677 C1.07093412,0.68150353 0.452846659,0.818856299 0.156338512,1.28479767 C0.0542333717,1.44524861 -2.32908254e-17,1.63148914 0,1.82167316 Z" id="Path"></path>
                                                    </g>
                                                </g>
                                                <path d="M17.652,14 L18.478,11.214 L21.908,11.214 L22.734,14 L23.98,14 L20.984,4.228 L19.43,4.228 L16.434,14 L17.652,14 Z M21.628,10.192 L18.758,10.192 L20.13,5.474 L20.256,5.474 L21.628,10.192 Z M28.852,14.168 C30.294,14.168 31.204,13.454 31.624,12.488 L30.826,11.942 C30.462,12.726 29.832,13.202 28.866,13.202 C27.508,13.202 26.78,12.278 26.78,11.004 L26.78,9.772 C26.78,8.498 27.522,7.574 28.838,7.574 C29.734,7.574 30.35,8.008 30.616,8.75 L31.512,8.274 C31.106,7.294 30.238,6.608 28.838,6.608 C26.794,6.608 25.576,8.092 25.576,10.388 C25.576,12.67 26.78,14.168 28.852,14.168 Z M40.164,14 L40.164,13.048 L36.874,13.048 L36.874,7.728 L40.164,7.728 L40.164,6.776 L36.874,6.776 L36.874,4.228 L35.796,4.228 L35.796,6.118 C35.796,6.608 35.614,6.776 35.138,6.776 L33.346,6.776 L33.346,7.728 L35.754,7.728 L35.754,12.348 C35.754,13.314 36.258,14 37.35,14 L40.164,14 Z M45.848,5.18 C46.492,5.18 46.73,4.872 46.73,4.466 L46.73,4.242 C46.73,3.836 46.492,3.528 45.848,3.528 C45.204,3.528 44.966,3.836 44.966,4.242 L44.966,4.466 C44.966,4.872 45.204,5.18 45.848,5.18 Z M48.844,14 L48.844,13.048 L46.408,13.048 L46.408,6.776 L42.684,6.776 L42.684,7.728 L45.288,7.728 L45.288,13.048 L42.684,13.048 L42.684,14 L48.844,14 Z M54.514,14 L57.104,6.776 L55.998,6.776 L54.962,9.8 L53.842,13.062 L53.786,13.062 L52.666,9.8 L51.63,6.776 L50.496,6.776 L53.086,14 L54.514,14 Z M62.326,14.168 C63.754,14.168 64.79,13.468 65.224,12.502 L64.398,11.942 C64.02,12.726 63.292,13.202 62.326,13.202 C60.968,13.202 60.114,12.278 60.114,11.004 L60.114,10.668 L65.462,10.668 L65.462,10.136 C65.462,8.092 64.202,6.608 62.256,6.608 C60.296,6.608 58.938,8.092 58.938,10.402 C58.938,12.684 60.254,14.168 62.326,14.168 Z M64.258,9.828 L60.114,9.828 L60.114,9.73 C60.114,8.47 61.024,7.532 62.256,7.532 C63.446,7.532 64.258,8.4 64.258,9.674 L64.258,9.828 Z" id="Active"></path>
                                            </g>
                                        </g>
                                    </g>
                                </g>
                                <g id="Group-58" transform="translate(36.000000, 28.000000)" fill="#FFFFFF" stroke="#B6C8DE" stroke-dasharray="3,3" stroke-width="2">
                                    <use id="Rectangle" mask="url(#mask-10)" xlink:href="#path-9"></use>
                                </g>
                            </g>
                        </g>
                    </g>
                    <g id="Group-50-Copy-2" transform="translate(0.000000, 196.000000)">
                        <g id="Group-51">
                            <g id="Group-50">
                                <g id="Rectangle">
                                    <use fill="black" fill-opacity="1" filter="url(#filter-12)" xlink:href="#path-11"></use>
                                    <rect stroke="#EBF2FE" stroke-width="2" stroke-linejoin="square" fill="#FFFFFF" fill-rule="evenodd" x="1" y="97" width="343" height="132" rx="8"></rect>
                                </g>
                                <g id="Group-61" transform="translate(129.000000, 124.000000)" fill="#00000B" fill-rule="nonzero">
                                    <path d="M3.784,12 L3.784,7.264 L6.504,7.264 C8.568,7.264 9.688,6.064 9.688,4.048 C9.688,2.032 8.568,0.832 6.504,0.832 L2.44,0.832 L2.44,12 L3.784,12 Z M6.472,6.096 L3.784,6.096 L3.784,2 L6.472,2 C7.592,2 8.264,2.592 8.264,3.632 L8.264,4.464 C8.264,5.504 7.592,6.096 6.472,6.096 Z M18.728,12 L18.728,10.912 L15.528,10.912 L15.528,7.344 C15.528,6.064 16.376,5.024 17.992,5.024 L19.544,5.024 L19.544,3.744 L18.392,3.744 C16.664,3.744 15.928,4.736 15.608,5.824 L15.528,5.824 L15.528,3.744 L11.832,3.744 L11.832,4.832 L14.248,4.832 L14.248,10.912 L11.832,10.912 L11.832,12 L18.728,12 Z M25.144,12.192 C26.776,12.192 27.96,11.392 28.456,10.288 L27.512,9.648 C27.08,10.544 26.248,11.088 25.144,11.088 C23.592,11.088 22.616,10.032 22.616,8.576 L22.616,8.192 L28.728,8.192 L28.728,7.584 C28.728,5.248 27.288,3.552 25.064,3.552 C22.824,3.552 21.272,5.248 21.272,7.888 C21.272,10.496 22.776,12.192 25.144,12.192 Z M27.352,7.232 L22.616,7.232 L22.616,7.12 C22.616,5.68 23.656,4.608 25.064,4.608 C26.424,4.608 27.352,5.6 27.352,7.056 L27.352,7.232 Z M31.848,12 L31.848,5.936 C31.848,5.056 32.328,4.608 33.016,4.608 C33.768,4.608 34.008,5.072 34.008,6.48 L34.008,12 L35.192,12 L35.192,5.936 C35.192,5.056 35.672,4.608 36.344,4.608 C37.112,4.608 37.352,5.072 37.352,6.48 L37.352,12 L38.536,12 L38.536,6.272 C38.536,4.528 38.184,3.552 36.84,3.552 C35.864,3.552 35.352,4.096 35.048,4.848 L35,4.848 C34.904,4.08 34.44,3.552 33.496,3.552 C32.584,3.552 32.168,4.064 31.912,4.704 L31.848,4.704 L31.848,3.744 L30.664,3.744 L30.664,12 L31.848,12 Z M44.712,1.92 C45.448,1.92 45.72,1.568 45.72,1.104 L45.72,0.848 C45.72,0.384 45.448,0.032 44.712,0.032 C43.976,0.032 43.704,0.384 43.704,0.848 L43.704,1.104 C43.704,1.568 43.976,1.92 44.712,1.92 Z M48.136,12 L48.136,10.912 L45.352,10.912 L45.352,3.744 L41.096,3.744 L41.096,4.832 L44.072,4.832 L44.072,10.912 L41.096,10.912 L41.096,12 L48.136,12 Z M53.336,12.192 C54.696,12.192 55.336,11.472 55.688,10.656 L55.752,10.656 L55.752,12 L57.032,12 L57.032,3.744 L55.752,3.744 L55.752,9.472 C55.752,10.56 54.728,11.056 53.704,11.056 C52.44,11.056 51.752,10.32 51.752,8.816 L51.752,3.744 L50.472,3.744 L50.472,9.04 C50.472,11.04 51.608,12.192 53.336,12.192 Z M60.648,12 L60.648,5.936 C60.648,5.056 61.128,4.608 61.816,4.608 C62.568,4.608 62.808,5.072 62.808,6.48 L62.808,12 L63.992,12 L63.992,5.936 C63.992,5.056 64.472,4.608 65.144,4.608 C65.912,4.608 66.152,5.072 66.152,6.48 L66.152,12 L67.336,12 L67.336,6.272 C67.336,4.528 66.984,3.552 65.64,3.552 C64.664,3.552 64.152,4.096 63.848,4.848 L63.8,4.848 C63.704,4.08 63.24,3.552 62.296,3.552 C61.384,3.552 60.968,4.064 60.712,4.704 L60.648,4.704 L60.648,3.744 L59.464,3.744 L59.464,12 L60.648,12 Z M79.688,12 L80.632,8.816 L84.552,8.816 L85.496,12 L86.92,12 L83.496,0.832 L81.72,0.832 L78.296,12 L79.688,12 Z M84.232,7.648 L80.952,7.648 L82.52,2.256 L82.664,2.256 L84.232,7.648 Z M90.248,12 L90.248,6.272 C90.248,5.184 91.272,4.688 92.296,4.688 C93.56,4.688 94.248,5.424 94.248,6.928 L94.248,12 L95.528,12 L95.528,6.704 C95.528,4.704 94.392,3.552 92.664,3.552 C91.304,3.552 90.664,4.272 90.312,5.088 L90.248,5.088 L90.248,3.744 L88.968,3.744 L88.968,12 L90.248,12 Z M99.848,12 L99.848,6.272 C99.848,5.184 100.872,4.688 101.896,4.688 C103.16,4.688 103.848,5.424 103.848,6.928 L103.848,12 L105.128,12 L105.128,6.704 C105.128,4.704 103.992,3.552 102.264,3.552 C100.904,3.552 100.264,4.272 99.912,5.088 L99.848,5.088 L99.848,3.744 L98.568,3.744 L98.568,12 L99.848,12 Z M110.936,12.192 C112.296,12.192 112.936,11.472 113.288,10.656 L113.352,10.656 L113.352,12 L114.632,12 L114.632,3.744 L113.352,3.744 L113.352,9.472 C113.352,10.56 112.328,11.056 111.304,11.056 C110.04,11.056 109.352,10.32 109.352,8.816 L109.352,3.744 L108.072,3.744 L108.072,9.04 C108.072,11.04 109.208,12.192 110.936,12.192 Z M120.088,12.192 C121.432,12.192 122.216,11.6 122.568,10.656 L122.648,10.656 C122.744,11.424 123.128,12 124.12,12 L125,12 L125,10.88 L123.848,10.88 L123.848,6.336 C123.848,4.592 122.616,3.552 120.68,3.552 C119,3.552 117.944,4.352 117.528,5.216 L118.392,5.856 C118.824,5.104 119.496,4.64 120.6,4.64 C121.848,4.64 122.568,5.264 122.568,6.464 L122.568,7.28 L120.808,7.28 C118.328,7.28 117.256,8.16 117.256,9.68 C117.256,11.232 118.36,12.192 120.088,12.192 Z M120.312,11.12 C119.256,11.12 118.6,10.672 118.6,9.824 L118.6,9.488 C118.6,8.688 119.288,8.24 120.808,8.24 L122.568,8.24 L122.568,9.6 C122.568,10.448 121.624,11.12 120.312,11.12 Z M134.12,12 L134.12,10.912 L131.24,10.912 L131.24,0.16 L127.08,0.16 L127.08,1.248 L129.96,1.248 L129.96,10.912 L127.08,10.912 L127.08,12 L134.12,12 Z" id="PremiumAnnual"></path>
                                    <path d="M6.656,48.784 L6.656,47.152 C8.816,46.976 10.032,45.776 10.032,43.92 C10.032,42.416 9.312,41.168 7.12,40.8 L6.64,40.72 L6.64,36.8 C7.696,36.912 8.4,37.392 8.976,38.16 L9.984,37.44 C9.184,36.352 8.128,35.744 6.656,35.632 L6.656,34 L5.664,34 L5.664,35.632 C3.648,35.776 2.4,36.864 2.4,38.656 C2.4,40.112 3.104,41.392 5.312,41.76 L5.68,41.824 L5.68,46 C4.56,45.888 3.744,45.36 2.976,44.4 L2,45.2 C2.768,46.272 3.888,47.04 5.664,47.152 L5.664,48.784 L6.656,48.784 Z M5.68,40.56 C4.256,40.272 3.696,39.696 3.696,38.656 C3.696,37.552 4.416,36.912 5.68,36.784 L5.68,40.56 Z M6.64,45.984 L6.64,41.984 C8.128,42.24 8.736,42.8 8.736,43.936 C8.736,45.104 7.984,45.84 6.64,45.984 Z M19.648,46.976 L19.648,45.808 L16.704,45.808 L16.704,35.808 L14.608,35.808 L11.648,38.576 L12.432,39.424 L15.248,36.8 L15.36,36.8 L15.36,45.808 L12.16,45.808 L12.16,46.976 L19.648,46.976 Z M28.992,46.976 L28.992,45.808 L22.928,45.808 L26.048,43.088 C27.536,41.792 28.544,40.544 28.544,38.848 C28.544,36.96 27.296,35.616 25.072,35.616 C22.88,35.616 21.872,36.928 21.44,38.24 L22.64,38.688 C22.992,37.536 23.68,36.784 25.04,36.784 C26.416,36.784 27.136,37.552 27.136,38.896 L27.136,39.088 C27.136,40.224 26.352,41.264 25.264,42.24 L21.536,45.6 L21.536,46.976 L28.992,46.976 Z M34.8,47.168 C37.52,47.168 38.704,45.04 38.704,41.392 C38.704,37.744 37.52,35.616 34.8,35.616 C32.08,35.616 30.896,37.744 30.896,41.392 C30.896,45.04 32.08,47.168 34.8,47.168 Z M34.8,46 C33.008,46 32.288,44.544 32.288,42.304 L32.288,40.48 C32.288,38.24 33.008,36.784 34.8,36.784 C36.592,36.784 37.312,38.24 37.312,40.48 L37.312,42.304 C37.312,44.544 36.592,46 34.8,46 Z M34.8,42.336 C35.536,42.336 35.792,42 35.792,41.568 L35.792,41.216 C35.792,40.784 35.536,40.448 34.8,40.448 C34.064,40.448 33.808,40.784 33.808,41.216 L33.808,41.568 C33.808,42 34.064,42.336 34.8,42.336 Z M44.4,47.168 C47.12,47.168 48.304,45.04 48.304,41.392 C48.304,37.744 47.12,35.616 44.4,35.616 C41.68,35.616 40.496,37.744 40.496,41.392 C40.496,45.04 41.68,47.168 44.4,47.168 Z M44.4,46 C42.608,46 41.888,44.544 41.888,42.304 L41.888,40.48 C41.888,38.24 42.608,36.784 44.4,36.784 C46.192,36.784 46.912,38.24 46.912,40.48 L46.912,42.304 C46.912,44.544 46.192,46 44.4,46 Z M44.4,42.336 C45.136,42.336 45.392,42 45.392,41.568 L45.392,41.216 C45.392,40.784 45.136,40.448 44.4,40.448 C43.664,40.448 43.408,40.784 43.408,41.216 L43.408,41.568 C43.408,42 43.664,42.336 44.4,42.336 Z M54,47.168 C56.72,47.168 57.904,45.04 57.904,41.392 C57.904,37.744 56.72,35.616 54,35.616 C51.28,35.616 50.096,37.744 50.096,41.392 C50.096,45.04 51.28,47.168 54,47.168 Z M54,46 C52.208,46 51.488,44.544 51.488,42.304 L51.488,40.48 C51.488,38.24 52.208,36.784 54,36.784 C55.792,36.784 56.512,38.24 56.512,40.48 L56.512,42.304 C56.512,44.544 55.792,46 54,46 Z M54,42.336 C54.736,42.336 54.992,42 54.992,41.568 L54.992,41.216 C54.992,40.784 54.736,40.448 54,40.448 C53.264,40.448 53.008,40.784 53.008,41.216 L53.008,41.568 C53.008,42 53.264,42.336 54,42.336 Z M63.6,47.12 C64.464,47.12 64.784,46.704 64.784,46.16 L64.784,45.872 C64.784,45.328 64.464,44.912 63.6,44.912 C62.736,44.912 62.416,45.328 62.416,45.872 L62.416,46.16 C62.416,46.704 62.736,47.12 63.6,47.12 Z M73.2,47.168 C75.92,47.168 77.104,45.04 77.104,41.392 C77.104,37.744 75.92,35.616 73.2,35.616 C70.48,35.616 69.296,37.744 69.296,41.392 C69.296,45.04 70.48,47.168 73.2,47.168 Z M73.2,46 C71.408,46 70.688,44.544 70.688,42.304 L70.688,40.48 C70.688,38.24 71.408,36.784 73.2,36.784 C74.992,36.784 75.712,38.24 75.712,40.48 L75.712,42.304 C75.712,44.544 74.992,46 73.2,46 Z M73.2,42.336 C73.936,42.336 74.192,42 74.192,41.568 L74.192,41.216 C74.192,40.784 73.936,40.448 73.2,40.448 C72.464,40.448 72.208,40.784 72.208,41.216 L72.208,41.568 C72.208,42 72.464,42.336 73.2,42.336 Z M80.592,49.184 L86.16,34.816 L85.008,34.816 L79.44,49.184 L80.592,49.184 Z M90.144,50.176 C91.392,50.176 91.872,49.728 92.256,48.784 L96.352,38.72 L95.072,38.72 L93.68,42.176 L92.448,45.312 L92.384,45.312 L91.152,42.176 L89.76,38.72 L88.448,38.72 L91.776,46.816 L90.848,49.088 L88.928,49.088 L88.928,50.176 L90.144,50.176 Z M102.144,47.168 C103.776,47.168 104.96,46.368 105.456,45.264 L104.512,44.624 C104.08,45.52 103.248,46.064 102.144,46.064 C100.592,46.064 99.616,45.008 99.616,43.552 L99.616,43.168 L105.728,43.168 L105.728,42.56 C105.728,40.224 104.288,38.528 102.064,38.528 C99.824,38.528 98.272,40.224 98.272,42.864 C98.272,45.472 99.776,47.168 102.144,47.168 Z M104.352,42.208 L99.616,42.208 L99.616,42.096 C99.616,40.656 100.656,39.584 102.064,39.584 C103.424,39.584 104.352,40.576 104.352,42.032 L104.352,42.208 Z M110.688,47.168 C112.032,47.168 112.816,46.576 113.168,45.632 L113.248,45.632 C113.344,46.4 113.728,46.976 114.72,46.976 L115.6,46.976 L115.6,45.856 L114.448,45.856 L114.448,41.312 C114.448,39.568 113.216,38.528 111.28,38.528 C109.6,38.528 108.544,39.328 108.128,40.192 L108.992,40.832 C109.424,40.08 110.096,39.616 111.2,39.616 C112.448,39.616 113.168,40.24 113.168,41.44 L113.168,42.256 L111.408,42.256 C108.928,42.256 107.856,43.136 107.856,44.656 C107.856,46.208 108.96,47.168 110.688,47.168 Z M110.912,46.096 C109.856,46.096 109.2,45.648 109.2,44.8 L109.2,44.464 C109.2,43.664 109.888,43.216 111.408,43.216 L113.168,43.216 L113.168,44.576 C113.168,45.424 112.224,46.096 110.912,46.096 Z M124.528,46.976 L124.528,45.888 L121.328,45.888 L121.328,42.32 C121.328,41.04 122.176,40 123.792,40 L125.344,40 L125.344,38.72 L124.192,38.72 C122.464,38.72 121.728,39.712 121.408,40.8 L121.328,40.8 L121.328,38.72 L117.632,38.72 L117.632,39.808 L120.048,39.808 L120.048,45.888 L117.632,45.888 L117.632,46.976 L124.528,46.976 Z" id="$12000.0/year"></path>
                                </g>
                                <g id="Group-58" transform="translate(36.000000, 0.000000)">
                                    <use id="Rectangle" stroke="#B6C8DE" mask="url(#mask-14)" stroke-width="2" fill="#FFFFFF" stroke-dasharray="3,3" xlink:href="#path-13"></use>
                                    <path d="M19.9864932,160.866549 L19.9864932,155.048271 L23.2716432,155.048271 L23.2716432,153.09895 L14,153.09895 L14,155.048271 L17.2752549,155.048271 L17.2752549,160.866549 L19.9864932,160.866549 Z M26.3489975,160.965499 C28.1795781,160.965499 29.5154071,160.460853 30.138794,159.59009 C30.4356449,159.194289 30.5939654,158.699537 30.5939654,158.115731 C30.5939654,157.541819 30.4356449,157.037172 30.128899,156.621581 C29.5055121,155.810189 28.2587383,155.256067 26.3588925,155.256067 C24.3897816,155.256067 23.1726929,155.820084 22.549306,156.661161 C22.24256,157.047067 22.0842396,157.571504 22.0842396,158.115731 C22.0842396,158.689642 22.24256,159.194289 22.5295159,159.580195 C23.1430078,160.431168 24.3600965,160.965499 26.3489975,160.965499 Z M26.3687876,159.303134 C25.5870802,159.303134 25.0131685,159.105234 24.7756877,158.758907 C24.6569474,158.590692 24.6074722,158.363106 24.6074722,158.125626 C24.6074722,157.89804 24.6668424,157.670454 24.8152678,157.492344 C25.0626436,157.165808 25.5771852,156.958012 26.3687876,156.958012 C27.1504949,156.958012 27.6749315,157.165808 27.9124123,157.482449 C28.0509427,157.650664 28.1103129,157.888145 28.1103129,158.125626 C28.1103129,158.363106 28.0410476,158.600587 27.9223073,158.768803 C27.6848266,159.115129 27.1405999,159.303134 26.3687876,159.303134 Z M34.0572259,160.866549 L34.0572259,159.372399 L34.8488283,158.798488 L36.5408785,160.866549 L39.4401223,160.866549 L36.6695139,157.551714 L39.1630614,155.424282 L36.3330828,155.424282 L34.0473309,157.185598 L34.0473309,153 L31.5438883,153 L31.5438883,160.866549 L34.0572259,160.866549 Z M44.2194218,162.647654 L48.1180636,155.424282 L45.5057757,155.424282 C45.5057757,155.473758 43.8434106,158.729222 43.8434106,158.768803 C43.8335156,158.729222 42.0722003,155.463862 42.0722003,155.424282 L39.4104372,155.424282 L42.4778965,160.916024 L41.5081836,162.647654 L44.2194218,162.647654 Z M52.3432415,160.965499 C54.173822,160.965499 55.5096511,160.460853 56.133038,159.59009 C56.4298889,159.194289 56.5882094,158.699537 56.5882094,158.115731 C56.5882094,157.541819 56.4298889,157.037172 56.1231429,156.621581 C55.499756,155.810189 54.2529823,155.256067 52.3531365,155.256067 C50.3840255,155.256067 49.1669368,155.820084 48.5435499,156.661161 C48.236804,157.047067 48.0784835,157.571504 48.0784835,158.115731 C48.0784835,158.689642 48.236804,159.194289 48.5237599,159.580195 C49.1372517,160.431168 50.3543404,160.965499 52.3432415,160.965499 Z M52.3630315,159.303134 C51.5813241,159.303134 51.0074124,159.105234 50.7699317,158.758907 C50.6511913,158.590692 50.6017162,158.363106 50.6017162,158.125626 C50.6017162,157.89804 50.6610864,157.670454 50.8095118,157.492344 C51.0568876,157.165808 51.5714291,156.958012 52.3630315,156.958012 C53.1447389,156.958012 53.6691755,157.165808 53.9066562,157.482449 C54.0451866,157.650664 54.1045568,157.888145 54.1045568,158.125626 C54.1045568,158.363106 54.0352916,158.600587 53.9165512,158.768803 C53.6790705,159.115129 53.1348439,159.303134 52.3630315,159.303134 Z M18.7792995,172.284 C20.6791453,172.284 21.5894881,171.621033 22.0248694,171.096596 L22.0842396,172.175155 L23.1430078,172.175155 C23.1430078,172.140737 23.1355257,171.208472 23.1335739,170.32175 L23.1331127,167.831236 L23.1331127,167.831236 L18.4725536,167.831236 L18.4725536,168.929585 L21.9753942,168.929585 C21.9753942,170.364364 20.7780956,171.185652 18.9574101,171.185652 C16.8794537,171.185652 15.7415253,170.295099 15.7415253,168.296303 C15.7415253,166.346982 16.6914482,165.387164 19.0266753,165.387164 C20.9562061,165.387164 21.8467588,166.158976 21.886339,167.089109 L23.0935326,167.089109 C23.0935326,165.63454 21.916024,164.288816 18.9772001,164.288816 C16.0383762,164.288816 14.4848565,165.763175 14.4848565,168.296303 C14.4848565,170.888801 16.1571166,172.284 18.7792995,172.284 Z M27.5462961,172.284 C28.5654842,172.284 29.6836226,172.086099 30.2179543,171.304392 L30.2179543,171.304392 L30.2575344,172.175155 L31.3855678,172.175155 C31.3679766,172.157564 31.3503855,172.022698 31.3466935,171.39528 L31.3459877,166.732888 L30.1882692,166.732888 L30.1882692,169.859718 C30.1882692,170.700795 29.3175065,171.274707 28.0212576,171.274707 C26.843749,171.274707 26.0521466,170.888801 26.0521466,169.800347 C26.0521466,167.46512 26.0422516,166.732888 26.0125665,166.732888 L26.0125665,166.732888 L24.8251629,166.732888 C24.864743,166.762573 24.874638,166.851629 24.8845331,170.215939 C24.8845331,171.630928 25.8839311,172.284 27.5462961,172.284 Z M34.3540768,172.175155 L34.3540768,169.167066 C34.3540768,168.177563 35.4326351,167.653126 36.5606685,167.653126 C37.8668125,167.653126 38.5000944,168.157772 38.5000944,169.13738 L38.5006256,170.060125 C38.503314,171.96065 38.51761,172.16487 38.5742917,172.174749 L39.7072881,172.175155 C39.667708,172.12568 39.6578129,172.076204 39.6578129,168.890005 C39.6578129,167.603651 38.9651608,166.594358 37.0158399,166.594358 C35.8878065,166.594358 34.7102979,166.920894 34.3144967,167.811446 L34.3144967,166.732888 L33.1963583,166.732888 L33.1963583,172.175155 L34.3540768,172.175155 Z M44.5261677,172.284 C46.8811849,172.284 47.7915276,171.670508 47.7915276,170.562265 C47.7915276,169.562867 47.1384557,169.087905 45.2979801,168.949375 C45.0110242,168.929585 44.2194218,168.850425 43.9225709,168.830635 C42.5075816,168.701999 42.2305207,168.553574 42.2305207,168.187458 C42.2305207,167.811446 42.5669518,167.554176 44.2293168,167.554176 C45.594831,167.554176 46.1489526,167.771866 46.3171682,168.039032 C46.3765383,168.128087 46.3864334,168.276513 46.3864334,168.335883 L47.5243618,168.335883 C47.5243618,168.236933 47.5045718,167.989557 47.4353066,167.801551 C47.0889805,166.930789 46.0994775,166.574568 44.2095268,166.574568 C42.1117804,166.574568 41.1222774,167.20785 41.1222774,168.187458 C41.1222774,169.127485 41.7555593,169.592552 43.4772945,169.750872 C43.7642504,169.780557 44.5261677,169.859718 44.7834385,169.879508 C46.2874831,169.998248 46.6832843,170.146674 46.6832843,170.61174 C46.6832843,171.047121 46.277588,171.334077 44.5459578,171.334077 C43.0913884,171.334077 42.4086313,171.185652 42.2305207,170.829431 C42.1810456,170.71069 42.1612555,170.582055 42.1612555,170.502895 L41.0233271,170.502895 C41.0233271,170.641425 41.0431171,170.799745 41.0826973,170.967961 C41.3498631,171.917884 42.299786,172.284 44.5261677,172.284 Z" id="TokyoGuns" fill="#00000A" fill-rule="nonzero"></path>
                                    <path d="M26.506,10.696 L27.962,10.528 L30.44,1.666 C30.608,1.62866667 30.7806667,1.57733333 30.958,1.512 C31.1353333,1.44666667 31.3033333,1.36266667 31.462,1.26 L31.462,1.26 L31.462,0.728 L27.934,0.728 L27.934,1.26 C28.3446667,1.47466667 28.7366667,1.61 29.11,1.666 L29.11,1.666 L27.99,6.44 L27.668,8.288 L27.64,8.288 L27.164,6.468 L25.176,0.728 L24.35,0.728 L22.488,6.538 L21.998,8.428 L21.97,8.428 L21.676,6.608 L20.374,1.666 C20.5886667,1.61933333 20.7963333,1.561 20.997,1.491 C21.1976667,1.421 21.3773333,1.344 21.536,1.26 L21.536,1.26 L21.536,0.728 L17,0.728 L17,1.26 C17.1493333,1.35333333 17.308,1.435 17.476,1.505 C17.644,1.575 17.826,1.62866667 18.022,1.666 L18.022,1.666 L20.752,10.696 L22.222,10.528 L24.336,3.92 L26.506,10.696 Z M33.386,2.268 C33.7406667,2.268 34.03,2.17466667 34.254,1.988 C34.478,1.80133333 34.59,1.54933333 34.59,1.232 C34.59,0.905333333 34.478,0.648666667 34.254,0.462 C34.03,0.275333333 33.7406667,0.182 33.386,0.182 C33.0313333,0.182 32.742,0.275333333 32.518,0.462 C32.294,0.648666667 32.182,0.905333333 32.182,1.232 C32.182,1.54933333 32.294,1.80133333 32.518,1.988 C32.742,2.17466667 33.0313333,2.268 33.386,2.268 Z M35.36,10.528 L35.36,9.982 C35.2293333,9.90733333 35.0893333,9.84433333 34.94,9.793 C34.7906667,9.74166667 34.6226667,9.69266667 34.436,9.646 L34.436,9.646 L34.436,3.36 L33.96,3.36 C33.792,3.37866667 33.596,3.40433333 33.372,3.437 C33.148,3.46966667 32.9193333,3.507 32.686,3.549 C32.4526667,3.591 32.231,3.64 32.021,3.696 C31.811,3.752 31.636,3.808 31.496,3.864 L31.496,3.864 L31.496,4.41 L32.42,4.522 L32.42,9.646 C32.2426667,9.69266667 32.0793333,9.74166667 31.93,9.793 C31.7806667,9.84433333 31.636,9.90733333 31.496,9.982 L31.496,9.982 L31.496,10.528 L35.36,10.528 Z M39.342,10.528 L39.342,9.982 C39.2113333,9.898 39.0876667,9.83033333 38.971,9.779 C38.8543333,9.72766667 38.7213333,9.68333333 38.572,9.646 L38.572,9.646 L38.572,5.754 C38.7026667,5.362 38.8963333,5.05166667 39.153,4.823 C39.4096667,4.59433333 39.7153333,4.48 40.07,4.48 C40.4993333,4.48 40.798,4.64566667 40.966,4.977 C41.134,5.30833333 41.218,5.768 41.218,6.356 L41.218,6.356 L41.218,9.646 C41.0593333,9.702 40.9216667,9.75566667 40.805,9.807 C40.6883333,9.85833333 40.5693333,9.91666667 40.448,9.982 L40.448,9.982 L40.448,10.528 L44.158,10.528 L44.158,9.982 C43.9153333,9.82333333 43.6073333,9.71133333 43.234,9.646 L43.234,9.646 L43.234,6.3 C43.234,5.72133333 43.1803333,5.243 43.073,4.865 C42.9656667,4.487 42.8116667,4.186 42.611,3.962 C42.4103333,3.738 42.1653333,3.58166667 41.876,3.493 C41.5866667,3.40433333 41.26,3.36 40.896,3.36 C40.336,3.36 39.86,3.50233333 39.468,3.787 C39.076,4.07166667 38.782,4.41 38.586,4.802 L38.586,4.802 L38.572,4.802 L38.572,3.36 L38.096,3.36 C37.9,3.37866667 37.683,3.40433333 37.445,3.437 C37.207,3.46966667 36.9736667,3.50933333 36.745,3.556 C36.5163333,3.60266667 36.304,3.65166667 36.108,3.703 C35.912,3.75433333 35.7533333,3.808 35.632,3.864 L35.632,3.864 L35.632,4.41 L36.556,4.522 L36.556,9.646 C36.1733333,9.74866667 35.8653333,9.86066667 35.632,9.982 L35.632,9.982 L35.632,10.528 L39.342,10.528 Z M47.188,10.696 C47.4306667,10.696 47.6593333,10.654 47.874,10.57 C48.0886667,10.486 48.28,10.3716667 48.448,10.227 C48.616,10.0823333 48.7606667,9.91666667 48.882,9.73 C49.0033333,9.54333333 49.0873333,9.34733333 49.134,9.142 L49.134,9.142 L49.19,9.142 L49.316,10.668 L49.792,10.668 C49.932,10.6493333 50.107,10.6236667 50.317,10.591 C50.527,10.5583333 50.744,10.5186667 50.968,10.472 C51.192,10.4253333 51.4066667,10.374 51.612,10.318 C51.8173333,10.262 51.9853333,10.2013333 52.116,10.136 L52.116,10.136 L52.116,9.646 L51.192,9.534 L51.192,0 L50.716,0 C50.5573333,0.028 50.3566667,0.0606666667 50.114,0.098 C49.8713333,0.135333333 49.624,0.175 49.372,0.217 C49.12,0.259 48.8796667,0.303333333 48.651,0.35 C48.4223333,0.396666667 48.2426667,0.448 48.112,0.504 L48.112,0.504 L48.112,1.05 L49.176,1.162 L49.176,3.626 C49.064,3.58866667 48.9636667,3.55366667 48.875,3.521 C48.7863333,3.48833333 48.693,3.465 48.595,3.451 C48.497,3.437 48.3896667,3.42533333 48.273,3.416 C48.1563333,3.40666667 48.014,3.402 47.846,3.402 C47.3233333,3.402 46.8473333,3.48133333 46.418,3.64 C45.9886667,3.79866667 45.6223333,4.03666667 45.319,4.354 C45.0156667,4.67133333 44.78,5.061 44.612,5.523 C44.444,5.985 44.36,6.524 44.36,7.14 C44.36,8.344 44.6003333,9.23766667 45.081,9.821 C45.5616667,10.4043333 46.264,10.696 47.188,10.696 Z M47.86,9.576 C47.384,9.576 47.0433333,9.34733333 46.838,8.89 C46.6326667,8.43266667 46.53,7.826 46.53,7.07 C46.53,6.13666667 46.6466667,5.425 46.88,4.935 C47.1133333,4.445 47.5006667,4.2 48.042,4.2 C48.3126667,4.2 48.539,4.22333333 48.721,4.27 C48.903,4.31666667 49.0546667,4.37733333 49.176,4.452 L49.176,4.452 L49.176,8.218 C49.0733333,8.71266667 48.91,9.06266667 48.686,9.268 C48.462,9.47333333 48.1866667,9.576 47.86,9.576 Z M33.438,22.696 C34.11,22.696 34.7073333,22.577 35.23,22.339 C35.7526667,22.101 36.1586667,21.8326667 36.448,21.534 C36.6906667,21.7766667 36.938,21.975 37.19,22.129 C37.442,22.283 37.6613333,22.416 37.848,22.528 L37.848,22.528 L40.284,22.528 L40.284,21.982 L39.57,21.646 C39.2433333,21.4593333 38.912,21.254 38.576,21.03 C38.24,20.806 37.9086667,20.5493333 37.582,20.26 C37.722,20.1106667 37.862,19.9006667 38.002,19.63 C38.142,19.3593333 38.275,19.0513333 38.401,18.706 C38.527,18.3606667 38.6366667,17.992 38.73,17.6 C38.8233333,17.208 38.8933333,16.8113333 38.94,16.41 C39.304,16.3446667 39.612,16.2326667 39.864,16.074 L39.864,16.074 L39.864,15.528 L36.672,15.528 L36.672,16.074 C36.7933333,16.158 36.91,16.228 37.022,16.284 C37.134,16.34 37.2646667,16.382 37.414,16.41 C37.4886667,16.718 37.5166667,17.0446667 37.498,17.39 C37.4793333,17.7353333 37.4373333,18.062 37.372,18.37 C37.3066667,18.678 37.2273333,18.9533333 37.134,19.196 C37.0406667,19.4386667 36.9566667,19.6113333 36.882,19.714 C35.762,18.7153333 34.88,17.7726667 34.236,16.886 C34.46,16.7273333 34.6723333,16.5523333 34.873,16.361 C35.0736667,16.1696667 35.251,15.9666667 35.405,15.752 C35.559,15.5373333 35.6826667,15.3086667 35.776,15.066 C35.8693333,14.8233333 35.916,14.5666667 35.916,14.296 C35.916,13.736 35.706,13.3066667 35.286,13.008 C34.866,12.7093333 34.32,12.56 33.648,12.56 C33.256,12.56 32.913,12.616 32.619,12.728 C32.325,12.84 32.0776667,12.987 31.877,13.169 C31.6763333,13.351 31.527,13.5586667 31.429,13.792 C31.331,14.0253333 31.282,14.2586667 31.282,14.492 C31.282,14.8373333 31.366,15.1873333 31.534,15.542 C31.702,15.8966667 31.9026667,16.2 32.136,16.452 C31.94,16.564 31.709,16.7203333 31.443,16.921 C31.177,17.1216667 30.9273333,17.362 30.694,17.642 C30.4606667,17.922 30.2623333,18.2416667 30.099,18.601 C29.9356667,18.9603333 29.854,19.3546667 29.854,19.784 C29.854,20.1386667 29.924,20.4886667 30.064,20.834 C30.204,21.1793333 30.4186667,21.4896667 30.708,21.765 C30.9973333,22.0403333 31.3683333,22.2643333 31.821,22.437 C32.2736667,22.6096667 32.8126667,22.696 33.438,22.696 Z M33.83,16.256 C33.7273333,16.1346667 33.6223333,15.9946667 33.515,15.836 C33.4076667,15.6773333 33.3096667,15.514 33.221,15.346 C33.1323333,15.178 33.06,15.01 33.004,14.842 C32.948,14.674 32.92,14.52 32.92,14.38 C32.92,14.1093333 32.9923333,13.8666667 33.137,13.652 C33.2816667,13.4373333 33.508,13.33 33.816,13.33 C34.1146667,13.33 34.3363333,13.421 34.481,13.603 C34.6256667,13.785 34.7073333,14.0066667 34.726,14.268 C34.7446667,14.66 34.6793333,15.0286667 34.53,15.374 C34.3806667,15.7193333 34.1473333,16.0133333 33.83,16.256 Z M34.18,21.646 C33.8626667,21.646 33.5686667,21.5876667 33.298,21.471 C33.0273333,21.3543333 32.7916667,21.191 32.591,20.981 C32.3903333,20.771 32.234,20.5213333 32.122,20.232 C32.01,19.9426667 31.954,19.6253333 31.954,19.28 C31.954,18.8693333 32.0146667,18.5123333 32.136,18.209 C32.2573333,17.9056667 32.4533333,17.586 32.724,17.25 C32.8546667,17.474 33.032,17.7446667 33.256,18.062 C33.48,18.3793333 33.7296667,18.706 34.005,19.042 C34.2803333,19.378 34.572,19.7093333 34.88,20.036 C35.188,20.3626667 35.4913333,20.652 35.79,20.904 C35.5846667,21.1653333 35.335,21.3543333 35.041,21.471 C34.747,21.5876667 34.46,21.646 34.18,21.646 Z M23.062,34.696 C24.2846667,34.696 25.211,34.4416667 25.841,33.933 C26.471,33.4243333 26.786,32.7033333 26.786,31.77 C26.786,31.2566667 26.674,30.825 26.45,30.475 C26.226,30.125 25.946,29.8193333 25.61,29.558 C25.274,29.2966667 24.9076667,29.0656667 24.511,28.865 C24.1143333,28.6643333 23.748,28.4613333 23.412,28.256 C23.076,28.0506667 22.796,27.8243333 22.572,27.577 C22.348,27.3296667 22.236,27.0286667 22.236,26.674 C22.236,26.282 22.3713333,25.9833333 22.642,25.778 C22.9126667,25.5726667 23.244,25.47 23.636,25.47 C23.8693333,25.47 24.0956667,25.4933333 24.315,25.54 C24.5343333,25.5866667 24.7,25.638 24.812,25.694 L24.812,25.694 L25.456,27.612 L26.03,27.612 C26.0673333,27.472 26.107,27.297 26.149,27.087 C26.191,26.877 26.2306667,26.653 26.268,26.415 C26.3053333,26.177 26.3356667,25.9366667 26.359,25.694 C26.3823333,25.4513333 26.3986667,25.2366667 26.408,25.05 C26.016,24.882 25.575,24.7583333 25.085,24.679 C24.595,24.5996667 24.0653333,24.56 23.496,24.56 C23.0293333,24.56 22.5953333,24.6136667 22.194,24.721 C21.7926667,24.8283333 21.445,24.9916667 21.151,25.211 C20.857,25.4303333 20.626,25.708 20.458,26.044 C20.29,26.38 20.206,26.7766667 20.206,27.234 C20.206,27.766 20.3156667,28.2116667 20.535,28.571 C20.7543333,28.9303333 21.032,29.2406667 21.368,29.502 C21.704,29.7633333 22.0633333,29.9896667 22.446,30.181 C22.8286667,30.3723333 23.188,30.566 23.524,30.762 C23.86,30.958 24.1376667,31.1726667 24.357,31.406 C24.5763333,31.6393333 24.686,31.9286667 24.686,32.274 C24.686,32.75 24.5156667,33.121 24.175,33.387 C23.8343333,33.653 23.4073333,33.786 22.894,33.786 C22.586,33.786 22.3386667,33.7416667 22.152,33.653 C21.9653333,33.5643333 21.8206667,33.4686667 21.718,33.366 L21.718,33.366 L21.144,31.308 L20.57,31.308 C20.5233333,31.476 20.4766667,31.672 20.43,31.896 C20.3833333,32.12 20.339,32.3556667 20.297,32.603 C20.255,32.8503333 20.2153333,33.0976667 20.178,33.345 C20.1406667,33.5923333 20.1173333,33.8233333 20.108,34.038 C20.2106667,34.122 20.367,34.2013333 20.577,34.276 C20.787,34.3506667 21.0273333,34.4206667 21.298,34.486 C21.5686667,34.5513333 21.8556667,34.6026667 22.159,34.64 C22.4623333,34.6773333 22.7633333,34.696 23.062,34.696 Z M31.09,34.696 C31.6686667,34.696 32.189,34.612 32.651,34.444 C33.113,34.276 33.505,34.0333333 33.827,33.716 C34.149,33.3986667 34.394,33.0136667 34.562,32.561 C34.73,32.1083333 34.814,31.5973333 34.814,31.028 C34.814,30.496 34.744,30.0036667 34.604,29.551 C34.464,29.0983333 34.2423333,28.711 33.939,28.389 C33.6356667,28.067 33.2483333,27.815 32.777,27.633 C32.3056667,27.451 31.7433333,27.36 31.09,27.36 C30.5113333,27.36 29.9933333,27.444 29.536,27.612 C29.0786667,27.78 28.689,28.0226667 28.367,28.34 C28.045,28.6573333 27.7976667,29.0423333 27.625,29.495 C27.4523333,29.9476667 27.366,30.4586667 27.366,31.028 C27.366,31.56 27.4406667,32.0523333 27.59,32.505 C27.7393333,32.9576667 27.968,33.345 28.276,33.667 C28.584,33.989 28.9713333,34.241 29.438,34.423 C29.9046667,34.605 30.4553333,34.696 31.09,34.696 Z M31.286,33.842 C30.9313333,33.842 30.642,33.7743333 30.418,33.639 C30.194,33.5036667 30.0166667,33.3146667 29.886,33.072 C29.7553333,32.8293333 29.6643333,32.533 29.613,32.183 C29.5616667,31.833 29.536,31.448 29.536,31.028 C29.536,30.5053333 29.5663333,30.0643333 29.627,29.705 C29.6876667,29.3456667 29.7786667,29.0563333 29.9,28.837 C30.0213333,28.6176667 30.1706667,28.459 30.348,28.361 C30.5253333,28.263 30.7353333,28.214 30.978,28.214 C31.3046667,28.214 31.5753333,28.2816667 31.79,28.417 C32.0046667,28.5523333 32.175,28.7413333 32.301,28.984 C32.427,29.2266667 32.5156667,29.5206667 32.567,29.866 C32.6183333,30.2113333 32.644,30.5986667 32.644,31.028 C32.644,31.5506667 32.6136667,31.9916667 32.553,32.351 C32.4923333,32.7103333 32.4013333,32.9996667 32.28,33.219 C32.1586667,33.4383333 32.014,33.597 31.846,33.695 C31.678,33.793 31.4913333,33.842 31.286,33.842 Z M38.88,34.528 L38.88,33.982 C38.7493333,33.898 38.6256667,33.8303333 38.509,33.779 C38.3923333,33.7276667 38.2593333,33.6833333 38.11,33.646 L38.11,33.646 L38.11,29.754 C38.2406667,29.362 38.4343333,29.0516667 38.691,28.823 C38.9476667,28.5943333 39.2533333,28.48 39.608,28.48 C40.0373333,28.48 40.336,28.6456667 40.504,28.977 C40.672,29.3083333 40.756,29.768 40.756,30.356 L40.756,30.356 L40.756,33.646 C40.5973333,33.702 40.4596667,33.7556667 40.343,33.807 C40.2263333,33.8583333 40.1073333,33.9166667 39.986,33.982 L39.986,33.982 L39.986,34.528 L43.696,34.528 L43.696,33.982 C43.4533333,33.8233333 43.1453333,33.7113333 42.772,33.646 L42.772,33.646 L42.772,30.3 C42.772,29.7213333 42.7183333,29.243 42.611,28.865 C42.5036667,28.487 42.3496667,28.186 42.149,27.962 C41.9483333,27.738 41.7033333,27.5816667 41.414,27.493 C41.1246667,27.4043333 40.798,27.36 40.434,27.36 C39.874,27.36 39.398,27.5023333 39.006,27.787 C38.614,28.0716667 38.32,28.41 38.124,28.802 L38.124,28.802 L38.11,28.802 L38.11,27.36 L37.634,27.36 C37.438,27.3786667 37.221,27.4043333 36.983,27.437 C36.745,27.4696667 36.5116667,27.5093333 36.283,27.556 C36.0543333,27.6026667 35.842,27.6516667 35.646,27.703 C35.45,27.7543333 35.2913333,27.808 35.17,27.864 L35.17,27.864 L35.17,28.41 L36.094,28.522 L36.094,33.646 C35.7113333,33.7486667 35.4033333,33.8606667 35.17,33.982 L35.17,33.982 L35.17,34.528 L38.88,34.528 Z M46.488,34.696 C47.3653333,34.696 48.0653333,34.5116667 48.588,34.143 C49.1106667,33.7743333 49.372,33.268 49.372,32.624 C49.372,32.26 49.2856667,31.9473333 49.113,31.686 C48.9403333,31.4246667 48.7256667,31.1983333 48.469,31.007 C48.2123333,30.8156667 47.9323333,30.6453333 47.629,30.496 C47.3256667,30.3466667 47.0456667,30.1973333 46.789,30.048 C46.5323333,29.8986667 46.3176667,29.7376667 46.145,29.565 C45.9723333,29.3923333 45.886,29.1893333 45.886,28.956 C45.886,28.7506667 45.9583333,28.5663333 46.103,28.403 C46.2476667,28.2396667 46.46,28.158 46.74,28.158 C46.8893333,28.158 47.0246667,28.165 47.146,28.179 C47.2673333,28.193 47.384,28.2233333 47.496,28.27 L47.496,28.27 L48.084,29.698 L48.56,29.698 C48.6626667,29.418 48.77,29.1076667 48.882,28.767 C48.994,28.4263333 49.0686667,28.1066667 49.106,27.808 C48.7793333,27.668 48.399,27.5583333 47.965,27.479 C47.531,27.3996667 47.062,27.36 46.558,27.36 C46.194,27.36 45.8556667,27.4043333 45.543,27.493 C45.2303333,27.5816667 44.962,27.7053333 44.738,27.864 C44.514,28.0226667 44.3366667,28.2163333 44.206,28.445 C44.0753333,28.6736667 44.01,28.928 44.01,29.208 C44.01,29.6 44.0963333,29.9313333 44.269,30.202 C44.4416667,30.4726667 44.6563333,30.7083333 44.913,30.909 C45.1696667,31.1096667 45.4496667,31.2846667 45.753,31.434 C46.0563333,31.5833333 46.3363333,31.7326667 46.593,31.882 C46.8496667,32.0313333 47.0643333,32.1946667 47.237,32.372 C47.4096667,32.5493333 47.496,32.7593333 47.496,33.002 C47.496,33.282 47.384,33.5013333 47.16,33.66 C46.936,33.8186667 46.6886667,33.898 46.418,33.898 C46.306,33.898 46.187,33.891 46.061,33.877 C45.935,33.863 45.8206667,33.8186667 45.718,33.744 L45.718,33.744 L45.032,32.218 L44.556,32.218 C44.3973333,32.4886667 44.248,32.7966667 44.108,33.142 C43.968,33.4873333 43.8886667,33.828 43.87,34.164 C44.2153333,34.332 44.626,34.4626667 45.102,34.556 C45.578,34.6493333 46.04,34.696 46.488,34.696 Z" id="Wind&amp;Sons" fill="#00000A" fill-rule="nonzero"></path>
                                </g>
                            </g>
                        </g>
                    </g>
                </g>
            </g>
            <rect id="Rectangle" fill="url(#linearGradient-15)" mask="url(#mask-2)" x="0" y="321" width="555" height="67"></rect>
        </g>
    </g>
</svg>