<?xml version="1.0" encoding="UTF-8"?>
<svg width="555px" height="380px" viewBox="0 0 555 380" version="1.1" xmlns="http://www.w3.org/2000/svg" xmlns:xlink="http://www.w3.org/1999/xlink">
    <!-- Generator: Sketch 63.1 (92452) - https://sketch.com -->
    <title>revenue-operations-graphic</title>
    <desc>Created with Sketch.</desc>
    <defs>
        <rect id="path-1" x="0" y="0" width="555" height="380" rx="4"></rect>
        <rect id="path-3" x="48" y="29" width="176" height="104"></rect>
        <filter x="-14.8%" y="-21.2%" width="129.5%" height="150.0%" filterUnits="objectBoundingBox" id="filter-4">
            <feOffset dx="0" dy="4" in="SourceAlpha" result="shadowOffsetOuter1"></feOffset>
            <feGaussianBlur stdDeviation="8" in="shadowOffsetOuter1" result="shadowBlurOuter1"></feGaussianBlur>
            <feComposite in="shadowBlurOuter1" in2="SourceAlpha" operator="out" result="shadowBlurOuter1"></feComposite>
            <feColorMatrix values="0 0 0 0 0   0 0 0 0 0   0 0 0 0 0  0 0 0 0.09 0" type="matrix" in="shadowBlurOuter1"></feColorMatrix>
        </filter>
        <rect id="path-5" x="248" y="29" width="176" height="104" rx="8"></rect>
        <mask id="mask-6" maskContentUnits="userSpaceOnUse" maskUnits="objectBoundingBox" x="0" y="0" width="176" height="104" fill="white">
            <use xlink:href="#path-5"></use>
        </mask>
        <rect id="path-7" x="448" y="29" width="176" height="104" rx="8"></rect>
        <mask id="mask-8" maskContentUnits="userSpaceOnUse" maskUnits="objectBoundingBox" x="0" y="0" width="176" height="104" fill="white">
            <use xlink:href="#path-7"></use>
        </mask>
        <rect id="path-9" x="0" y="0" width="176" height="104"></rect>
        <filter x="-14.8%" y="-21.2%" width="129.5%" height="150.0%" filterUnits="objectBoundingBox" id="filter-10">
            <feOffset dx="0" dy="4" in="SourceAlpha" result="shadowOffsetOuter1"></feOffset>
            <feGaussianBlur stdDeviation="8" in="shadowOffsetOuter1" result="shadowBlurOuter1"></feGaussianBlur>
            <feComposite in="shadowBlurOuter1" in2="SourceAlpha" operator="out" result="shadowBlurOuter1"></feComposite>
            <feColorMatrix values="0 0 0 0 0   0 0 0 0 0   0 0 0 0 0  0 0 0 0.09 0" type="matrix" in="shadowBlurOuter1"></feColorMatrix>
        </filter>
        <rect id="path-11" x="0" y="0" width="176" height="104"></rect>
        <filter x="-14.8%" y="-21.2%" width="129.5%" height="150.0%" filterUnits="objectBoundingBox" id="filter-12">
            <feOffset dx="0" dy="4" in="SourceAlpha" result="shadowOffsetOuter1"></feOffset>
            <feGaussianBlur stdDeviation="8" in="shadowOffsetOuter1" result="shadowBlurOuter1"></feGaussianBlur>
            <feComposite in="shadowBlurOuter1" in2="SourceAlpha" operator="out" result="shadowBlurOuter1"></feComposite>
            <feColorMatrix values="0 0 0 0 0   0 0 0 0 0   0 0 0 0 0  0 0 0 0.09 0" type="matrix" in="shadowBlurOuter1"></feColorMatrix>
        </filter>
        <path d="M42,77 C68,63 87.6666667,56 101,56 C114.333333,56 135,48.6666667 163,34 C184.333333,22 203.666667,26.6666667 221,48 C238.333333,69.3333333 258.333333,62 281,26 C291,11.3333333 310.666667,9 340,19 C369.333333,29 390,22.6666667 402,0" id="path-13"></path>
        <filter x="-3.8%" y="-12.8%" width="107.7%" height="136.0%" filterUnits="objectBoundingBox" id="filter-14">
            <feMorphology radius="1" operator="dilate" in="SourceAlpha" result="shadowSpreadOuter1"></feMorphology>
            <feOffset dx="0" dy="4" in="shadowSpreadOuter1" result="shadowOffsetOuter1"></feOffset>
            <feMorphology radius="1" operator="erode" in="SourceAlpha" result="shadowInner"></feMorphology>
            <feOffset dx="0" dy="4" in="shadowInner" result="shadowInner"></feOffset>
            <feComposite in="shadowOffsetOuter1" in2="shadowInner" operator="out" result="shadowOffsetOuter1"></feComposite>
            <feGaussianBlur stdDeviation="3.5" in="shadowOffsetOuter1" result="shadowBlurOuter1"></feGaussianBlur>
            <feColorMatrix values="0 0 0 0 0   0 0 0 0 0.480295599   0 0 0 0 0  0 0 0 1 0" type="matrix" in="shadowBlurOuter1"></feColorMatrix>
        </filter>
        <path d="M10,0 L140,0 C142.209139,-4.05812251e-16 144,1.790861 144,4 L144,164 C144,166.209139 142.209139,168 140,168 L10,168 C7.790861,168 6,166.209139 6,164 L6,35.4641308 L6,35.4641308 L0,30.4826346 L6,25.8187334 L6,4 C6,1.790861 7.790861,4.05812251e-16 10,0 Z" id="path-15"></path>
        <filter x="-27.8%" y="-19.0%" width="155.6%" height="147.6%" filterUnits="objectBoundingBox" id="filter-16">
            <feOffset dx="0" dy="4" in="SourceAlpha" result="shadowOffsetOuter1"></feOffset>
            <feGaussianBlur stdDeviation="8" in="shadowOffsetOuter1" result="shadowBlurOuter1"></feGaussianBlur>
            <feComposite in="shadowBlurOuter1" in2="SourceAlpha" operator="out" result="shadowBlurOuter1"></feComposite>
            <feColorMatrix values="0 0 0 0 0   0 0 0 0 0   0 0 0 0 0  0 0 0 0.09 0" type="matrix" in="shadowBlurOuter1" result="shadowMatrixOuter1"></feColorMatrix>
            <feOffset dx="0" dy="8" in="SourceAlpha" result="shadowOffsetOuter2"></feOffset>
            <feGaussianBlur stdDeviation="12" in="shadowOffsetOuter2" result="shadowBlurOuter2"></feGaussianBlur>
            <feComposite in="shadowBlurOuter2" in2="SourceAlpha" operator="out" result="shadowBlurOuter2"></feComposite>
            <feColorMatrix values="0 0 0 0 0   0 0 0 0 0   0 0 0 0 0  0 0 0 0.24 0" type="matrix" in="shadowBlurOuter2" result="shadowMatrixOuter2"></feColorMatrix>
            <feMerge>
                <feMergeNode in="shadowMatrixOuter1"></feMergeNode>
                <feMergeNode in="shadowMatrixOuter2"></feMergeNode>
            </feMerge>
        </filter>
        <linearGradient x1="50%" y1="0%" x2="50%" y2="100%" id="linearGradient-17">
            <stop stop-color="#FFFFFF" stop-opacity="0" offset="0%"></stop>
            <stop stop-color="#FFFFFF" offset="100%"></stop>
        </linearGradient>
        <linearGradient x1="50%" y1="0%" x2="50%" y2="100%" id="linearGradient-18">
            <stop stop-color="#FFFFFF" stop-opacity="0" offset="0%"></stop>
            <stop stop-color="#FFFFFF" offset="100%"></stop>
        </linearGradient>
    </defs>
    <g id="March-Spring-Release" stroke="none" stroke-width="1" fill="none" fill-rule="evenodd">
        <g id="revenue-operations-graphic">
            <mask id="mask-2" fill="white">
                <use xlink:href="#path-1"></use>
            </mask>
            <use id="Mask" fill-opacity="0.01" fill="#FFFFFF" xlink:href="#path-1"></use>
            <g id="Rectangle" mask="url(#mask-2)">
                <use fill="black" fill-opacity="1" filter="url(#filter-4)" xlink:href="#path-3"></use>
                <rect stroke="#EFEFF1" stroke-width="1" stroke-linejoin="square" fill="#FFFFFF" fill-rule="evenodd" x="48.5" y="29.5" width="175" height="103"></rect>
            </g>
            <g id="Group-56" mask="url(#mask-2)">
                <g transform="translate(64.000000, 49.000000)">
                    <rect id="Rectangle" fill="#E1F2FF" fill-rule="evenodd" x="0" y="57" width="69" height="5" rx="2.5"></rect>
                    <path d="M2.03,10 L2.03,2.006 L2.142,2.006 L4.2,7.032 L6.258,2.006 L6.37,2.006 L6.37,10 L7.448,10 L7.448,0.228 L5.992,0.228 L4.27,4.54 L4.186,4.54 L2.464,0.228 L0.952,0.228 L0.952,10 L2.03,10 Z M10.836,10 L10.836,5.828 L12.39,5.828 L14.77,10 L16.086,10 L13.594,5.772 C15.148,5.618 16.002,4.61 16.002,3.042 C16.002,1.278 15.022,0.228 13.216,0.228 L9.66,0.228 L9.66,10 L10.836,10 Z M13.188,4.834 L10.836,4.834 L10.836,1.25 L13.188,1.25 C14.168,1.25 14.756,1.768 14.756,2.678 L14.756,3.406 C14.756,4.316 14.168,4.834 13.188,4.834 Z M19.236,10 L19.236,5.828 L20.79,5.828 L23.17,10 L24.486,10 L21.994,5.772 C23.548,5.618 24.402,4.61 24.402,3.042 C24.402,1.278 23.422,0.228 21.616,0.228 L18.06,0.228 L18.06,10 L19.236,10 Z M21.588,4.834 L19.236,4.834 L19.236,1.25 L21.588,1.25 C22.568,1.25 23.156,1.768 23.156,2.678 L23.156,3.406 C23.156,4.316 22.568,4.834 21.588,4.834 Z" id="MRR" fill="#00000B" fill-rule="nonzero"></path>
                    <path d="M24.68,43.96 C24.4,43.4666667 24.1466667,42.8733333 23.92,42.18 C23.6933333,41.4866667 23.5,40.76 23.34,40 C23.18,39.24 23.0533333,38.4666667 22.96,37.68 C22.8666667,36.8933333 22.82,36.16 22.82,35.48 C22.82,34.8 22.8666667,34.0666667 22.96,33.28 C23.0533333,32.4933333 23.18,31.72 23.34,30.96 C23.5,30.2 23.6933333,29.4766667 23.92,28.79 C24.1466667,28.1033333 24.4,27.5066667 24.68,27 L24.68,27 L22.42,27 C21.78,28.1466667 21.26,29.4266667 20.86,30.84 C20.46,32.2533333 20.26,33.8 20.26,35.48 C20.26,37.16 20.46,38.7066667 20.86,40.12 C21.26,41.5333333 21.78,42.8133333 22.42,43.96 L22.42,43.96 L24.68,43.96 Z M33.88,43 L33.88,41.22 C34.56,41.14 35.1633333,40.97 35.69,40.71 C36.2166667,40.45 36.6666667,40.13 37.04,39.75 C37.4133333,39.37 37.6966667,38.9433333 37.89,38.47 C38.0833333,37.9966667 38.18,37.5 38.18,36.98 C38.18,35.8333333 37.8233333,34.9233333 37.11,34.25 C36.3966667,33.5766667 35.32,33.0733333 33.88,32.74 L33.88,32.74 L33.88,29.2 C34.8133333,29.5866667 35.4733333,30.36 35.86,31.52 L35.86,31.52 L37.94,30.32 C37.5666667,29.32 37.0366667,28.5333333 36.35,27.96 C35.6633333,27.3866667 34.84,27.0133333 33.88,26.84 L33.88,26.84 L33.88,25 L31.8,25 L31.8,26.76 C31.1733333,26.8266667 30.6066667,26.9633333 30.1,27.17 C29.5933333,27.3766667 29.16,27.6433333 28.8,27.97 C28.44,28.2966667 28.1633333,28.68 27.97,29.12 C27.7766667,29.56 27.68,30.04 27.68,30.56 C27.68,31.1333333 27.7833333,31.6466667 27.99,32.1 C28.1966667,32.5533333 28.48,32.95 28.84,33.29 C29.2,33.63 29.6333333,33.9166667 30.14,34.15 C30.6466667,34.3833333 31.2,34.5666667 31.8,34.7 L31.8,34.7 L31.8,38.82 C31.1066667,38.62 30.57,38.2466667 30.19,37.7 C29.81,37.1533333 29.5466667,36.46 29.4,35.62 L29.4,35.62 L27.08,36.8 C27.2,37.36 27.3833333,37.8866667 27.63,38.38 C27.8766667,38.8733333 28.1933333,39.3133333 28.58,39.7 C28.9666667,40.0866667 29.43,40.41 29.97,40.67 C30.51,40.93 31.12,41.1066667 31.8,41.2 L31.8,41.2 L31.8,43 L33.88,43 Z M31.8,32.2 C31.24,31.9866667 30.8333333,31.7466667 30.58,31.48 C30.3266667,31.2133333 30.2,30.8866667 30.2,30.5 C30.2,30.0733333 30.3466667,29.74 30.64,29.5 C30.9333333,29.26 31.32,29.1 31.8,29.02 L31.8,29.02 L31.8,32.2 Z M33.88,38.86 L33.88,35.24 C34.4266667,35.44 34.84,35.6866667 35.12,35.98 C35.4,36.2733333 35.54,36.64 35.54,37.08 C35.54,37.52 35.39,37.8966667 35.09,38.21 C34.79,38.5233333 34.3866667,38.74 33.88,38.86 L33.88,38.86 Z M45.26,41.28 C46.0066667,41.28 46.6933333,41.1766667 47.32,40.97 C47.9466667,40.7633333 48.4833333,40.4666667 48.93,40.08 C49.3766667,39.6933333 49.7266667,39.2233333 49.98,38.67 C50.2333333,38.1166667 50.36,37.5 50.36,36.82 C50.36,36.34 50.2866667,35.91 50.14,35.53 C49.9933333,35.15 49.7966667,34.8166667 49.55,34.53 C49.3033333,34.2433333 49.0133333,33.9966667 48.68,33.79 C48.3466667,33.5833333 48,33.42 47.64,33.3 C48.2266667,33.0466667 48.7166667,32.65 49.11,32.11 C49.5033333,31.57 49.7,30.92 49.7,30.16 C49.7,29.6666667 49.61,29.21 49.43,28.79 C49.25,28.37 48.9733333,28.0066667 48.6,27.7 C48.2266667,27.3933333 47.7566667,27.1533333 47.19,26.98 C46.6233333,26.8066667 45.96,26.72 45.2,26.72 C44.48,26.72 43.8366667,26.8266667 43.27,27.04 C42.7033333,27.2533333 42.2233333,27.54 41.83,27.9 C41.4366667,28.26 41.1366667,28.6766667 40.93,29.15 C40.7233333,29.6233333 40.62,30.1133333 40.62,30.62 C40.62,30.82 40.64,31.0166667 40.68,31.21 C40.72,31.4033333 40.7666667,31.5733333 40.82,31.72 L40.82,31.72 L43.26,31.18 C43.2333333,31.1133333 43.2066667,31.0166667 43.18,30.89 C43.1533333,30.7633333 43.14,30.6333333 43.14,30.5 C43.14,29.9933333 43.3333333,29.5966667 43.72,29.31 C44.1066667,29.0233333 44.5933333,28.88 45.18,28.88 C45.78,28.88 46.2566667,29.03 46.61,29.33 C46.9633333,29.63 47.14,30.0266667 47.14,30.52 C47.14,31.16 46.8833333,31.6566667 46.37,32.01 C45.8566667,32.3633333 45.1133333,32.54 44.14,32.54 L44.14,32.54 L44.14,34.5 C44.6466667,34.5 45.1166667,34.54 45.55,34.62 C45.9833333,34.7 46.36,34.8333333 46.68,35.02 C47,35.2066667 47.2533333,35.4466667 47.44,35.74 C47.6266667,36.0333333 47.72,36.3933333 47.72,36.82 C47.72,37.5533333 47.49,38.1066667 47.03,38.48 C46.57,38.8533333 45.98,39.04 45.26,39.04 C44.5533333,39.04 43.98,38.85 43.54,38.47 C43.1,38.09 42.88,37.58 42.88,36.94 C42.88,36.7933333 42.8866667,36.6766667 42.9,36.59 C42.9133333,36.5033333 42.9333333,36.4266667 42.96,36.36 L42.96,36.36 L40.46,35.76 C40.3933333,35.9333333 40.34,36.1366667 40.3,36.37 C40.26,36.6033333 40.24,36.8133333 40.24,37 C40.24,37.56 40.3466667,38.1 40.56,38.62 C40.7733333,39.14 41.09,39.5966667 41.51,39.99 C41.93,40.3833333 42.4533333,40.6966667 43.08,40.93 C43.7066667,41.1633333 44.4333333,41.28 45.26,41.28 Z M54.28,41 L54.28,38.32 L51.6,38.32 L51.6,41 L54.28,41 Z M60.4,41.28 C61.5466667,41.28 62.5433333,40.9866667 63.39,40.4 C64.2366667,39.8133333 64.8733333,38.9733333 65.3,37.88 C65.54,37.2666667 65.74,36.5766667 65.9,35.81 C66.06,35.0433333 66.14,34.1666667 66.14,33.18 C66.14,31.1133333 65.6766667,29.52 64.75,28.4 C63.8233333,27.28 62.4666667,26.72 60.68,26.72 C59.92,26.72 59.22,26.84 58.58,27.08 C57.94,27.32 57.39,27.6566667 56.93,28.09 C56.47,28.5233333 56.1133333,29.03 55.86,29.61 C55.6066667,30.19 55.48,30.82 55.48,31.5 C55.48,32.18 55.6,32.8066667 55.84,33.38 C56.08,33.9533333 56.4166667,34.4433333 56.85,34.85 C57.2833333,35.2566667 57.8033333,35.5766667 58.41,35.81 C59.0166667,36.0433333 59.6866667,36.16 60.42,36.16 C61.22,36.16 61.8833333,36.0133333 62.41,35.72 C62.9366667,35.4266667 63.3466667,35.0866667 63.64,34.7 C63.5333333,36.14 63.2,37.2566667 62.64,38.05 C62.08,38.8433333 61.36,39.24 60.48,39.24 C59.96,39.24 59.5033333,39.1266667 59.11,38.9 C58.7166667,38.6733333 58.52,38.3266667 58.52,37.86 C58.52,37.74 58.53,37.6366667 58.55,37.55 C58.57,37.4633333 58.6066667,37.3533333 58.66,37.22 L58.66,37.22 L56.18,36.68 C56.1266667,36.8266667 56.0833333,36.9866667 56.05,37.16 C56.0166667,37.3333333 56,37.5266667 56,37.74 C56,38.2333333 56.0933333,38.6966667 56.28,39.13 C56.4666667,39.5633333 56.7466667,39.94 57.12,40.26 C57.4933333,40.58 57.9533333,40.83 58.5,41.01 C59.0466667,41.19 59.68,41.28 60.4,41.28 Z M60.74,34 C60.3933333,34 60.0566667,33.9433333 59.73,33.83 C59.4033333,33.7166667 59.1133333,33.55 58.86,33.33 C58.6066667,33.11 58.4066667,32.84 58.26,32.52 C58.1133333,32.2 58.04,31.84 58.04,31.44 C58.04,31.04 58.1133333,30.68 58.26,30.36 C58.4066667,30.04 58.6066667,29.77 58.86,29.55 C59.1133333,29.33 59.4033333,29.1633333 59.73,29.05 C60.0566667,28.9366667 60.3933333,28.88 60.74,28.88 C61.0866667,28.88 61.42,28.9366667 61.74,29.05 C62.06,29.1633333 62.34,29.33 62.58,29.55 C62.82,29.77 63.0133333,30.04 63.16,30.36 C63.3066667,30.68 63.38,31.04 63.38,31.44 C63.38,31.84 63.3066667,32.2 63.16,32.52 C63.0133333,32.84 62.82,33.11 62.58,33.33 C62.34,33.55 62.06,33.7166667 61.74,33.83 C61.42,33.9433333 61.0866667,34 60.74,34 Z M73.56,41 L73.56,27 L71.08,27 C70.7733333,27.5866667 70.3833333,28.0266667 69.91,28.32 C69.4366667,28.6133333 68.7933333,28.76 67.98,28.76 L67.98,28.76 L67.98,31.2 C68.62,31.2 69.1733333,31.14 69.64,31.02 C70.1066667,30.9 70.5333333,30.6466667 70.92,30.26 L70.92,30.26 L70.92,41 L73.56,41 Z M78.96,41 L78.96,32.44 C78.9866667,32.5333333 79.0366667,32.6966667 79.11,32.93 C79.1833333,33.1633333 79.26,33.4 79.34,33.64 C79.4333333,33.9333333 79.5333333,34.2466667 79.64,34.58 L79.64,34.58 L82.38,41 L84.9,41 L87.64,34.58 C87.7466667,34.2466667 87.8466667,33.9333333 87.94,33.64 C88.02,33.4 88.0966667,33.1633333 88.17,32.93 C88.2433333,32.6966667 88.2933333,32.5333333 88.32,32.44 L88.32,32.44 L88.32,41 L90.88,41 L90.88,27 L88.1,27 L83.64,38.12 L79.18,27 L76.4,27 L76.4,41 L78.96,41 Z M96.12,43.96 C96.76,42.8133333 97.28,41.5333333 97.68,40.12 C98.08,38.7066667 98.28,37.16 98.28,35.48 C98.28,33.8 98.08,32.2533333 97.68,30.84 C97.28,29.4266667 96.76,28.1466667 96.12,27 L96.12,27 L93.86,27 C94.14,27.5066667 94.3933333,28.1033333 94.62,28.79 C94.8466667,29.4766667 95.04,30.2 95.2,30.96 C95.36,31.72 95.4866667,32.4933333 95.58,33.28 C95.6733333,34.0666667 95.72,34.8 95.72,35.48 C95.72,36.16 95.6733333,36.8933333 95.58,37.68 C95.4866667,38.4666667 95.36,39.24 95.2,40 C95.04,40.76 94.8466667,41.4866667 94.62,42.18 C94.3933333,42.8733333 94.14,43.4666667 93.86,43.96 L93.86,43.96 L96.12,43.96 Z" id="($3.91M)" fill="#007400" fill-rule="nonzero"></path>
                    <polygon id="↑" fill="#067114" fill-rule="nonzero" points="7.8 41.646 7.8 33.378 10.79 36.368 12.376 34.782 6.734 29.114 1.092 34.782 2.678 36.368 5.668 33.378 5.668 41.646"></polygon>
                </g>
            </g>
            <rect id="Rectangle-Copy-12" stroke="#EBF2FE" stroke-width="2" fill="#FFFFFF" mask="url(#mask-2)" x="49" y="170" width="374" height="214"></rect>
            <text id="15" opacity="0.5" mask="url(#mask-2)" font-family="IBMPlexMono, IBM Plex Mono" font-size="10" font-weight="normal" line-spacing="14" fill="#2D3650">
                <tspan x="64" y="301">15</tspan>
            </text>
            <text id="25" opacity="0.5" mask="url(#mask-2)" font-family="IBMPlexMono, IBM Plex Mono" font-size="10" font-weight="normal" line-spacing="14" fill="#2D3650">
                <tspan x="64" y="268">25</tspan>
            </text>
            <text id="35" opacity="0.5" mask="url(#mask-2)" font-family="IBMPlexMono, IBM Plex Mono" font-size="10" font-weight="normal" line-spacing="14" fill="#2D3650">
                <tspan x="64" y="235">35</tspan>
            </text>
            <text id="Sept" opacity="0.5" mask="url(#mask-2)" font-family="IBMPlexMono, IBM Plex Mono" font-size="10" font-weight="normal" line-spacing="14" fill="#2D3650">
                <tspan x="259" y="349">Sept</tspan>
            </text>
            <text id="Oct" opacity="0.5" mask="url(#mask-2)" font-family="IBMPlexMono, IBM Plex Mono" font-size="10" font-weight="normal" line-spacing="14" fill="#2D3650">
                <tspan x="315" y="349">Oct</tspan>
            </text>
            <text id="Nov" opacity="0.5" mask="url(#mask-2)" font-family="IBMPlexMono, IBM Plex Mono" font-size="10" font-weight="normal" line-spacing="14" fill="#2D3650">
                <tspan x="365" y="349">Nov</tspan>
            </text>
            <line x1="63.4054726" y1="309.5" x2="388.619805" y2="309.5" id="Line-4-Copy" stroke="#AAC0D7" stroke-linecap="square" stroke-dasharray="2,6" mask="url(#mask-2)"></line>
            <line x1="63.4054726" y1="276.5" x2="388.619805" y2="276.5" id="Line-4-Copy-2" stroke="#AAC0D7" stroke-linecap="square" stroke-dasharray="2,6" mask="url(#mask-2)"></line>
            <line x1="63.4054726" y1="243.5" x2="388.619805" y2="243.5" id="Line-4-Copy-3" stroke="#AAC0D7" stroke-linecap="square" stroke-dasharray="2,6" mask="url(#mask-2)"></line>
            <rect id="Rectangle-Copy-15" stroke="#EBF2FE" stroke-width="2" fill="#FFFFFF" mask="url(#mask-2)" x="449" y="170" width="444" height="214"></rect>
            <path d="M466.436,199 L466.436,194.562 L471,194.562 L471,193.54 L466.436,193.54 L466.436,190.25 L471.42,190.25 L471.42,189.228 L465.26,189.228 L465.26,199 L466.436,199 Z M479.512,199 L479.512,198.048 L476.712,198.048 L476.712,194.926 C476.712,193.806 477.454,192.896 478.868,192.896 L480.226,192.896 L480.226,191.776 L479.218,191.776 C477.706,191.776 477.062,192.644 476.782,193.596 L476.712,193.596 L476.712,191.776 L473.478,191.776 L473.478,192.728 L475.592,192.728 L475.592,198.048 L473.478,198.048 L473.478,199 L479.512,199 Z M485.126,199.168 C486.554,199.168 487.59,198.468 488.024,197.502 L487.198,196.942 C486.82,197.726 486.092,198.202 485.126,198.202 C483.768,198.202 482.914,197.278 482.914,196.004 L482.914,195.668 L488.262,195.668 L488.262,195.136 C488.262,193.092 487.002,191.608 485.056,191.608 C483.096,191.608 481.738,193.092 481.738,195.402 C481.738,197.684 483.054,199.168 485.126,199.168 Z M487.058,194.828 L482.914,194.828 L482.914,194.73 C482.914,193.47 483.824,192.532 485.056,192.532 C486.246,192.532 487.058,193.4 487.058,194.674 L487.058,194.828 Z M493.526,199.168 C494.954,199.168 495.99,198.468 496.424,197.502 L495.598,196.942 C495.22,197.726 494.492,198.202 493.526,198.202 C492.168,198.202 491.314,197.278 491.314,196.004 L491.314,195.668 L496.662,195.668 L496.662,195.136 C496.662,193.092 495.402,191.608 493.456,191.608 C491.496,191.608 490.138,193.092 490.138,195.402 C490.138,197.684 491.454,199.168 493.526,199.168 Z M495.458,194.828 L491.314,194.828 L491.314,194.73 C491.314,193.47 492.224,192.532 493.456,192.532 C494.646,192.532 495.458,193.4 495.458,194.674 L495.458,194.828 Z M513.364,199 L513.364,198.048 L510.074,198.048 L510.074,192.728 L513.364,192.728 L513.364,191.776 L510.074,191.776 L510.074,189.228 L508.996,189.228 L508.996,191.118 C508.996,191.608 508.814,191.776 508.338,191.776 L506.546,191.776 L506.546,192.728 L508.954,192.728 L508.954,197.348 C508.954,198.314 509.458,199 510.55,199 L513.364,199 Z M518.6,199.168 C520.63,199.168 521.876,197.684 521.876,195.388 C521.876,193.092 520.63,191.608 518.6,191.608 C516.57,191.608 515.324,193.092 515.324,195.388 C515.324,197.684 516.57,199.168 518.6,199.168 Z M518.6,198.202 C517.354,198.202 516.514,197.46 516.514,195.906 L516.514,194.87 C516.514,193.316 517.354,192.574 518.6,192.574 C519.846,192.574 520.686,193.316 520.686,194.87 L520.686,195.906 C520.686,197.46 519.846,198.202 518.6,198.202 Z M533.636,199 L533.636,194.856 L536.016,194.856 C537.822,194.856 538.802,193.806 538.802,192.042 C538.802,190.278 537.822,189.228 536.016,189.228 L532.46,189.228 L532.46,199 L533.636,199 Z M535.988,193.834 L533.636,193.834 L533.636,190.25 L535.988,190.25 C536.968,190.25 537.556,190.768 537.556,191.678 L537.556,192.406 C537.556,193.316 536.968,193.834 535.988,193.834 Z M543.002,199.168 C544.178,199.168 544.864,198.65 545.172,197.824 L545.242,197.824 C545.326,198.496 545.662,199 546.53,199 L547.3,199 L547.3,198.02 L546.292,198.02 L546.292,194.044 C546.292,192.518 545.214,191.608 543.52,191.608 C542.05,191.608 541.126,192.308 540.762,193.064 L541.518,193.624 C541.896,192.966 542.484,192.56 543.45,192.56 C544.542,192.56 545.172,193.106 545.172,194.156 L545.172,194.87 L543.632,194.87 C541.462,194.87 540.524,195.64 540.524,196.97 C540.524,198.328 541.49,199.168 543.002,199.168 Z M543.198,198.23 C542.274,198.23 541.7,197.838 541.7,197.096 L541.7,196.802 C541.7,196.102 542.302,195.71 543.632,195.71 L545.172,195.71 L545.172,196.9 C545.172,197.642 544.346,198.23 543.198,198.23 Z M552.648,190.18 C553.292,190.18 553.53,189.872 553.53,189.466 L553.53,189.242 C553.53,188.836 553.292,188.528 552.648,188.528 C552.004,188.528 551.766,188.836 551.766,189.242 L551.766,189.466 C551.766,189.872 552.004,190.18 552.648,190.18 Z M555.644,199 L555.644,198.048 L553.208,198.048 L553.208,191.776 L549.484,191.776 L549.484,192.728 L552.088,192.728 L552.088,198.048 L549.484,198.048 L549.484,199 L555.644,199 Z M560.068,199.168 C561.076,199.168 561.832,198.706 562.294,197.824 L562.35,197.824 L562.35,199 L563.47,199 L563.47,188.64 L562.35,188.64 L562.35,192.952 L562.294,192.952 C561.832,192.07 561.076,191.608 560.068,191.608 C558.304,191.608 557.24,193.022 557.24,195.388 C557.24,197.754 558.304,199.168 560.068,199.168 Z M560.502,198.174 C559.2,198.174 558.444,197.306 558.444,196.004 L558.444,194.772 C558.444,193.47 559.2,192.602 560.502,192.602 C561.496,192.602 562.35,193.12 562.35,194.086 L562.35,196.69 C562.35,197.656 561.496,198.174 560.502,198.174 Z M575.23,199 L575.23,191.006 L575.342,191.006 L577.4,196.032 L579.458,191.006 L579.57,191.006 L579.57,199 L580.648,199 L580.648,189.228 L579.192,189.228 L577.47,193.54 L577.386,193.54 L575.664,189.228 L574.152,189.228 L574.152,199 L575.23,199 Z M584.036,199 L584.036,194.828 L585.59,194.828 L587.97,199 L589.286,199 L586.794,194.772 C588.348,194.618 589.202,193.61 589.202,192.042 C589.202,190.278 588.222,189.228 586.416,189.228 L582.86,189.228 L582.86,199 L584.036,199 Z M586.388,193.834 L584.036,193.834 L584.036,190.25 L586.388,190.25 C587.368,190.25 587.956,190.768 587.956,191.678 L587.956,192.406 C587.956,193.316 587.368,193.834 586.388,193.834 Z M592.436,199 L592.436,194.828 L593.99,194.828 L596.37,199 L597.686,199 L595.194,194.772 C596.748,194.618 597.602,193.61 597.602,192.042 C597.602,190.278 596.622,189.228 594.816,189.228 L591.26,189.228 L591.26,199 L592.436,199 Z M594.788,193.834 L592.436,193.834 L592.436,190.25 L594.788,190.25 C595.768,190.25 596.356,190.768 596.356,191.678 L596.356,192.406 C596.356,193.316 595.768,193.834 594.788,193.834 Z M610.734,199.168 C612.078,199.168 612.624,198.454 612.946,197.698 L613.016,197.698 L613.016,199 L614.108,199 L614.108,194.17 L610.958,194.17 L610.958,195.108 L613.016,195.108 L613.016,196.116 C613.016,197.32 612.26,198.174 611,198.174 C609.404,198.174 608.83,196.788 608.83,194.828 L608.83,193.316 C608.83,191.356 609.544,190.082 611.112,190.082 C612.288,190.082 612.75,190.796 613.1,191.664 L614.108,191.202 C613.688,190.138 612.904,189.06 611.07,189.06 C608.718,189.06 607.584,190.852 607.584,194.184 C607.584,197.376 608.62,199.168 610.734,199.168 Z M622.312,199 L622.312,198.048 L619.512,198.048 L619.512,194.926 C619.512,193.806 620.254,192.896 621.668,192.896 L623.026,192.896 L623.026,191.776 L622.018,191.776 C620.506,191.776 619.862,192.644 619.582,193.596 L619.512,193.596 L619.512,191.776 L616.278,191.776 L616.278,192.728 L618.392,192.728 L618.392,198.048 L616.278,198.048 L616.278,199 L622.312,199 Z M627.8,199.168 C629.83,199.168 631.076,197.684 631.076,195.388 C631.076,193.092 629.83,191.608 627.8,191.608 C625.77,191.608 624.524,193.092 624.524,195.388 C624.524,197.684 625.77,199.168 627.8,199.168 Z M627.8,198.202 C626.554,198.202 625.714,197.46 625.714,195.906 L625.714,194.87 C625.714,193.316 626.554,192.574 627.8,192.574 C629.046,192.574 629.886,193.316 629.886,194.87 L629.886,195.906 C629.886,197.46 629.046,198.202 627.8,198.202 Z M634.982,199 L636.158,192.952 L636.27,192.952 L637.418,199 L638.874,199 L639.98,191.776 L639.014,191.776 L638.188,198.02 L638.062,198.02 L636.83,191.776 L635.598,191.776 L634.366,198.02 L634.24,198.02 L633.414,191.776 L632.42,191.776 L633.526,199 L634.982,199 Z M647.764,199 L647.764,198.048 L644.474,198.048 L644.474,192.728 L647.764,192.728 L647.764,191.776 L644.474,191.776 L644.474,189.228 L643.396,189.228 L643.396,191.118 C643.396,191.608 643.214,191.776 642.738,191.776 L640.946,191.776 L640.946,192.728 L643.354,192.728 L643.354,197.348 C643.354,198.314 643.858,199 644.95,199 L647.764,199 Z M651.292,199 L651.292,193.988 C651.292,193.036 652.188,192.602 653.084,192.602 C654.19,192.602 654.792,193.246 654.792,194.562 L654.792,199 L655.912,199 L655.912,194.366 C655.912,192.616 654.918,191.608 653.406,191.608 C652.216,191.608 651.656,192.238 651.348,192.952 L651.292,192.952 L651.292,188.64 L650.172,188.64 L650.172,199 L651.292,199 Z M670.122,199.168 C671.914,199.168 672.656,198.09 673.132,197.026 L672.124,196.564 C671.774,197.432 671.312,198.146 670.122,198.146 C668.568,198.146 667.826,196.872 667.826,194.912 L667.826,193.316 C667.826,191.356 668.568,190.082 670.122,190.082 C671.312,190.082 671.774,190.796 672.124,191.664 L673.132,191.202 C672.656,190.138 671.914,189.06 670.122,189.06 C667.742,189.06 666.58,190.866 666.58,194.114 C666.58,197.362 667.742,199.168 670.122,199.168 Z M676.492,199 L676.492,193.988 C676.492,193.036 677.388,192.602 678.284,192.602 C679.39,192.602 679.992,193.246 679.992,194.562 L679.992,199 L681.112,199 L681.112,194.366 C681.112,192.616 680.118,191.608 678.606,191.608 C677.416,191.608 676.856,192.238 676.548,192.952 L676.492,192.952 L676.492,188.64 L675.372,188.64 L675.372,199 L676.492,199 Z M685.802,199.168 C686.978,199.168 687.664,198.65 687.972,197.824 L688.042,197.824 C688.126,198.496 688.462,199 689.33,199 L690.1,199 L690.1,198.02 L689.092,198.02 L689.092,194.044 C689.092,192.518 688.014,191.608 686.32,191.608 C684.85,191.608 683.926,192.308 683.562,193.064 L684.318,193.624 C684.696,192.966 685.284,192.56 686.25,192.56 C687.342,192.56 687.972,193.106 687.972,194.156 L687.972,194.87 L686.432,194.87 C684.262,194.87 683.324,195.64 683.324,196.97 C683.324,198.328 684.29,199.168 685.802,199.168 Z M685.998,198.23 C685.074,198.23 684.5,197.838 684.5,197.096 L684.5,196.802 C684.5,196.102 685.102,195.71 686.432,195.71 L687.972,195.71 L687.972,196.9 C687.972,197.642 687.146,198.23 685.998,198.23 Z M697.912,199 L697.912,198.048 L695.112,198.048 L695.112,194.926 C695.112,193.806 695.854,192.896 697.268,192.896 L698.626,192.896 L698.626,191.776 L697.618,191.776 C696.106,191.776 695.462,192.644 695.182,193.596 L695.112,193.596 L695.112,191.776 L691.878,191.776 L691.878,192.728 L693.992,192.728 L693.992,198.048 L691.878,198.048 L691.878,199 L697.912,199 Z M706.564,199 L706.564,198.048 L703.274,198.048 L703.274,192.728 L706.564,192.728 L706.564,191.776 L703.274,191.776 L703.274,189.228 L702.196,189.228 L702.196,191.118 C702.196,191.608 702.014,191.776 701.538,191.776 L699.746,191.776 L699.746,192.728 L702.154,192.728 L702.154,197.348 C702.154,198.314 702.658,199 703.75,199 L706.564,199 Z" id="FreetoPaidMRRGrowthChart" fill="#00000B" fill-rule="nonzero" mask="url(#mask-2)"></path>
            <path d="M66.184,199 L66.184,190.726 L66.282,190.726 L69.614,199 L71.28,199 L71.28,189.228 L70.216,189.228 L70.216,197.418 L70.118,197.418 L66.786,189.228 L65.12,189.228 L65.12,199 L66.184,199 Z M76.726,199.168 C78.154,199.168 79.19,198.468 79.624,197.502 L78.798,196.942 C78.42,197.726 77.692,198.202 76.726,198.202 C75.368,198.202 74.514,197.278 74.514,196.004 L74.514,195.668 L79.862,195.668 L79.862,195.136 C79.862,193.092 78.602,191.608 76.656,191.608 C74.696,191.608 73.338,193.092 73.338,195.402 C73.338,197.684 74.654,199.168 76.726,199.168 Z M78.658,194.828 L74.514,194.828 L74.514,194.73 C74.514,193.47 75.424,192.532 76.656,192.532 C77.846,192.532 78.658,193.4 78.658,194.674 L78.658,194.828 Z M83.782,199 L84.958,192.952 L85.07,192.952 L86.218,199 L87.674,199 L88.78,191.776 L87.814,191.776 L86.988,198.02 L86.862,198.02 L85.63,191.776 L84.398,191.776 L83.166,198.02 L83.04,198.02 L82.214,191.776 L81.22,191.776 L82.326,199 L83.782,199 Z M100.036,199 L100.036,194.856 L102.416,194.856 C104.222,194.856 105.202,193.806 105.202,192.042 C105.202,190.278 104.222,189.228 102.416,189.228 L98.86,189.228 L98.86,199 L100.036,199 Z M102.388,193.834 L100.036,193.834 L100.036,190.25 L102.388,190.25 C103.368,190.25 103.956,190.768 103.956,191.678 L103.956,192.406 C103.956,193.316 103.368,193.834 102.388,193.834 Z M109.402,199.168 C110.578,199.168 111.264,198.65 111.572,197.824 L111.642,197.824 C111.726,198.496 112.062,199 112.93,199 L113.7,199 L113.7,198.02 L112.692,198.02 L112.692,194.044 C112.692,192.518 111.614,191.608 109.92,191.608 C108.45,191.608 107.526,192.308 107.162,193.064 L107.918,193.624 C108.296,192.966 108.884,192.56 109.85,192.56 C110.942,192.56 111.572,193.106 111.572,194.156 L111.572,194.87 L110.032,194.87 C107.862,194.87 106.924,195.64 106.924,196.97 C106.924,198.328 107.89,199.168 109.402,199.168 Z M109.598,198.23 C108.674,198.23 108.1,197.838 108.1,197.096 L108.1,196.802 C108.1,196.102 108.702,195.71 110.032,195.71 L111.572,195.71 L111.572,196.9 C111.572,197.642 110.746,198.23 109.598,198.23 Z M119.048,190.18 C119.692,190.18 119.93,189.872 119.93,189.466 L119.93,189.242 C119.93,188.836 119.692,188.528 119.048,188.528 C118.404,188.528 118.166,188.836 118.166,189.242 L118.166,189.466 C118.166,189.872 118.404,190.18 119.048,190.18 Z M122.044,199 L122.044,198.048 L119.608,198.048 L119.608,191.776 L115.884,191.776 L115.884,192.728 L118.488,192.728 L118.488,198.048 L115.884,198.048 L115.884,199 L122.044,199 Z M126.468,199.168 C127.476,199.168 128.232,198.706 128.694,197.824 L128.75,197.824 L128.75,199 L129.87,199 L129.87,188.64 L128.75,188.64 L128.75,192.952 L128.694,192.952 C128.232,192.07 127.476,191.608 126.468,191.608 C124.704,191.608 123.64,193.022 123.64,195.388 C123.64,197.754 124.704,199.168 126.468,199.168 Z M126.902,198.174 C125.6,198.174 124.844,197.306 124.844,196.004 L124.844,194.772 C124.844,193.47 125.6,192.602 126.902,192.602 C127.896,192.602 128.75,193.12 128.75,194.086 L128.75,196.69 C128.75,197.656 127.896,198.174 126.902,198.174 Z M143.772,199.168 C145.942,199.168 147.188,198.076 147.188,196.27 C147.188,194.996 146.558,193.932 144.64,193.596 L143.59,193.414 C142.204,193.176 141.756,192.616 141.756,191.748 C141.756,190.642 142.498,190.068 143.814,190.068 C145.032,190.068 145.732,190.558 146.278,191.272 L147.104,190.558 C146.446,189.62 145.382,189.06 143.828,189.06 C141.84,189.06 140.566,189.984 140.566,191.776 C140.566,193.008 141.168,194.114 143.086,194.436 L144.178,194.618 C145.508,194.842 145.998,195.346 145.998,196.298 C145.998,197.474 145.228,198.16 143.814,198.16 C142.638,198.16 141.84,197.698 141.084,196.746 L140.23,197.446 C140.958,198.454 142.022,199.168 143.772,199.168 Z M151.794,199.168 C152.984,199.168 153.544,198.538 153.852,197.824 L153.908,197.824 L153.908,199 L155.028,199 L155.028,191.776 L153.908,191.776 L153.908,196.788 C153.908,197.74 153.012,198.174 152.116,198.174 C151.01,198.174 150.408,197.53 150.408,196.214 L150.408,191.776 L149.288,191.776 L149.288,196.41 C149.288,198.16 150.282,199.168 151.794,199.168 Z M161.132,199.168 C162.896,199.168 163.96,197.754 163.96,195.388 C163.96,193.022 162.896,191.608 161.132,191.608 C160.124,191.608 159.368,192.07 158.906,192.952 L158.85,192.952 L158.85,188.64 L157.73,188.64 L157.73,199 L158.85,199 L158.85,197.824 L158.906,197.824 C159.368,198.706 160.124,199.168 161.132,199.168 Z M160.698,198.174 C159.704,198.174 158.85,197.656 158.85,196.69 L158.85,194.086 C158.85,193.12 159.704,192.602 160.698,192.602 C162,192.602 162.756,193.47 162.756,194.772 L162.756,196.004 C162.756,197.306 162,198.174 160.698,198.174 Z M169.084,199.168 C170.932,199.168 172.136,198.342 172.136,196.914 C172.136,195.346 170.694,195.066 169.658,194.912 L168.524,194.744 C167.88,194.646 167.25,194.45 167.25,193.694 C167.25,192.952 167.88,192.546 169.014,192.546 C170.288,192.546 170.932,193.05 171.268,193.456 L171.996,192.77 C171.31,192.042 170.358,191.608 169.056,191.608 C167.376,191.608 166.144,192.322 166.144,193.764 C166.144,195.332 167.6,195.612 168.622,195.766 L169.756,195.934 C170.414,196.032 171.03,196.228 171.03,196.984 C171.03,197.838 170.232,198.23 169.112,198.23 C167.964,198.23 167.18,197.824 166.494,197.096 L165.738,197.754 C166.494,198.608 167.572,199.168 169.084,199.168 Z M177.652,199.168 C179.094,199.168 180.004,198.454 180.424,197.488 L179.626,196.942 C179.262,197.726 178.632,198.202 177.666,198.202 C176.308,198.202 175.58,197.278 175.58,196.004 L175.58,194.772 C175.58,193.498 176.322,192.574 177.638,192.574 C178.534,192.574 179.15,193.008 179.416,193.75 L180.312,193.274 C179.906,192.294 179.038,191.608 177.638,191.608 C175.594,191.608 174.376,193.092 174.376,195.388 C174.376,197.67 175.58,199.168 177.652,199.168 Z M188.712,199 L188.712,198.048 L185.912,198.048 L185.912,194.926 C185.912,193.806 186.654,192.896 188.068,192.896 L189.426,192.896 L189.426,191.776 L188.418,191.776 C186.906,191.776 186.262,192.644 185.982,193.596 L185.912,193.596 L185.912,191.776 L182.678,191.776 L182.678,192.728 L184.792,192.728 L184.792,198.048 L182.678,198.048 L182.678,199 L188.712,199 Z M194.648,190.18 C195.292,190.18 195.53,189.872 195.53,189.466 L195.53,189.242 C195.53,188.836 195.292,188.528 194.648,188.528 C194.004,188.528 193.766,188.836 193.766,189.242 L193.766,189.466 C193.766,189.872 194.004,190.18 194.648,190.18 Z M197.644,199 L197.644,198.048 L195.208,198.048 L195.208,191.776 L191.484,191.776 L191.484,192.728 L194.088,192.728 L194.088,198.048 L191.484,198.048 L191.484,199 L197.644,199 Z M200.85,201.8 L200.85,197.824 L200.906,197.824 C201.368,198.706 202.124,199.168 203.132,199.168 C204.896,199.168 205.96,197.754 205.96,195.388 C205.96,193.022 204.896,191.608 203.132,191.608 C202.124,191.608 201.368,192.07 200.906,192.952 L200.85,192.952 L200.85,191.776 L199.73,191.776 L199.73,201.8 L200.85,201.8 Z M202.698,198.174 C201.704,198.174 200.85,197.656 200.85,196.69 L200.85,194.086 C200.85,193.12 201.704,192.602 202.698,192.602 C204,192.602 204.756,193.47 204.756,194.772 L204.756,196.004 C204.756,197.306 204,198.174 202.698,198.174 Z M214.164,199 L214.164,198.048 L210.874,198.048 L210.874,192.728 L214.164,192.728 L214.164,191.776 L210.874,191.776 L210.874,189.228 L209.796,189.228 L209.796,191.118 C209.796,191.608 209.614,191.776 209.138,191.776 L207.346,191.776 L207.346,192.728 L209.754,192.728 L209.754,197.348 C209.754,198.314 210.258,199 211.35,199 L214.164,199 Z M219.848,190.18 C220.492,190.18 220.73,189.872 220.73,189.466 L220.73,189.242 C220.73,188.836 220.492,188.528 219.848,188.528 C219.204,188.528 218.966,188.836 218.966,189.242 L218.966,189.466 C218.966,189.872 219.204,190.18 219.848,190.18 Z M222.844,199 L222.844,198.048 L220.408,198.048 L220.408,191.776 L216.684,191.776 L216.684,192.728 L219.288,192.728 L219.288,198.048 L216.684,198.048 L216.684,199 L222.844,199 Z M227.8,199.168 C229.83,199.168 231.076,197.684 231.076,195.388 C231.076,193.092 229.83,191.608 227.8,191.608 C225.77,191.608 224.524,193.092 224.524,195.388 C224.524,197.684 225.77,199.168 227.8,199.168 Z M227.8,198.202 C226.554,198.202 225.714,197.46 225.714,195.906 L225.714,194.87 C225.714,193.316 226.554,192.574 227.8,192.574 C229.046,192.574 229.886,193.316 229.886,194.87 L229.886,195.906 C229.886,197.46 229.046,198.202 227.8,198.202 Z M234.492,199 L234.492,193.988 C234.492,193.036 235.388,192.602 236.284,192.602 C237.39,192.602 237.992,193.246 237.992,194.562 L237.992,199 L239.112,199 L239.112,194.366 C239.112,192.616 238.118,191.608 236.606,191.608 C235.416,191.608 234.856,192.238 234.548,192.952 L234.492,192.952 L234.492,191.776 L233.372,191.776 L233.372,199 L234.492,199 Z" id="NewPaidSubscription" fill="#00000B" fill-rule="nonzero" mask="url(#mask-2)"></path>
            <g id="Rectangle" stroke-dasharray="3,3" mask="url(#mask-2)" stroke="#B6C8DE" stroke-width="2">
                <use mask="url(#mask-6)" xlink:href="#path-5"></use>
            </g>
            <g id="Rectangle-Copy-13" stroke-dasharray="3,3" mask="url(#mask-2)" fill="#FFFFFF" fill-opacity="0.01" stroke="#B6C8DE" stroke-width="2">
                <use mask="url(#mask-8)" xlink:href="#path-7"></use>
            </g>
            <g id="Group-60" mask="url(#mask-2)">
                <g transform="translate(278.000000, 6.000000)">
                    <g id="Rectangle-Copy-11">
                        <use fill="black" fill-opacity="1" filter="url(#filter-10)" xlink:href="#path-9"></use>
                        <rect stroke="#EFEFF1" stroke-width="1" stroke-linejoin="square" fill="#FFFFFF" fill-rule="evenodd" x="0.5" y="0.5" width="175" height="103"></rect>
                    </g>
                    <g id="Group-56" stroke-width="1" fill-rule="evenodd" transform="translate(16.000000, 16.000000)">
                        <rect id="Rectangle" fill="#E1F2FF" x="0" y="61" width="99" height="5" rx="2.5"></rect>
                        <path d="M4.172,14.168 C6.342,14.168 7.588,13.076 7.588,11.27 C7.588,9.996 6.958,8.932 5.04,8.596 L3.99,8.414 C2.604,8.176 2.156,7.616 2.156,6.748 C2.156,5.642 2.898,5.068 4.214,5.068 C5.432,5.068 6.132,5.558 6.678,6.272 L7.504,5.558 C6.846,4.62 5.782,4.06 4.228,4.06 C2.24,4.06 0.966,4.984 0.966,6.776 C0.966,8.008 1.568,9.114 3.486,9.436 L4.578,9.618 C5.908,9.842 6.398,10.346 6.398,11.298 C6.398,12.474 5.628,13.16 4.214,13.16 C3.038,13.16 2.24,12.698 1.484,11.746 L0.63,12.446 C1.358,13.454 2.422,14.168 4.172,14.168 Z M12.194,14.168 C13.384,14.168 13.944,13.538 14.252,12.824 L14.308,12.824 L14.308,14 L15.428,14 L15.428,6.776 L14.308,6.776 L14.308,11.788 C14.308,12.74 13.412,13.174 12.516,13.174 C11.41,13.174 10.808,12.53 10.808,11.214 L10.808,6.776 L9.688,6.776 L9.688,11.41 C9.688,13.16 10.682,14.168 12.194,14.168 Z M21.532,14.168 C23.296,14.168 24.36,12.754 24.36,10.388 C24.36,8.022 23.296,6.608 21.532,6.608 C20.524,6.608 19.768,7.07 19.306,7.952 L19.25,7.952 L19.25,3.64 L18.13,3.64 L18.13,14 L19.25,14 L19.25,12.824 L19.306,12.824 C19.768,13.706 20.524,14.168 21.532,14.168 Z M21.098,13.174 C20.104,13.174 19.25,12.656 19.25,11.69 L19.25,9.086 C19.25,8.12 20.104,7.602 21.098,7.602 C22.4,7.602 23.156,8.47 23.156,9.772 L23.156,11.004 C23.156,12.306 22.4,13.174 21.098,13.174 Z M29.484,14.168 C31.332,14.168 32.536,13.342 32.536,11.914 C32.536,10.346 31.094,10.066 30.058,9.912 L28.924,9.744 C28.28,9.646 27.65,9.45 27.65,8.694 C27.65,7.952 28.28,7.546 29.414,7.546 C30.688,7.546 31.332,8.05 31.668,8.456 L32.396,7.77 C31.71,7.042 30.758,6.608 29.456,6.608 C27.776,6.608 26.544,7.322 26.544,8.764 C26.544,10.332 28,10.612 29.022,10.766 L30.156,10.934 C30.814,11.032 31.43,11.228 31.43,11.984 C31.43,12.838 30.632,13.23 29.512,13.23 C28.364,13.23 27.58,12.824 26.894,12.096 L26.138,12.754 C26.894,13.608 27.972,14.168 29.484,14.168 Z M38.052,14.168 C39.494,14.168 40.404,13.454 40.824,12.488 L40.026,11.942 C39.662,12.726 39.032,13.202 38.066,13.202 C36.708,13.202 35.98,12.278 35.98,11.004 L35.98,9.772 C35.98,8.498 36.722,7.574 38.038,7.574 C38.934,7.574 39.55,8.008 39.816,8.75 L40.712,8.274 C40.306,7.294 39.438,6.608 38.038,6.608 C35.994,6.608 34.776,8.092 34.776,10.388 C34.776,12.67 35.98,14.168 38.052,14.168 Z M49.112,14 L49.112,13.048 L46.312,13.048 L46.312,9.926 C46.312,8.806 47.054,7.896 48.468,7.896 L49.826,7.896 L49.826,6.776 L48.818,6.776 C47.306,6.776 46.662,7.644 46.382,8.596 L46.312,8.596 L46.312,6.776 L43.078,6.776 L43.078,7.728 L45.192,7.728 L45.192,13.048 L43.078,13.048 L43.078,14 L49.112,14 Z M55.048,5.18 C55.692,5.18 55.93,4.872 55.93,4.466 L55.93,4.242 C55.93,3.836 55.692,3.528 55.048,3.528 C54.404,3.528 54.166,3.836 54.166,4.242 L54.166,4.466 C54.166,4.872 54.404,5.18 55.048,5.18 Z M58.044,14 L58.044,13.048 L55.608,13.048 L55.608,6.776 L51.884,6.776 L51.884,7.728 L54.488,7.728 L54.488,13.048 L51.884,13.048 L51.884,14 L58.044,14 Z M61.25,16.8 L61.25,12.824 L61.306,12.824 C61.768,13.706 62.524,14.168 63.532,14.168 C65.296,14.168 66.36,12.754 66.36,10.388 C66.36,8.022 65.296,6.608 63.532,6.608 C62.524,6.608 61.768,7.07 61.306,7.952 L61.25,7.952 L61.25,6.776 L60.13,6.776 L60.13,16.8 L61.25,16.8 Z M63.098,13.174 C62.104,13.174 61.25,12.656 61.25,11.69 L61.25,9.086 C61.25,8.12 62.104,7.602 63.098,7.602 C64.4,7.602 65.156,8.47 65.156,9.772 L65.156,11.004 C65.156,12.306 64.4,13.174 63.098,13.174 Z M74.564,14 L74.564,13.048 L71.274,13.048 L71.274,7.728 L74.564,7.728 L74.564,6.776 L71.274,6.776 L71.274,4.228 L70.196,4.228 L70.196,6.118 C70.196,6.608 70.014,6.776 69.538,6.776 L67.746,6.776 L67.746,7.728 L70.154,7.728 L70.154,12.348 C70.154,13.314 70.658,14 71.75,14 L74.564,14 Z M80.248,5.18 C80.892,5.18 81.13,4.872 81.13,4.466 L81.13,4.242 C81.13,3.836 80.892,3.528 80.248,3.528 C79.604,3.528 79.366,3.836 79.366,4.242 L79.366,4.466 C79.366,4.872 79.604,5.18 80.248,5.18 Z M83.244,14 L83.244,13.048 L80.808,13.048 L80.808,6.776 L77.084,6.776 L77.084,7.728 L79.688,7.728 L79.688,13.048 L77.084,13.048 L77.084,14 L83.244,14 Z M88.2,14.168 C90.23,14.168 91.476,12.684 91.476,10.388 C91.476,8.092 90.23,6.608 88.2,6.608 C86.17,6.608 84.924,8.092 84.924,10.388 C84.924,12.684 86.17,14.168 88.2,14.168 Z M88.2,13.202 C86.954,13.202 86.114,12.46 86.114,10.906 L86.114,9.87 C86.114,8.316 86.954,7.574 88.2,7.574 C89.446,7.574 90.286,8.316 90.286,9.87 L90.286,10.906 C90.286,12.46 89.446,13.202 88.2,13.202 Z M94.892,14 L94.892,8.988 C94.892,8.036 95.788,7.602 96.684,7.602 C97.79,7.602 98.392,8.246 98.392,9.562 L98.392,14 L99.512,14 L99.512,9.366 C99.512,7.616 98.518,6.608 97.006,6.608 C95.816,6.608 95.256,7.238 94.948,7.952 L94.892,7.952 L94.892,6.776 L93.772,6.776 L93.772,14 L94.892,14 Z M105.084,14.168 C106.932,14.168 108.136,13.342 108.136,11.914 C108.136,10.346 106.694,10.066 105.658,9.912 L104.524,9.744 C103.88,9.646 103.25,9.45 103.25,8.694 C103.25,7.952 103.88,7.546 105.014,7.546 C106.288,7.546 106.932,8.05 107.268,8.456 L107.996,7.77 C107.31,7.042 106.358,6.608 105.056,6.608 C103.376,6.608 102.144,7.322 102.144,8.764 C102.144,10.332 103.6,10.612 104.622,10.766 L105.756,10.934 C106.414,11.032 107.03,11.228 107.03,11.984 C107.03,12.838 106.232,13.23 105.112,13.23 C103.964,13.23 103.18,12.824 102.494,12.096 L101.738,12.754 C102.494,13.608 103.572,14.168 105.084,14.168 Z" id="Subscriptions" fill="#00000B" fill-rule="nonzero"></path>
                        <path d="M23.92,45 L29.16,33.32 L29.16,31 L19.72,31 L19.72,33.44 L26.48,33.44 L21.28,45 L23.92,45 Z M35.2,45.28 C35.9466667,45.28 36.6333333,45.1766667 37.26,44.97 C37.8866667,44.7633333 38.4233333,44.4666667 38.87,44.08 C39.3166667,43.6933333 39.6666667,43.2233333 39.92,42.67 C40.1733333,42.1166667 40.3,41.5 40.3,40.82 C40.3,40.34 40.2266667,39.91 40.08,39.53 C39.9333333,39.15 39.7366667,38.8166667 39.49,38.53 C39.2433333,38.2433333 38.9533333,37.9966667 38.62,37.79 C38.2866667,37.5833333 37.94,37.42 37.58,37.3 C38.1666667,37.0466667 38.6566667,36.65 39.05,36.11 C39.4433333,35.57 39.64,34.92 39.64,34.16 C39.64,33.6666667 39.55,33.21 39.37,32.79 C39.19,32.37 38.9133333,32.0066667 38.54,31.7 C38.1666667,31.3933333 37.6966667,31.1533333 37.13,30.98 C36.5633333,30.8066667 35.9,30.72 35.14,30.72 C34.42,30.72 33.7766667,30.8266667 33.21,31.04 C32.6433333,31.2533333 32.1633333,31.54 31.77,31.9 C31.3766667,32.26 31.0766667,32.6766667 30.87,33.15 C30.6633333,33.6233333 30.56,34.1133333 30.56,34.62 C30.56,34.82 30.58,35.0166667 30.62,35.21 C30.66,35.4033333 30.7066667,35.5733333 30.76,35.72 L30.76,35.72 L33.2,35.18 C33.1733333,35.1133333 33.1466667,35.0166667 33.12,34.89 C33.0933333,34.7633333 33.08,34.6333333 33.08,34.5 C33.08,33.9933333 33.2733333,33.5966667 33.66,33.31 C34.0466667,33.0233333 34.5333333,32.88 35.12,32.88 C35.72,32.88 36.1966667,33.03 36.55,33.33 C36.9033333,33.63 37.08,34.0266667 37.08,34.52 C37.08,35.16 36.8233333,35.6566667 36.31,36.01 C35.7966667,36.3633333 35.0533333,36.54 34.08,36.54 L34.08,36.54 L34.08,38.5 C34.5866667,38.5 35.0566667,38.54 35.49,38.62 C35.9233333,38.7 36.3,38.8333333 36.62,39.02 C36.94,39.2066667 37.1933333,39.4466667 37.38,39.74 C37.5666667,40.0333333 37.66,40.3933333 37.66,40.82 C37.66,41.5533333 37.43,42.1066667 36.97,42.48 C36.51,42.8533333 35.92,43.04 35.2,43.04 C34.4933333,43.04 33.92,42.85 33.48,42.47 C33.04,42.09 32.82,41.58 32.82,40.94 C32.82,40.7933333 32.8266667,40.6766667 32.84,40.59 C32.8533333,40.5033333 32.8733333,40.4266667 32.9,40.36 L32.9,40.36 L30.4,39.76 C30.3333333,39.9333333 30.28,40.1366667 30.24,40.37 C30.2,40.6033333 30.18,40.8133333 30.18,41 C30.18,41.56 30.2866667,42.1 30.5,42.62 C30.7133333,43.14 31.03,43.5966667 31.45,43.99 C31.87,44.3833333 32.3933333,44.6966667 33.02,44.93 C33.6466667,45.1633333 34.3733333,45.28 35.2,45.28 Z M47.58,45.28 C48.3266667,45.28 49.0166667,45.16 49.65,44.92 C50.2833333,44.68 50.8333333,44.3433333 51.3,43.91 C51.7666667,43.4766667 52.13,42.97 52.39,42.39 C52.65,41.81 52.78,41.18 52.78,40.5 C52.78,39.82 52.6633333,39.1933333 52.43,38.62 C52.1966667,38.0466667 51.8666667,37.5566667 51.44,37.15 C51.0133333,36.7433333 50.5066667,36.4233333 49.92,36.19 C49.3333333,35.9566667 48.6933333,35.84 48,35.84 C47.32,35.84 46.69,35.9766667 46.11,36.25 C45.53,36.5233333 45.0333333,36.8733333 44.62,37.3 C44.6733333,36.7 44.78,36.1233333 44.94,35.57 C45.1,35.0166667 45.3133333,34.5333333 45.58,34.12 C45.8466667,33.7066667 46.17,33.3766667 46.55,33.13 C46.93,32.8833333 47.3666667,32.76 47.86,32.76 C48.38,32.76 48.8166667,32.8733333 49.17,33.1 C49.5233333,33.3266667 49.7,33.6733333 49.7,34.14 C49.7,34.3533333 49.6533333,34.5733333 49.56,34.8 L49.56,34.8 L52,35.32 C52.1466667,34.9866667 52.22,34.6133333 52.22,34.2 C52.22,33.6933333 52.12,33.2266667 51.92,32.8 C51.72,32.3733333 51.43,32.0066667 51.05,31.7 C50.67,31.3933333 50.2133333,31.1533333 49.68,30.98 C49.1466667,30.8066667 48.54,30.72 47.86,30.72 C46.7266667,30.72 45.74,31.0233333 44.9,31.63 C44.06,32.2366667 43.4066667,33.1 42.94,34.22 C42.6866667,34.8333333 42.4866667,35.5066667 42.34,36.24 C42.1933333,36.9733333 42.12,37.8333333 42.12,38.82 C42.12,39.8466667 42.25,40.76 42.51,41.56 C42.77,42.36 43.1366667,43.0366667 43.61,43.59 C44.0833333,44.1433333 44.6566667,44.5633333 45.33,44.85 C46.0033333,45.1366667 46.7533333,45.28 47.58,45.28 Z M47.54,43.12 C47.18,43.12 46.8366667,43.0633333 46.51,42.95 C46.1833333,42.8366667 45.9,42.67 45.66,42.45 C45.42,42.23 45.23,41.96 45.09,41.64 C44.95,41.32 44.88,40.96 44.88,40.56 C44.88,40.1466667 44.95,39.7833333 45.09,39.47 C45.23,39.1566667 45.42,38.89 45.66,38.67 C45.9,38.45 46.1833333,38.2833333 46.51,38.17 C46.8366667,38.0566667 47.18,38 47.54,38 C47.9,38 48.2433333,38.0566667 48.57,38.17 C48.8966667,38.2833333 49.1833333,38.45 49.43,38.67 C49.6766667,38.89 49.87,39.1566667 50.01,39.47 C50.15,39.7833333 50.22,40.1466667 50.22,40.56 C50.22,40.96 50.15,41.32 50.01,41.64 C49.87,41.96 49.6766667,42.23 49.43,42.45 C49.1833333,42.67 48.8966667,42.8366667 48.57,42.95 C48.2433333,43.0633333 47.9,43.12 47.54,43.12 Z M59.54,45.28 C60.3133333,45.28 61.01,45.18 61.63,44.98 C62.25,44.78 62.7766667,44.5 63.21,44.14 C63.6433333,43.78 63.9766667,43.3433333 64.21,42.83 C64.4433333,42.3166667 64.56,41.7466667 64.56,41.12 C64.56,40.2666667 64.3466667,39.5266667 63.92,38.9 C63.4933333,38.2733333 62.9066667,37.8066667 62.16,37.5 C62.8,37.18 63.29,36.7633333 63.63,36.25 C63.97,35.7366667 64.14,35.12 64.14,34.4 C64.14,33.8666667 64.03,33.3733333 63.81,32.92 C63.59,32.4666667 63.2766667,32.0766667 62.87,31.75 C62.4633333,31.4233333 61.9766667,31.17 61.41,30.99 C60.8433333,30.81 60.22,30.72 59.54,30.72 C58.86,30.72 58.2366667,30.81 57.67,30.99 C57.1033333,31.17 56.6166667,31.4233333 56.21,31.75 C55.8033333,32.0766667 55.49,32.4666667 55.27,32.92 C55.05,33.3733333 54.94,33.8666667 54.94,34.4 C54.94,35.12 55.11,35.7366667 55.45,36.25 C55.79,36.7633333 56.28,37.18 56.92,37.5 C56.1733333,37.8066667 55.5866667,38.2733333 55.16,38.9 C54.7333333,39.5266667 54.52,40.2666667 54.52,41.12 C54.52,41.7466667 54.6366667,42.3166667 54.87,42.83 C55.1033333,43.3433333 55.4366667,43.78 55.87,44.14 C56.3033333,44.5 56.83,44.78 57.45,44.98 C58.07,45.18 58.7666667,45.28 59.54,45.28 Z M59.54,36.52 C59.2733333,36.52 59.0133333,36.4766667 58.76,36.39 C58.5066667,36.3033333 58.2833333,36.18 58.09,36.02 C57.8966667,35.86 57.7433333,35.66 57.63,35.42 C57.5166667,35.18 57.46,34.9 57.46,34.58 C57.46,34.26 57.5166667,33.9833333 57.63,33.75 C57.7433333,33.5166667 57.8966667,33.32 58.09,33.16 C58.2833333,33 58.5066667,32.88 58.76,32.8 C59.0133333,32.72 59.2733333,32.68 59.54,32.68 C59.8066667,32.68 60.0666667,32.72 60.32,32.8 C60.5733333,32.88 60.7966667,33 60.99,33.16 C61.1833333,33.32 61.3366667,33.5166667 61.45,33.75 C61.5633333,33.9833333 61.62,34.26 61.62,34.58 C61.62,34.9 61.5633333,35.18 61.45,35.42 C61.3366667,35.66 61.1833333,35.86 60.99,36.02 C60.7966667,36.18 60.5733333,36.3033333 60.32,36.39 C60.0666667,36.4766667 59.8066667,36.52 59.54,36.52 Z M59.54,43.12 C58.8333333,43.12 58.2466667,42.9133333 57.78,42.5 C57.3133333,42.0866667 57.08,41.5533333 57.08,40.9 C57.08,40.2466667 57.3133333,39.7133333 57.78,39.3 C58.2466667,38.8866667 58.8333333,38.68 59.54,38.68 C60.2466667,38.68 60.8333333,38.8866667 61.3,39.3 C61.7666667,39.7133333 62,40.2466667 62,40.9 C62,41.5533333 61.7666667,42.0866667 61.3,42.5 C60.8333333,42.9133333 60.2466667,43.12 59.54,43.12 Z" id="7368" fill="#FF3C68" fill-rule="nonzero"></path>
                        <polygon id="↑" fill="#FF526C" fill-rule="nonzero" transform="translate(6.734000, 39.380000) rotate(-180.000000) translate(-6.734000, -39.380000) " points="7.8 45.646 7.8 37.378 10.79 40.368 12.376 38.782 6.734 33.114 1.092 38.782 2.678 40.368 5.668 37.378 5.668 45.646"></polygon>
                    </g>
                </g>
            </g>
            <g id="Group-59" mask="url(#mask-2)">
                <g transform="translate(502.000000, 6.000000)">
                    <g id="Rectangle-Copy-14">
                        <use fill="black" fill-opacity="1" filter="url(#filter-12)" xlink:href="#path-11"></use>
                        <rect stroke="#EFEFF1" stroke-width="1" stroke-linejoin="square" fill="#FFFFFF" fill-rule="evenodd" x="0.5" y="0.5" width="175" height="103"></rect>
                    </g>
                    <g id="Group-56" stroke-width="1" fill-rule="evenodd" transform="translate(16.000000, 19.000000)">
                        <rect id="Rectangle" fill="#D8D8D8" x="0" y="58" width="99" height="5" rx="2.5"></rect>
                        <path d="M2.184,11 L2.184,2.726 L2.282,2.726 L5.614,11 L7.28,11 L7.28,1.228 L6.216,1.228 L6.216,9.418 L6.118,9.418 L2.786,1.228 L1.12,1.228 L1.12,11 L2.184,11 Z M12.726,11.168 C14.154,11.168 15.19,10.468 15.624,9.502 L14.798,8.942 C14.42,9.726 13.692,10.202 12.726,10.202 C11.368,10.202 10.514,9.278 10.514,8.004 L10.514,7.668 L15.862,7.668 L15.862,7.136 C15.862,5.092 14.602,3.608 12.656,3.608 C10.696,3.608 9.338,5.092 9.338,7.402 C9.338,9.684 10.654,11.168 12.726,11.168 Z M14.658,6.828 L10.514,6.828 L10.514,6.73 C10.514,5.47 11.424,4.532 12.656,4.532 C13.846,4.532 14.658,5.4 14.658,6.674 L14.658,6.828 Z M24.164,11 L24.164,10.048 L20.874,10.048 L20.874,4.728 L24.164,4.728 L24.164,3.776 L20.874,3.776 L20.874,1.228 L19.796,1.228 L19.796,3.118 C19.796,3.608 19.614,3.776 19.138,3.776 L17.346,3.776 L17.346,4.728 L19.754,4.728 L19.754,9.348 C19.754,10.314 20.258,11 21.35,11 L24.164,11 Z M38.122,11.168 C39.914,11.168 40.656,10.09 41.132,9.026 L40.124,8.564 C39.774,9.432 39.312,10.146 38.122,10.146 C36.568,10.146 35.826,8.872 35.826,6.912 L35.826,5.316 C35.826,3.356 36.568,2.082 38.122,2.082 C39.312,2.082 39.774,2.796 40.124,3.664 L41.132,3.202 C40.656,2.138 39.914,1.06 38.122,1.06 C35.742,1.06 34.58,2.866 34.58,6.114 C34.58,9.362 35.742,11.168 38.122,11.168 Z M44.492,11 L44.492,5.988 C44.492,5.036 45.388,4.602 46.284,4.602 C47.39,4.602 47.992,5.246 47.992,6.562 L47.992,11 L49.112,11 L49.112,6.366 C49.112,4.616 48.118,3.608 46.606,3.608 C45.416,3.608 44.856,4.238 44.548,4.952 L44.492,4.952 L44.492,0.64 L43.372,0.64 L43.372,11 L44.492,11 Z M54.194,11.168 C55.384,11.168 55.944,10.538 56.252,9.824 L56.308,9.824 L56.308,11 L57.428,11 L57.428,3.776 L56.308,3.776 L56.308,8.788 C56.308,9.74 55.412,10.174 54.516,10.174 C53.41,10.174 52.808,9.53 52.808,8.214 L52.808,3.776 L51.688,3.776 L51.688,8.41 C51.688,10.16 52.682,11.168 54.194,11.168 Z M65.912,11 L65.912,10.048 L63.112,10.048 L63.112,6.926 C63.112,5.806 63.854,4.896 65.268,4.896 L66.626,4.896 L66.626,3.776 L65.618,3.776 C64.106,3.776 63.462,4.644 63.182,5.596 L63.112,5.596 L63.112,3.776 L59.878,3.776 L59.878,4.728 L61.992,4.728 L61.992,10.048 L59.878,10.048 L59.878,11 L65.912,11 Z M69.692,11 L69.692,5.988 C69.692,5.036 70.588,4.602 71.484,4.602 C72.59,4.602 73.192,5.246 73.192,6.562 L73.192,11 L74.312,11 L74.312,6.366 C74.312,4.616 73.318,3.608 71.806,3.608 C70.616,3.608 70.056,4.238 69.748,4.952 L69.692,4.952 L69.692,3.776 L68.572,3.776 L68.572,11 L69.692,11 Z" id="NetChurn" fill="#00000B" fill-rule="nonzero"></path>
                        <path d="M25.02,42.28 C25.7666667,42.28 26.4533333,42.1766667 27.08,41.97 C27.7066667,41.7633333 28.2433333,41.4666667 28.69,41.08 C29.1366667,40.6933333 29.4866667,40.2233333 29.74,39.67 C29.9933333,39.1166667 30.12,38.5 30.12,37.82 C30.12,37.34 30.0466667,36.91 29.9,36.53 C29.7533333,36.15 29.5566667,35.8166667 29.31,35.53 C29.0633333,35.2433333 28.7733333,34.9966667 28.44,34.79 C28.1066667,34.5833333 27.76,34.42 27.4,34.3 C27.9866667,34.0466667 28.4766667,33.65 28.87,33.11 C29.2633333,32.57 29.46,31.92 29.46,31.16 C29.46,30.6666667 29.37,30.21 29.19,29.79 C29.01,29.37 28.7333333,29.0066667 28.36,28.7 C27.9866667,28.3933333 27.5166667,28.1533333 26.95,27.98 C26.3833333,27.8066667 25.72,27.72 24.96,27.72 C24.24,27.72 23.5966667,27.8266667 23.03,28.04 C22.4633333,28.2533333 21.9833333,28.54 21.59,28.9 C21.1966667,29.26 20.8966667,29.6766667 20.69,30.15 C20.4833333,30.6233333 20.38,31.1133333 20.38,31.62 C20.38,31.82 20.4,32.0166667 20.44,32.21 C20.48,32.4033333 20.5266667,32.5733333 20.58,32.72 L20.58,32.72 L23.02,32.18 C22.9933333,32.1133333 22.9666667,32.0166667 22.94,31.89 C22.9133333,31.7633333 22.9,31.6333333 22.9,31.5 C22.9,30.9933333 23.0933333,30.5966667 23.48,30.31 C23.8666667,30.0233333 24.3533333,29.88 24.94,29.88 C25.54,29.88 26.0166667,30.03 26.37,30.33 C26.7233333,30.63 26.9,31.0266667 26.9,31.52 C26.9,32.16 26.6433333,32.6566667 26.13,33.01 C25.6166667,33.3633333 24.8733333,33.54 23.9,33.54 L23.9,33.54 L23.9,35.5 C24.4066667,35.5 24.8766667,35.54 25.31,35.62 C25.7433333,35.7 26.12,35.8333333 26.44,36.02 C26.76,36.2066667 27.0133333,36.4466667 27.2,36.74 C27.3866667,37.0333333 27.48,37.3933333 27.48,37.82 C27.48,38.5533333 27.25,39.1066667 26.79,39.48 C26.33,39.8533333 25.74,40.04 25.02,40.04 C24.3133333,40.04 23.74,39.85 23.3,39.47 C22.86,39.09 22.64,38.58 22.64,37.94 C22.64,37.7933333 22.6466667,37.6766667 22.66,37.59 C22.6733333,37.5033333 22.6933333,37.4266667 22.72,37.36 L22.72,37.36 L20.22,36.76 C20.1533333,36.9333333 20.1,37.1366667 20.06,37.37 C20.02,37.6033333 20,37.8133333 20,38 C20,38.56 20.1066667,39.1 20.32,39.62 C20.5333333,40.14 20.85,40.5966667 21.27,40.99 C21.69,41.3833333 22.2133333,41.6966667 22.84,41.93 C23.4666667,42.1633333 24.1933333,42.28 25.02,42.28 Z M37.4,42.28 C38.1466667,42.28 38.8366667,42.16 39.47,41.92 C40.1033333,41.68 40.6533333,41.3433333 41.12,40.91 C41.5866667,40.4766667 41.95,39.97 42.21,39.39 C42.47,38.81 42.6,38.18 42.6,37.5 C42.6,36.82 42.4833333,36.1933333 42.25,35.62 C42.0166667,35.0466667 41.6866667,34.5566667 41.26,34.15 C40.8333333,33.7433333 40.3266667,33.4233333 39.74,33.19 C39.1533333,32.9566667 38.5133333,32.84 37.82,32.84 C37.14,32.84 36.51,32.9766667 35.93,33.25 C35.35,33.5233333 34.8533333,33.8733333 34.44,34.3 C34.4933333,33.7 34.6,33.1233333 34.76,32.57 C34.92,32.0166667 35.1333333,31.5333333 35.4,31.12 C35.6666667,30.7066667 35.99,30.3766667 36.37,30.13 C36.75,29.8833333 37.1866667,29.76 37.68,29.76 C38.2,29.76 38.6366667,29.8733333 38.99,30.1 C39.3433333,30.3266667 39.52,30.6733333 39.52,31.14 C39.52,31.3533333 39.4733333,31.5733333 39.38,31.8 L39.38,31.8 L41.82,32.32 C41.9666667,31.9866667 42.04,31.6133333 42.04,31.2 C42.04,30.6933333 41.94,30.2266667 41.74,29.8 C41.54,29.3733333 41.25,29.0066667 40.87,28.7 C40.49,28.3933333 40.0333333,28.1533333 39.5,27.98 C38.9666667,27.8066667 38.36,27.72 37.68,27.72 C36.5466667,27.72 35.56,28.0233333 34.72,28.63 C33.88,29.2366667 33.2266667,30.1 32.76,31.22 C32.5066667,31.8333333 32.3066667,32.5066667 32.16,33.24 C32.0133333,33.9733333 31.94,34.8333333 31.94,35.82 C31.94,36.8466667 32.07,37.76 32.33,38.56 C32.59,39.36 32.9566667,40.0366667 33.43,40.59 C33.9033333,41.1433333 34.4766667,41.5633333 35.15,41.85 C35.8233333,42.1366667 36.5733333,42.28 37.4,42.28 Z M37.36,40.12 C37,40.12 36.6566667,40.0633333 36.33,39.95 C36.0033333,39.8366667 35.72,39.67 35.48,39.45 C35.24,39.23 35.05,38.96 34.91,38.64 C34.77,38.32 34.7,37.96 34.7,37.56 C34.7,37.1466667 34.77,36.7833333 34.91,36.47 C35.05,36.1566667 35.24,35.89 35.48,35.67 C35.72,35.45 36.0033333,35.2833333 36.33,35.17 C36.6566667,35.0566667 37,35 37.36,35 C37.72,35 38.0633333,35.0566667 38.39,35.17 C38.7166667,35.2833333 39.0033333,35.45 39.25,35.67 C39.4966667,35.89 39.69,36.1566667 39.83,36.47 C39.97,36.7833333 40.04,37.1466667 40.04,37.56 C40.04,37.96 39.97,38.32 39.83,38.64 C39.69,38.96 39.4966667,39.23 39.25,39.45 C39.0033333,39.67 38.7166667,39.8366667 38.39,39.95 C38.0633333,40.0633333 37.72,40.12 37.36,40.12 Z M47.76,34.72 C48.2666667,34.72 48.7333333,34.63 49.16,34.45 C49.5866667,34.27 49.9533333,34.0266667 50.26,33.72 C50.5666667,33.4133333 50.8066667,33.0466667 50.98,32.62 C51.1533333,32.1933333 51.24,31.7266667 51.24,31.22 C51.24,30.7266667 51.1533333,30.2633333 50.98,29.83 C50.8066667,29.3966667 50.5666667,29.0266667 50.26,28.72 C49.9533333,28.4133333 49.5866667,28.17 49.16,27.99 C48.7333333,27.81 48.2666667,27.72 47.76,27.72 C47.2533333,27.72 46.7866667,27.81 46.36,27.99 C45.9333333,28.17 45.5666667,28.4133333 45.26,28.72 C44.9533333,29.0266667 44.7133333,29.3966667 44.54,29.83 C44.3666667,30.2633333 44.28,30.7266667 44.28,31.22 C44.28,31.7266667 44.3666667,32.1933333 44.54,32.62 C44.7133333,33.0466667 44.9533333,33.4133333 45.26,33.72 C45.5666667,34.0266667 45.9333333,34.27 46.36,34.45 C46.7866667,34.63 47.2533333,34.72 47.76,34.72 Z M48.54,42.14 L57.24,28.84 L55.8,27.86 L47.1,41.16 L48.54,42.14 Z M47.76,33 C47.2933333,33 46.9033333,32.8366667 46.59,32.51 C46.2766667,32.1833333 46.12,31.7533333 46.12,31.22 C46.12,30.6866667 46.2766667,30.2566667 46.59,29.93 C46.9033333,29.6033333 47.2933333,29.44 47.76,29.44 C48.2266667,29.44 48.6166667,29.6033333 48.93,29.93 C49.2433333,30.2566667 49.4,30.6866667 49.4,31.22 C49.4,31.7533333 49.2433333,32.1833333 48.93,32.51 C48.6166667,32.8366667 48.2266667,33 47.76,33 Z M56.58,42.28 C57.0866667,42.28 57.5533333,42.19 57.98,42.01 C58.4066667,41.83 58.7733333,41.5866667 59.08,41.28 C59.3866667,40.9733333 59.6266667,40.6066667 59.8,40.18 C59.9733333,39.7533333 60.06,39.2866667 60.06,38.78 C60.06,38.2866667 59.9733333,37.8233333 59.8,37.39 C59.6266667,36.9566667 59.3866667,36.5866667 59.08,36.28 C58.7733333,35.9733333 58.4066667,35.73 57.98,35.55 C57.5533333,35.37 57.0866667,35.28 56.58,35.28 C56.0733333,35.28 55.6066667,35.37 55.18,35.55 C54.7533333,35.73 54.3866667,35.9733333 54.08,36.28 C53.7733333,36.5866667 53.5333333,36.9566667 53.36,37.39 C53.1866667,37.8233333 53.1,38.2866667 53.1,38.78 C53.1,39.2866667 53.1866667,39.7533333 53.36,40.18 C53.5333333,40.6066667 53.7733333,40.9733333 54.08,41.28 C54.3866667,41.5866667 54.7533333,41.83 55.18,42.01 C55.6066667,42.19 56.0733333,42.28 56.58,42.28 Z M56.58,40.56 C56.1133333,40.56 55.7233333,40.3966667 55.41,40.07 C55.0966667,39.7433333 54.94,39.3133333 54.94,38.78 C54.94,38.2466667 55.0966667,37.8166667 55.41,37.49 C55.7233333,37.1633333 56.1133333,37 56.58,37 C57.0466667,37 57.4366667,37.1633333 57.75,37.49 C58.0633333,37.8166667 58.22,38.2466667 58.22,38.78 C58.22,39.3133333 58.0633333,39.7433333 57.75,40.07 C57.4366667,40.3966667 57.0466667,40.56 56.58,40.56 Z" id="36%" fill="#FFC700" fill-rule="nonzero"></path>
                        <polygon id="↑" fill="#FFC700" fill-rule="nonzero" transform="translate(6.734000, 36.380000) rotate(-180.000000) translate(-6.734000, -36.380000) " points="7.8 42.646 7.8 34.378 10.79 37.368 12.376 35.782 6.734 30.114 1.092 35.782 2.678 37.368 5.668 34.378 5.668 42.646"></polygon>
                    </g>
                </g>
            </g>
            <g id="Group-4" mask="url(#mask-2)">
                <g transform="translate(462.000000, 238.000000)">
                    <g>
                        <line x1="0.517412935" y1="67.5" x2="415.514843" y2="67.5" id="Line-4-Copy" stroke="#AAC0D7" stroke-linecap="square" stroke-dasharray="2,6"></line>
                        <line x1="0.517412935" y1="34.5" x2="415.514843" y2="34.5" id="Line-4-Copy-2" stroke="#AAC0D7" stroke-linecap="square" stroke-dasharray="2,6"></line>
                        <line x1="0.517412935" y1="1.5" x2="415.514843" y2="1.5" id="Line-4-Copy-3" stroke="#AAC0D7" stroke-linecap="square" stroke-dasharray="2,6"></line>
                        <g id="Path-2" stroke-linecap="round" stroke-linejoin="round">
                            <use fill="black" fill-opacity="1" filter="url(#filter-14)" xlink:href="#path-13"></use>
                            <use stroke="#007700" stroke-width="2" xlink:href="#path-13"></use>
                        </g>
                    </g>
                </g>
            </g>
            <rect id="Rectangle" fill="#E1F2FF" mask="url(#mask-2)" x="97" y="302" width="24" height="26"></rect>
            <rect id="Rectangle-Copy-18" fill="#E1F2FF" mask="url(#mask-2)" x="153" y="302" width="24" height="26"></rect>
            <rect id="Rectangle-Copy-21" fill="#95E0D7" mask="url(#mask-2)" x="206" y="302" width="24" height="26"></rect>
            <rect id="Rectangle-Copy-24" fill="#D8D8D8" mask="url(#mask-2)" x="259" y="315" width="24" height="13"></rect>
            <rect id="Rectangle-Copy-27" fill="#D8D8D8" mask="url(#mask-2)" x="312" y="315" width="24" height="13"></rect>
            <rect id="Rectangle-Copy-30" fill="#D8D8D8" mask="url(#mask-2)" x="362" y="315" width="24" height="13"></rect>
            <rect id="Rectangle-Copy-16" fill="#E1F2FF" mask="url(#mask-2)" x="97" y="288" width="24" height="12"></rect>
            <rect id="Rectangle-Copy-19" fill="#E1F2FF" mask="url(#mask-2)" x="153" y="286" width="24" height="14"></rect>
            <rect id="Rectangle-Copy-22" fill="#F3D690" mask="url(#mask-2)" x="206" y="286" width="24" height="14"></rect>
            <rect id="Rectangle-Copy-25" fill="#D8D8D8" mask="url(#mask-2)" x="259" y="299" width="24" height="14"></rect>
            <rect id="Rectangle-Copy-28" fill="#D8D8D8" mask="url(#mask-2)" x="312" y="299" width="24" height="14"></rect>
            <rect id="Rectangle-Copy-31" fill="#D8D8D8" mask="url(#mask-2)" x="362" y="299" width="24" height="14"></rect>
            <path d="M101,274 L117,274 C119.209139,274 121,275.790861 121,278 L121,286 L121,286 L97,286 L97,278 C97,275.790861 98.790861,274 101,274 Z" id="Rectangle-Copy-17" fill="#E1F2FF" mask="url(#mask-2)"></path>
            <path d="M157,263 L173,263 C175.209139,263 177,264.790861 177,267 L177,284 L177,284 L153,284 L153,267 C153,264.790861 154.790861,263 157,263 Z" id="Rectangle-Copy-20" fill="#E1F2FF" mask="url(#mask-2)"></path>
            <path d="M210,254 L226,254 C228.209139,254 230,255.790861 230,258 L230,284 L230,284 L206,284 L206,258 C206,255.790861 207.790861,254 210,254 Z" id="Rectangle-Copy-23" fill="#C898D6" mask="url(#mask-2)"></path>
            <path d="M263,267 L279,267 C281.209139,267 283,268.790861 283,271 L283,297 L283,297 L259,297 L259,271 C259,268.790861 260.790861,267 263,267 Z" id="Rectangle-Copy-26" fill="#D8D8D8" mask="url(#mask-2)"></path>
            <path d="M316,263 L332,263 C334.209139,263 336,264.790861 336,267 L336,297 L336,297 L312,297 L312,267 C312,264.790861 313.790861,263 316,263 Z" id="Rectangle-Copy-29" fill="#D8D8D8" mask="url(#mask-2)"></path>
            <path d="M366,258 L382,258 C384.209139,258 386,259.790861 386,262 L386,297 L386,297 L362,297 L362,262 C362,259.790861 363.790861,258 366,258 Z" id="Rectangle-Copy-32" fill="#D8D8D8" mask="url(#mask-2)"></path>
            <g id="Group-15" mask="url(#mask-2)">
                <g transform="translate(248.000000, 239.000000)">
                    <g id="Rectangle-Copy-11" fill="none">
                        <use fill="black" fill-opacity="1" filter="url(#filter-16)" xlink:href="#path-15"></use>
                        <path stroke="#EBF2FE" stroke-width="2" d="M140,1 L10,1 C9.17157288,1 8.42157288,1.33578644 7.87867966,1.87867966 C7.33578644,2.42157288 7,3.17157288 7,4 L7,26.3079951 L1.59639754,30.5083065 L7,34.994644 L7,164 C7,164.828427 7.33578644,165.578427 7.87867966,166.12132 C8.42157288,166.664214 9.17157288,167 10,167 L140,167 C140.828427,167 141.578427,166.664214 142.12132,166.12132 C142.664214,165.578427 143,164.828427 143,164 L143,4 C143,3.17157288 142.664214,2.42157288 142.12132,1.87867966 C141.578427,1.33578644 140.828427,1 140,1 Z" stroke-linejoin="square" fill="#FFFFFF" fill-rule="evenodd"></path>
                    </g>
                    <path d="M35.372,24.144 C36.524,24.144 36.992,23.532 37.268,22.884 L37.328,22.884 L37.328,24 L38.264,24 L38.264,19.86 L35.564,19.86 L35.564,20.664 L37.328,20.664 L37.328,21.528 C37.328,22.56 36.68,23.292 35.6,23.292 C34.232,23.292 33.74,22.104 33.74,20.424 L33.74,19.128 C33.74,17.448 34.352,16.356 35.696,16.356 C36.704,16.356 37.1,16.968 37.4,17.712 L38.264,17.316 C37.904,16.404 37.232,15.48 35.66,15.48 C33.644,15.48 32.672,17.016 32.672,19.872 C32.672,22.608 33.56,24.144 35.372,24.144 Z M45.296,24 L45.296,23.184 L42.896,23.184 L42.896,20.508 C42.896,19.548 43.532,18.768 44.744,18.768 L45.908,18.768 L45.908,17.808 L45.044,17.808 C43.748,17.808 43.196,18.552 42.956,19.368 L42.896,19.368 L42.896,17.808 L40.124,17.808 L40.124,18.624 L41.936,18.624 L41.936,23.184 L40.124,23.184 L40.124,24 L45.296,24 Z M50,24.144 C51.74,24.144 52.808,22.872 52.808,20.904 C52.808,18.936 51.74,17.664 50,17.664 C48.26,17.664 47.192,18.936 47.192,20.904 C47.192,22.872 48.26,24.144 50,24.144 Z M50,23.316 C48.932,23.316 48.212,22.68 48.212,21.348 L48.212,20.46 C48.212,19.128 48.932,18.492 50,18.492 C51.068,18.492 51.788,19.128 51.788,20.46 L51.788,21.348 C51.788,22.68 51.068,23.316 50,23.316 Z M56.156,24 L57.164,18.816 L57.26,18.816 L58.244,24 L59.492,24 L60.44,17.808 L59.612,17.808 L58.904,23.16 L58.796,23.16 L57.74,17.808 L56.684,17.808 L55.628,23.16 L55.52,23.16 L54.812,17.808 L53.96,17.808 L54.908,24 L56.156,24 Z M64.4,19.356 C65.048,19.356 65.288,19.044 65.288,18.636 L65.288,18.42 C65.288,18.012 65.048,17.7 64.4,17.7 C63.752,17.7 63.512,18.012 63.512,18.42 L63.512,18.636 C63.512,19.044 63.752,19.356 64.4,19.356 Z M64.4,24.108 C65.048,24.108 65.288,23.796 65.288,23.388 L65.288,23.172 C65.288,22.764 65.048,22.452 64.4,22.452 C63.752,22.452 63.512,22.764 63.512,23.172 L63.512,23.388 C63.512,23.796 63.752,24.108 64.4,24.108 Z" id="Grow:" fill="#00000B" fill-rule="nonzero" opacity="0.539999962"></path>
                    <path d="M40.74,43 L40.74,36.148 L40.836,36.148 L42.6,40.456 L44.364,36.148 L44.46,36.148 L44.46,43 L45.384,43 L45.384,34.624 L44.136,34.624 L42.66,38.32 L42.588,38.32 L41.112,34.624 L39.816,34.624 L39.816,43 L40.74,43 Z M48.288,43 L48.288,39.424 L49.62,39.424 L51.66,43 L52.788,43 L50.652,39.376 C51.984,39.244 52.716,38.38 52.716,37.036 C52.716,35.524 51.876,34.624 50.328,34.624 L47.28,34.624 L47.28,43 L48.288,43 Z M50.304,38.572 L48.288,38.572 L48.288,35.5 L50.304,35.5 C51.144,35.5 51.648,35.944 51.648,36.724 L51.648,37.348 C51.648,38.128 51.144,38.572 50.304,38.572 Z M55.488,43 L55.488,39.424 L56.82,39.424 L58.86,43 L59.988,43 L57.852,39.376 C59.184,39.244 59.916,38.38 59.916,37.036 C59.916,35.524 59.076,34.624 57.528,34.624 L54.48,34.624 L54.48,43 L55.488,43 Z M57.504,38.572 L55.488,38.572 L55.488,35.5 L57.504,35.5 C58.344,35.5 58.848,35.944 58.848,36.724 L58.848,37.348 C58.848,38.128 58.344,38.572 57.504,38.572 Z M64.2,38.356 C64.848,38.356 65.088,38.044 65.088,37.636 L65.088,37.42 C65.088,37.012 64.848,36.7 64.2,36.7 C63.552,36.7 63.312,37.012 63.312,37.42 L63.312,37.636 C63.312,38.044 63.552,38.356 64.2,38.356 Z M64.2,43.108 C64.848,43.108 65.088,42.796 65.088,42.388 L65.088,42.172 C65.088,41.764 64.848,41.452 64.2,41.452 C63.552,41.452 63.312,41.764 63.312,42.172 L63.312,42.388 C63.312,42.796 63.552,43.108 64.2,43.108 Z" id="MRR:" fill="#00000B" fill-rule="nonzero"></path>
                    <path d="M82.636,24 L82.636,23.124 L80.428,23.124 L80.428,15.624 L78.856,15.624 L76.636,17.7 L77.224,18.336 L79.336,16.368 L79.42,16.368 L79.42,23.124 L77.02,23.124 L77.02,24 L82.636,24 Z M86.8,24.144 C88.744,24.144 89.74,23.1 89.74,21.72 C89.74,20.58 89.056,19.92 88.036,19.644 L88.036,19.548 C88.924,19.248 89.488,18.54 89.488,17.58 C89.488,16.308 88.492,15.48 86.8,15.48 C85.108,15.48 84.112,16.308 84.112,17.58 C84.112,18.54 84.676,19.248 85.564,19.548 L85.564,19.644 C84.544,19.92 83.86,20.58 83.86,21.72 C83.86,23.1 84.856,24.144 86.8,24.144 Z M86.8,19.188 C85.72,19.188 85.132,18.696 85.132,17.844 L85.132,17.676 C85.132,16.824 85.744,16.332 86.8,16.332 C87.856,16.332 88.468,16.824 88.468,17.676 L88.468,17.844 C88.468,18.696 87.88,19.188 86.8,19.188 Z M86.8,23.292 C85.624,23.292 84.904,22.728 84.904,21.78 L84.904,21.516 C84.904,20.556 85.6,20.004 86.8,20.004 C88,20.004 88.696,20.556 88.696,21.516 L88.696,21.78 C88.696,22.728 87.976,23.292 86.8,23.292 Z" id="18" fill="#00000B" fill-rule="nonzero" opacity="0.539999962"></path>
                    <circle id="Oval" fill="#95E0D7" fill-rule="evenodd" cx="20" cy="20" r="4"></circle>
                    <path d="M80.092,44.356 L80.092,43.132 C81.712,43 82.624,42.1 82.624,40.708 C82.624,39.58 82.084,38.644 80.44,38.368 L80.08,38.308 L80.08,35.368 C80.872,35.452 81.4,35.812 81.832,36.388 L82.588,35.848 C81.988,35.032 81.196,34.576 80.092,34.492 L80.092,33.268 L79.348,33.268 L79.348,34.492 C77.836,34.6 76.9,35.416 76.9,36.76 C76.9,37.852 77.428,38.812 79.084,39.088 L79.36,39.136 L79.36,42.268 C78.52,42.184 77.908,41.788 77.332,41.068 L76.6,41.668 C77.176,42.472 78.016,43.048 79.348,43.132 L79.348,44.356 L80.092,44.356 Z M79.36,38.188 C78.292,37.972 77.872,37.54 77.872,36.76 C77.872,35.932 78.412,35.452 79.36,35.356 L79.36,38.188 Z M80.08,42.256 L80.08,39.256 C81.196,39.448 81.652,39.868 81.652,40.72 C81.652,41.596 81.088,42.148 80.08,42.256 Z M86.74,43.144 C88.528,43.144 89.596,42.004 89.596,40.372 C89.596,38.752 88.528,37.792 87.064,37.792 C86.176,37.792 85.72,38.14 85.312,38.704 L85.228,38.704 L85.468,35.5 L89.212,35.5 L89.212,34.624 L84.652,34.624 L84.352,39.232 L85.204,39.352 C85.564,38.956 85.948,38.644 86.74,38.644 C87.904,38.644 88.552,39.304 88.552,40.408 L88.552,40.504 C88.552,41.596 87.916,42.268 86.764,42.268 C85.732,42.268 85.276,41.8 84.832,41.14 L84.076,41.716 C84.592,42.436 85.324,43.144 86.74,43.144 Z M93.796,43 C95.164,42.124 96.832,40.18 96.832,37.696 C96.832,35.704 95.752,34.48 93.988,34.48 C92.284,34.48 91.168,35.608 91.168,37.252 C91.168,38.836 92.212,39.832 93.676,39.832 C94.72,39.832 95.332,39.316 95.74,38.632 L95.8,38.656 C95.332,40.6 94.324,41.692 92.5,43 L93.796,43 Z M94,39.004 C92.86,39.004 92.188,38.344 92.188,37.216 L92.188,37.12 C92.188,35.992 92.86,35.332 94,35.332 C95.14,35.332 95.812,35.992 95.812,37.12 L95.812,37.216 C95.812,38.344 95.14,39.004 94,39.004 Z M100.996,43 C102.364,42.124 104.032,40.18 104.032,37.696 C104.032,35.704 102.952,34.48 101.188,34.48 C99.484,34.48 98.368,35.608 98.368,37.252 C98.368,38.836 99.412,39.832 100.876,39.832 C101.92,39.832 102.532,39.316 102.94,38.632 L103,38.656 C102.532,40.6 101.524,41.692 99.7,43 L100.996,43 Z M101.2,39.004 C100.06,39.004 99.388,38.344 99.388,37.216 L99.388,37.12 C99.388,35.992 100.06,35.332 101.2,35.332 C102.34,35.332 103.012,35.992 103.012,37.12 L103.012,37.216 C103.012,38.344 102.34,39.004 101.2,39.004 Z M111.244,43 L111.244,42.124 L106.696,42.124 L109.036,40.084 C110.152,39.112 110.908,38.176 110.908,36.904 C110.908,35.488 109.972,34.48 108.304,34.48 C106.66,34.48 105.904,35.464 105.58,36.448 L106.48,36.784 C106.744,35.92 107.26,35.356 108.28,35.356 C109.312,35.356 109.852,35.932 109.852,36.94 L109.852,37.084 C109.852,37.936 109.264,38.716 108.448,39.448 L105.652,41.968 L105.652,43 L111.244,43 Z" id="$5992" fill="#00000B" fill-rule="nonzero"></path>
                    <path d="M42.576,70.144 C44.436,70.144 45.504,69.208 45.504,67.66 C45.504,66.568 44.964,65.656 43.32,65.368 L42.42,65.212 C41.232,65.008 40.848,64.528 40.848,63.784 C40.848,62.836 41.484,62.344 42.612,62.344 C43.656,62.344 44.256,62.764 44.724,63.376 L45.432,62.764 C44.868,61.96 43.956,61.48 42.624,61.48 C40.92,61.48 39.828,62.272 39.828,63.808 C39.828,64.864 40.344,65.812 41.988,66.088 L42.924,66.244 C44.064,66.436 44.484,66.868 44.484,67.684 C44.484,68.692 43.824,69.28 42.612,69.28 C41.604,69.28 40.92,68.884 40.272,68.068 L39.54,68.668 C40.164,69.532 41.076,70.144 42.576,70.144 Z M48.42,70 L48.42,67.756 L49.488,66.784 L51.9,70 L53.088,70 L50.22,66.232 L52.788,63.808 L51.612,63.808 L49.548,65.704 L48.468,66.724 L48.42,66.724 L48.42,61.12 L47.46,61.12 L47.46,70 L48.42,70 Z M55.308,72.4 C56.244,72.4 56.604,72.064 56.892,71.356 L59.964,63.808 L59.004,63.808 L57.96,66.4 L57.036,68.752 L56.988,68.752 L56.064,66.4 L55.02,63.808 L54.036,63.808 L56.532,69.88 L55.836,71.584 L54.396,71.584 L54.396,72.4 L55.308,72.4 Z M64.2,65.356 C64.848,65.356 65.088,65.044 65.088,64.636 L65.088,64.42 C65.088,64.012 64.848,63.7 64.2,63.7 C63.552,63.7 63.312,64.012 63.312,64.42 L63.312,64.636 C63.312,65.044 63.552,65.356 64.2,65.356 Z M64.2,70.108 C64.848,70.108 65.088,69.796 65.088,69.388 L65.088,69.172 C65.088,68.764 64.848,68.452 64.2,68.452 C63.552,68.452 63.312,68.764 63.312,69.172 L63.312,69.388 C63.312,69.796 63.552,70.108 64.2,70.108 Z" id="Sky:" fill="#00000B" fill-rule="nonzero" opacity="0.539999962"></path>
                    <path d="M40.74,89 L40.74,82.148 L40.836,82.148 L42.6,86.456 L44.364,82.148 L44.46,82.148 L44.46,89 L45.384,89 L45.384,80.624 L44.136,80.624 L42.66,84.32 L42.588,84.32 L41.112,80.624 L39.816,80.624 L39.816,89 L40.74,89 Z M48.288,89 L48.288,85.424 L49.62,85.424 L51.66,89 L52.788,89 L50.652,85.376 C51.984,85.244 52.716,84.38 52.716,83.036 C52.716,81.524 51.876,80.624 50.328,80.624 L47.28,80.624 L47.28,89 L48.288,89 Z M50.304,84.572 L48.288,84.572 L48.288,81.5 L50.304,81.5 C51.144,81.5 51.648,81.944 51.648,82.724 L51.648,83.348 C51.648,84.128 51.144,84.572 50.304,84.572 Z M55.488,89 L55.488,85.424 L56.82,85.424 L58.86,89 L59.988,89 L57.852,85.376 C59.184,85.244 59.916,84.38 59.916,83.036 C59.916,81.524 59.076,80.624 57.528,80.624 L54.48,80.624 L54.48,89 L55.488,89 Z M57.504,84.572 L55.488,84.572 L55.488,81.5 L57.504,81.5 C58.344,81.5 58.848,81.944 58.848,82.724 L58.848,83.348 C58.848,84.128 58.344,84.572 57.504,84.572 Z M64.2,84.356 C64.848,84.356 65.088,84.044 65.088,83.636 L65.088,83.42 C65.088,83.012 64.848,82.7 64.2,82.7 C63.552,82.7 63.312,83.012 63.312,83.42 L63.312,83.636 C63.312,84.044 63.552,84.356 64.2,84.356 Z M64.2,89.108 C64.848,89.108 65.088,88.796 65.088,88.388 L65.088,88.172 C65.088,87.764 64.848,87.452 64.2,87.452 C63.552,87.452 63.312,87.764 63.312,88.172 L63.312,88.388 C63.312,88.796 63.552,89.108 64.2,89.108 Z" id="MRR:" fill="#00000B" fill-rule="nonzero"></path>
                    <path d="M79.54,70.144 C81.328,70.144 82.396,69.004 82.396,67.372 C82.396,65.752 81.328,64.792 79.864,64.792 C78.976,64.792 78.52,65.14 78.112,65.704 L78.028,65.704 L78.268,62.5 L82.012,62.5 L82.012,61.624 L77.452,61.624 L77.152,66.232 L78.004,66.352 C78.364,65.956 78.748,65.644 79.54,65.644 C80.704,65.644 81.352,66.304 81.352,67.408 L81.352,67.504 C81.352,68.596 80.716,69.268 79.564,69.268 C78.532,69.268 78.076,68.8 77.632,68.14 L76.876,68.716 C77.392,69.436 78.124,70.144 79.54,70.144 Z" id="5" fill="#00000B" fill-rule="nonzero" opacity="0.539999962"></path>
                    <circle id="Oval" fill="#F3D690" fill-rule="evenodd" cx="20" cy="66" r="4"></circle>
                    <path d="M80.092,90.356 L80.092,89.132 C81.712,89 82.624,88.1 82.624,86.708 C82.624,85.58 82.084,84.644 80.44,84.368 L80.08,84.308 L80.08,81.368 C80.872,81.452 81.4,81.812 81.832,82.388 L82.588,81.848 C81.988,81.032 81.196,80.576 80.092,80.492 L80.092,79.268 L79.348,79.268 L79.348,80.492 C77.836,80.6 76.9,81.416 76.9,82.76 C76.9,83.852 77.428,84.812 79.084,85.088 L79.36,85.136 L79.36,88.268 C78.52,88.184 77.908,87.788 77.332,87.068 L76.6,87.668 C77.176,88.472 78.016,89.048 79.348,89.132 L79.348,90.356 L80.092,90.356 Z M79.36,84.188 C78.292,83.972 77.872,83.54 77.872,82.76 C77.872,81.932 78.412,81.452 79.36,81.356 L79.36,84.188 Z M80.08,88.256 L80.08,85.256 C81.196,85.448 81.652,85.868 81.652,86.72 C81.652,87.596 81.088,88.148 80.08,88.256 Z M88.696,89 L88.696,87.356 L89.944,87.356 L89.944,86.528 L88.696,86.528 L88.696,80.624 L87.232,80.624 L83.608,86.468 L83.608,87.356 L87.736,87.356 L87.736,89 L88.696,89 Z M87.736,86.528 L84.508,86.528 L87.688,81.404 L87.736,81.404 L87.736,86.528 Z M93.724,89.144 C95.464,89.144 96.616,88.148 96.616,86.708 C96.616,85.448 95.74,84.776 94.816,84.596 L94.816,84.548 C95.728,84.32 96.448,83.672 96.448,82.592 C96.448,81.236 95.308,80.48 93.88,80.48 C92.512,80.48 91.768,81.176 91.336,81.848 L92.092,82.424 C92.44,81.788 92.968,81.356 93.856,81.356 C94.768,81.356 95.392,81.812 95.392,82.7 L95.392,82.784 C95.392,83.588 94.804,84.176 93.64,84.176 L92.716,84.176 L92.716,85.04 L93.712,85.04 C94.936,85.04 95.56,85.616 95.56,86.6 L95.56,86.696 C95.56,87.692 94.9,88.268 93.724,88.268 C92.668,88.268 92.176,87.8 91.732,87.14 L90.976,87.716 C91.492,88.436 92.248,89.144 93.724,89.144 Z M104.044,89 L104.044,88.124 L99.496,88.124 L101.836,86.084 C102.952,85.112 103.708,84.176 103.708,82.904 C103.708,81.488 102.772,80.48 101.104,80.48 C99.46,80.48 98.704,81.464 98.38,82.448 L99.28,82.784 C99.544,81.92 100.06,81.356 101.08,81.356 C102.112,81.356 102.652,81.932 102.652,82.94 L102.652,83.084 C102.652,83.936 102.064,84.716 101.248,85.448 L98.452,87.968 L98.452,89 L104.044,89 Z M108.34,89.144 C110.128,89.144 111.196,88.004 111.196,86.372 C111.196,84.752 110.128,83.792 108.664,83.792 C107.776,83.792 107.32,84.14 106.912,84.704 L106.828,84.704 L107.068,81.5 L110.812,81.5 L110.812,80.624 L106.252,80.624 L105.952,85.232 L106.804,85.352 C107.164,84.956 107.548,84.644 108.34,84.644 C109.504,84.644 110.152,85.304 110.152,86.408 L110.152,86.504 C110.152,87.596 109.516,88.268 108.364,88.268 C107.332,88.268 106.876,87.8 106.432,87.14 L105.676,87.716 C106.192,88.436 106.924,89.144 108.34,89.144 Z" id="$4325" fill="#00000B" fill-rule="nonzero"></path>
                    <path d="M33.968,116 L33.968,112.196 L37.232,112.196 L37.232,116 L38.24,116 L38.24,107.624 L37.232,107.624 L37.232,111.32 L33.968,111.32 L33.968,107.624 L32.96,107.624 L32.96,116 L33.968,116 Z M43.184,108.44 C43.736,108.44 43.94,108.176 43.94,107.828 L43.94,107.636 C43.94,107.288 43.736,107.024 43.184,107.024 C42.632,107.024 42.428,107.288 42.428,107.636 L42.428,107.828 C42.428,108.176 42.632,108.44 43.184,108.44 Z M45.752,116 L45.752,115.184 L43.664,115.184 L43.664,109.808 L40.472,109.808 L40.472,110.624 L42.704,110.624 L42.704,115.184 L40.472,115.184 L40.472,116 L45.752,116 Z M50.012,118.544 C52.076,118.544 53.132,117.956 53.132,116.708 C53.132,115.7 52.448,115.052 50.852,115.052 L49.484,115.052 C48.896,115.052 48.488,114.968 48.488,114.596 C48.488,114.176 49.004,113.96 49.376,113.888 C49.568,113.924 49.76,113.936 49.964,113.936 C51.416,113.936 52.376,113.06 52.376,111.8 C52.376,111.152 52.124,110.612 51.68,110.228 L51.68,109.808 L53.072,109.808 L53.072,108.968 L51.932,108.968 C51.392,108.968 51.188,109.328 51.188,109.808 L51.188,109.916 C50.84,109.748 50.432,109.664 49.964,109.664 C48.512,109.664 47.564,110.54 47.564,111.8 C47.564,112.676 48.02,113.36 48.776,113.696 L48.776,113.744 C48.14,113.9 47.66,114.188 47.66,114.824 C47.66,115.244 47.864,115.508 48.212,115.676 L48.212,115.82 C47.576,115.988 47.204,116.348 47.204,117.008 C47.204,117.992 48.02,118.544 50.012,118.544 Z M49.964,113.192 C49.016,113.192 48.572,112.7 48.572,111.968 L48.572,111.62 C48.572,110.888 49.016,110.408 49.964,110.408 C50.924,110.408 51.368,110.888 51.368,111.62 L51.368,111.968 C51.368,112.7 50.924,113.192 49.964,113.192 Z M50.456,117.776 L49.52,117.776 C48.512,117.776 48.116,117.32 48.116,116.78 C48.116,116.384 48.332,116.108 48.74,115.94 L50.888,115.94 C51.884,115.94 52.232,116.264 52.232,116.756 C52.232,117.428 51.572,117.776 50.456,117.776 Z M55.736,116 L55.736,111.704 C55.736,110.888 56.504,110.516 57.272,110.516 C58.22,110.516 58.736,111.068 58.736,112.196 L58.736,116 L59.696,116 L59.696,112.028 C59.696,110.528 58.844,109.664 57.548,109.664 C56.528,109.664 56.048,110.204 55.784,110.816 L55.736,110.816 L55.736,107.12 L54.776,107.12 L54.776,116 L55.736,116 Z M64.4,111.356 C65.048,111.356 65.288,111.044 65.288,110.636 L65.288,110.42 C65.288,110.012 65.048,109.7 64.4,109.7 C63.752,109.7 63.512,110.012 63.512,110.42 L63.512,110.636 C63.512,111.044 63.752,111.356 64.4,111.356 Z M64.4,116.108 C65.048,116.108 65.288,115.796 65.288,115.388 L65.288,115.172 C65.288,114.764 65.048,114.452 64.4,114.452 C63.752,114.452 63.512,114.764 63.512,115.172 L63.512,115.388 C63.512,115.796 63.752,116.108 64.4,116.108 Z" id="High:" fill="#00000B" fill-rule="nonzero" opacity="0.539999962"></path>
                    <path d="M40.74,135 L40.74,128.148 L40.836,128.148 L42.6,132.456 L44.364,128.148 L44.46,128.148 L44.46,135 L45.384,135 L45.384,126.624 L44.136,126.624 L42.66,130.32 L42.588,130.32 L41.112,126.624 L39.816,126.624 L39.816,135 L40.74,135 Z M48.288,135 L48.288,131.424 L49.62,131.424 L51.66,135 L52.788,135 L50.652,131.376 C51.984,131.244 52.716,130.38 52.716,129.036 C52.716,127.524 51.876,126.624 50.328,126.624 L47.28,126.624 L47.28,135 L48.288,135 Z M50.304,130.572 L48.288,130.572 L48.288,127.5 L50.304,127.5 C51.144,127.5 51.648,127.944 51.648,128.724 L51.648,129.348 C51.648,130.128 51.144,130.572 50.304,130.572 Z M55.488,135 L55.488,131.424 L56.82,131.424 L58.86,135 L59.988,135 L57.852,131.376 C59.184,131.244 59.916,130.38 59.916,129.036 C59.916,127.524 59.076,126.624 57.528,126.624 L54.48,126.624 L54.48,135 L55.488,135 Z M57.504,130.572 L55.488,130.572 L55.488,127.5 L57.504,127.5 C58.344,127.5 58.848,127.944 58.848,128.724 L58.848,129.348 C58.848,130.128 58.344,130.572 57.504,130.572 Z M64.2,130.356 C64.848,130.356 65.088,130.044 65.088,129.636 L65.088,129.42 C65.088,129.012 64.848,128.7 64.2,128.7 C63.552,128.7 63.312,129.012 63.312,129.42 L63.312,129.636 C63.312,130.044 63.552,130.356 64.2,130.356 Z M64.2,135.108 C64.848,135.108 65.088,134.796 65.088,134.388 L65.088,134.172 C65.088,133.764 64.848,133.452 64.2,133.452 C63.552,133.452 63.312,133.764 63.312,134.172 L63.312,134.388 C63.312,134.796 63.552,135.108 64.2,135.108 Z" id="MRR:" fill="#00000B" fill-rule="nonzero"></path>
                    <path d="M82.636,116 L82.636,115.124 L80.428,115.124 L80.428,107.624 L78.856,107.624 L76.636,109.7 L77.224,110.336 L79.336,108.368 L79.42,108.368 L79.42,115.124 L77.02,115.124 L77.02,116 L82.636,116 Z M86.8,116.144 C88.84,116.144 89.728,114.548 89.728,111.812 C89.728,109.076 88.84,107.48 86.8,107.48 C84.76,107.48 83.872,109.076 83.872,111.812 C83.872,114.548 84.76,116.144 86.8,116.144 Z M86.8,115.268 C85.456,115.268 84.916,114.176 84.916,112.496 L84.916,111.128 C84.916,109.448 85.456,108.356 86.8,108.356 C88.144,108.356 88.684,109.448 88.684,111.128 L88.684,112.496 C88.684,114.176 88.144,115.268 86.8,115.268 Z M86.8,112.52 C87.352,112.52 87.544,112.268 87.544,111.944 L87.544,111.68 C87.544,111.356 87.352,111.104 86.8,111.104 C86.248,111.104 86.056,111.356 86.056,111.68 L86.056,111.944 C86.056,112.268 86.248,112.52 86.8,112.52 Z" id="10" fill="#00000B" fill-rule="nonzero" opacity="0.539999962"></path>
                    <circle id="Oval" fill="#C898D6" fill-rule="evenodd" cx="20" cy="112" r="4"></circle>
                    <path d="M80.092,136.356 L80.092,135.132 C81.712,135 82.624,134.1 82.624,132.708 C82.624,131.58 82.084,130.644 80.44,130.368 L80.08,130.308 L80.08,127.368 C80.872,127.452 81.4,127.812 81.832,128.388 L82.588,127.848 C81.988,127.032 81.196,126.576 80.092,126.492 L80.092,125.268 L79.348,125.268 L79.348,126.492 C77.836,126.6 76.9,127.416 76.9,128.76 C76.9,129.852 77.428,130.812 79.084,131.088 L79.36,131.136 L79.36,134.268 C78.52,134.184 77.908,133.788 77.332,133.068 L76.6,133.668 C77.176,134.472 78.016,135.048 79.348,135.132 L79.348,136.356 L80.092,136.356 Z M79.36,130.188 C78.292,129.972 77.872,129.54 77.872,128.76 C77.872,127.932 78.412,127.452 79.36,127.356 L79.36,130.188 Z M80.08,134.256 L80.08,131.256 C81.196,131.448 81.652,131.868 81.652,132.72 C81.652,133.596 81.088,134.148 80.08,134.256 Z M86.356,135 L89.572,127.512 L89.572,126.624 L83.98,126.624 L83.98,129.048 L84.88,129.048 L84.88,127.488 L88.552,127.488 L85.276,135 L86.356,135 Z M94,135.144 C96.04,135.144 96.928,133.548 96.928,130.812 C96.928,128.076 96.04,126.48 94,126.48 C91.96,126.48 91.072,128.076 91.072,130.812 C91.072,133.548 91.96,135.144 94,135.144 Z M94,134.268 C92.656,134.268 92.116,133.176 92.116,131.496 L92.116,130.128 C92.116,128.448 92.656,127.356 94,127.356 C95.344,127.356 95.884,128.448 95.884,130.128 L95.884,131.496 C95.884,133.176 95.344,134.268 94,134.268 Z M94,131.52 C94.552,131.52 94.744,131.268 94.744,130.944 L94.744,130.68 C94.744,130.356 94.552,130.104 94,130.104 C93.448,130.104 93.256,130.356 93.256,130.68 L93.256,130.944 C93.256,131.268 93.448,131.52 94,131.52 Z M101.2,135.144 C103.24,135.144 104.128,133.548 104.128,130.812 C104.128,128.076 103.24,126.48 101.2,126.48 C99.16,126.48 98.272,128.076 98.272,130.812 C98.272,133.548 99.16,135.144 101.2,135.144 Z M101.2,134.268 C99.856,134.268 99.316,133.176 99.316,131.496 L99.316,130.128 C99.316,128.448 99.856,127.356 101.2,127.356 C102.544,127.356 103.084,128.448 103.084,130.128 L103.084,131.496 C103.084,133.176 102.544,134.268 101.2,134.268 Z M101.2,131.52 C101.752,131.52 101.944,131.268 101.944,130.944 L101.944,130.68 C101.944,130.356 101.752,130.104 101.2,130.104 C100.648,130.104 100.456,130.356 100.456,130.68 L100.456,130.944 C100.456,131.268 100.648,131.52 101.2,131.52 Z M108.4,135.144 C110.44,135.144 111.328,133.548 111.328,130.812 C111.328,128.076 110.44,126.48 108.4,126.48 C106.36,126.48 105.472,128.076 105.472,130.812 C105.472,133.548 106.36,135.144 108.4,135.144 Z M108.4,134.268 C107.056,134.268 106.516,133.176 106.516,131.496 L106.516,130.128 C106.516,128.448 107.056,127.356 108.4,127.356 C109.744,127.356 110.284,128.448 110.284,130.128 L110.284,131.496 C110.284,133.176 109.744,134.268 108.4,134.268 Z M108.4,131.52 C108.952,131.52 109.144,131.268 109.144,130.944 L109.144,130.68 C109.144,130.356 108.952,130.104 108.4,130.104 C107.848,130.104 107.656,130.356 107.656,130.68 L107.656,130.944 C107.656,131.268 107.848,131.52 108.4,131.52 Z" id="$7000" fill="#00000B" fill-rule="nonzero"></path>
                </g>
            </g>
            <g id="Group-62" mask="url(#mask-2)">
                <g transform="translate(255.000000, 251.000000)"></g>
            </g>
            <g id="Group-62-Copy" mask="url(#mask-2)">
                <g transform="translate(255.000000, 297.000000)"></g>
            </g>
            <g id="Group-62-Copy-2" mask="url(#mask-2)">
                <g transform="translate(255.000000, 343.000000)"></g>
            </g>
            <rect id="Rectangle" fill="url(#linearGradient-17)" mask="url(#mask-2)" x="0" y="318" width="555" height="62"></rect>
            <rect id="Rectangle" fill="url(#linearGradient-18)" mask="url(#mask-2)" transform="translate(503.500000, 90.000000) rotate(-90.000000) translate(-503.500000, -90.000000) " x="226" y="38" width="555" height="104"></rect>
        </g>
    </g>
</svg>